<svg width="1921" height="1080" viewBox="0 0 1921 1080" fill="none" xmlns="http://www.w3.org/2000/svg">
<path d="M0.199951 1080H1920.2V0H0.199951V1080Z" fill="none"/>
<path d="M1264.3 478V648.1C1264.3 654.3 1260 659.6 1254 660.9L1203 671.3L1202.6 671.4C1186 709.4 1159.5 744.1 1126.1 771C1080.8 807.6 1026.1 827.7 968 829.4C965.3 829.5 962.6 829.5 959.9 829.5C946.5 829.5 933.2 828.5 920.3 826.6C920.1 826.6 919.9 826.567 919.7 826.5C873.4 819.7 830.4 800.9 793.6 771.2C759.9 744.1 733.3 709.3 716.7 671.2L666.4 660.8C660.3 659.6 656 654.3 656 648.1V477.4C656 473.9 657.4 470.6 659.9 468.1C662.3 465.8 665.6 464.4 669 464.4H669.2C674.5 464.5 679.8 464.8 684.8 465.1C687.8 465.3 701.7 465.5 713.2 465.6C713.4 465.6 713.6 465.6 713.8 465.6C753 367.9 848.5 299 960.2 299C1017.4 299 1070.4 317.1 1113.7 347.9C1114.03 348.167 1114.37 348.4 1114.7 348.6C1158.4 380.3 1189.6 423.1 1205.7 465H1251.3C1258.5 465 1264.3 470.8 1264.3 478Z" fill="black"/>
<path d="M1242 646.1C1227.67 650.367 1213.33 654.633 1199 658.9C1216.4 655.3 1233.8 651.7 1251.3 648.1V478C1241.2 478 1231.4 478 1221.6 478C1221.67 478.267 1221.7 478.567 1221.7 478.9C1228.4 478.9 1235.1 478.9 1242 478.9V646.1Z" fill="url(#paint0_linear_0_1)"/>
<path d="M1095.4 564.2C1096 632.9 1039.7 699.6 959.3 700.1C883.6 700.5 821.6 639.7 821.9 563.2C822.2 484.2 885.8 427.3 957.2 426.6C1033.2 425.8 1095.9 487.3 1095.4 564.2Z" fill="#FFB902"/>
<path d="M871.2 577.1C883.8 573.8 896.5 571.2 909.4 569.3C918 568.1 926.6 567.3 935.3 566.7C938.7 566.4 942 566.4 945.4 566.2C946.4 566.1 946.8 566.6 947.1 567.4C953 580.1 962.5 589 975.9 593.1C992 598.1 1006.8 595.1 1020 584.6C1023.6 581.8 1026.6 578.5 1029 574.7C1029.7 573.7 1030.3 573.5 1031.4 573.7C1048 577.2 1064 582.2 1079.8 588.2C1082.2 589.1 1084.6 590.2 1087.1 591C1088.4 591.4 1088.4 592.1 1088.2 593.1C1086.8 598.6 1085.3 604 1083.3 609.3C1080.5 616.6 1077.3 623.7 1073.1 630.3C1072.7 631 1072.3 631.6 1071.8 632.2C1070.4 634.2 1068.3 635.6 1066.5 637.2C1061.37 641.8 1055.9 645.933 1050.1 649.6C1039.7 656.2 1028.5 661 1016.6 664.1C1009.4 666.033 1002.1 667.267 994.7 667.8C974.7 669.1 955.5 665.7 937.2 657.5C928.6 653.7 920.5 648.9 913.1 643.1C905.6 637.3 898.8 630.7 892.9 623.2C882.5 610 875.1 595.3 870.8 579.1C870.6 578.4 870.3 577.6 871.2 577.1Z" fill="#FEFEFE"/>
<path d="M871.2 577.1C870.8 577.6 871 578.1 871.1 578.7C874 589.9 878.4 600.4 884.4 610.3C891.7 622.4 900.9 632.8 912 641.6C926.9 653.5 943.6 661.3 962.3 665.2C968.3 666.5 974.4 667.1 980.6 667.5C996.4 668.2 1011.7 665.9 1026.6 660.6C1035.7 657.4 1044.2 653 1052.3 647.7C1058.6 643.5 1064.3 638.6 1070 633.6C1070.6 633.1 1071.2 632.6 1071.8 632.2C1070.7 635 1068.8 637.3 1067.1 639.7C1061.8 647.4 1055.6 654.3 1048.7 660.6C1041 667.8 1032.4 673.9 1023.2 679.1C1012.4 685.1 1001.03 689.467 989.1 692.2C981.966 693.867 974.767 694.933 967.5 695.4C964.3 695.6 961.2 695.7 958.1 695.8C953.8 695.9 949.4 695.5 945.1 695.1C933.166 693.9 921.633 691.133 910.5 686.8C896.1 681.2 883.1 673.5 871.5 663.4C849.7 644.4 835.5 620.9 828.7 592.8C828.3 591.3 828.8 590.8 830.1 590.3C842.9 585.5 855.9 581.2 869.2 577.6C869.867 577.467 870.533 577.3 871.2 577.1Z" fill="#A09D9D"/>
<path d="M835.4 557.4C841.9 555 848.3 552.6 854.8 550.4C862.1 547.9 869.5 545.5 877 543.5C886.4 541.1 895.8 538.8 905.3 537.2C912.7 536 920.1 534.9 927.6 534.3C932.3 533.9 937 533.5 941.7 533.3C943.6 533.3 945.5 533.1 947.4 533.1C948.3 533.1 948.6 532.7 948.9 532C952.5 522.7 958.6 515.5 967.1 510.4C972.566 507 978.5 504.933 984.9 504.2C996.9 502.9 1007.7 505.9 1017.2 513.2C1025.7 519.7 1031.1 528.2 1033.4 538.7C1033.8 540.1 1034.4 540.7 1035.8 540.9C1049.8 543.7 1063 548.8 1075.9 554.6C1081 556.9 1086.1 559 1091.2 561.1C1092.1 561.5 1092.6 562.1 1092.6 563C1092.9 571.5 1092.6 579.9 1090.6 588.2C1090.3 589.5 1089.6 589.2 1088.8 588.9C1080.2 585.433 1071.5 582.267 1062.7 579.4C1051.9 575.9 1040.9 573 1029.8 570.7C1028.7 570.4 1028.3 571 1027.9 571.7C1024.3 577.4 1019.7 582.2 1014 585.8C1007.8 589.7 1001.1 592 993.8 592.6C983.3 593.4 973.7 590.8 965 585C957.5 579.9 952.2 573.1 948.8 564.7C948.4 563.6 947.7 563.3 946.7 563.4C941.3 563.7 935.8 563.9 930.5 564.4C923.4 565 916.3 565.7 909.2 566.7C899.5 568.1 890 569.9 880.4 572C876.8 572.8 873.4 574.1 869.8 574.9C865.3 576 861 577.4 856.6 578.6C855.8 578.9 855.1 579.4 854.3 579.3C852.6 579.9 851.2 579.2 849.7 578.6C841.2 574.9 836.3 568.4 834.9 559.2C834.8 558.5 834.7 557.8 835.4 557.4Z" fill="#58585A"/>
<path d="M1091.6 556.4C1091.3 550.8 1090.7 545.3 1089.7 539.8C1084.1 509.8 1070.1 484.4 1047.3 464.2C1017.2 437.5 981.8 426.8 941.9 431.3C923.9 433.4 907 439.3 891.3 448.5C886.1 451.6 881 454.9 876.4 458.9C873 461.5 869.5 464.1 866.5 467.2C865.167 468.6 863.833 470.033 862.5 471.5C861.4 472.6 860.3 473.7 859.3 474.9C839.4 497.4 828.3 523.6 826 553.6C825.8 555.1 825.6 556.6 825.8 558.3C826.8 558 827.6 557.7 828.4 557.4C843.9 551.4 859.5 545.7 875.4 541.2C898 534.8 921 531.1 944.5 530.5C945.9 530.4 946.6 530 947.2 528.8C955.8 510.3 973.6 499.9 993.9 501.3C1013.6 502.6 1030.9 517.1 1035.7 536.3C1036.1 537.7 1036.7 538.3 1038.1 538.6C1046.1 540.2 1054 542.7 1061.6 545.6C1071.2 549.3 1080.4 553.7 1089.9 557.6C1091.7 558.3 1091.7 558.3 1091.6 556.4Z" fill="#FF0000"/>
<path d="M835.4 557.4C834.8 559 835.5 560.6 835.9 562C838.3 570.9 844 576.6 852.8 579.2C853.3 579.3 853.8 579.3 854.3 579.3C849.9 580.8 845.5 582.2 841.1 583.7C836.9 585.2 832.6 586.6 828.5 588.3C827.5 588.8 827.3 588.3 827.1 587.5C826.4 584.8 826.1 582 825.6 579.3C824.7 573.9 825.1 568.5 825 563.1C825 561.9 825.4 561.3 826.6 560.8C829.5 559.8 832.4 558.3 835.4 557.4Z" fill="#363638"/>
<path d="M991.5 514.7C1009.3 514.5 1024.2 529.4 1024 547.7C1023.7 565.6 1009.4 580.2 991 580.1C972.7 580 958.5 565 958.6 547.2C958.6 529.3 973.3 514.4 991.5 514.7Z" fill="black"/>
<path d="M961.3 547C961.6 530.4 975.2 517.2 991.6 517.4C1008.5 517.7 1021.4 531.3 1021.1 548.5C1020.9 564.6 1007 577.5 990.3 577.2C974.3 577 961.1 563.1 961.3 547Z" fill="#FEFEFE"/>
<path d="M991.4 524.3C1004.2 524.4 1014.4 534.8 1014.3 547.6C1014.1 560.3 1003.8 570.5 991.1 570.4C978.3 570.3 968.1 559.9 968.3 547C968.4 534.4 978.8 524.2 991.4 524.3Z" fill="black"/>
<path d="M1012.5 547.8C1011.8 560.2 1002.1 569.1 989.9 568.5C978.7 567.9 969.4 557.7 970.1 546.6C970.7 534.7 980.6 525.5 992.1 526.2C1003.7 526.8 1013 536.7 1012.5 547.8Z" fill="#FEFEFE"/>
<path d="M1048.6 487.8C1048.6 513.1 1028.1 533.6 1002.8 533.6C977.6 533.6 957.1 513.1 957.1 487.8C957.1 462.6 977.6 442.1 1002.8 442.1C1028.1 442.1 1048.6 462.6 1048.6 487.8Z" fill="url(#paint1_radial_0_1)"/>
<path d="M976.3 437.3C906.9 436.7 852.1 488.4 844.2 566.1L838.8 514.7C838.8 514.7 868.6 427.5 976.3 437.3Z" fill="url(#paint2_linear_0_1)"/>
<path d="M692.8 627C871 581.8 1048.9 581.8 1226.8 627.1V492.9C1048.6 488.2 870.7 488.2 693 492.9C692.1 497.9 692 622.4 692.8 627Z" fill="#006D5B"/>
<path d="M1186.8 635.9C1161.8 720.7 1079.7 798.1 969.9 802.4C846.9 807.2 758 723.1 732.2 634.8L807.6 618.3C838.3 686.2 888.8 725.7 964.6 723.7C1035.8 721.8 1086.4 679.9 1111.4 618.9L1186.8 635.9Z" fill="url(#paint3_linear_0_1)"/>
<path d="M930.5 327.5C877.5 333.7 831.6 356.2 793.3 393.4C769.1 416.8 750.7 444.3 738 476.4H756.2C789.9 404.8 845.1 361.2 923.1 345.6V401.3C878.4 412.3 843.8 436.6 818.7 475.1H826.2C859.3 429.4 903.2 404.2 959.9 404.3C1016.6 404.3 1060.4 429.6 1093.2 475.1H1100.8C1075.6 436.6 1040.8 412.1 996.4 401.3V345.6C1074.6 361.4 1129.9 405.2 1163.3 476.5H1181.2C1151.2 395.9 1058.7 312.5 930.5 327.5Z" fill="url(#paint4_linear_0_1)"/>
<path d="M1200.5 639C1173.7 730.9 1084.8 813.1 967.6 816.4C837.8 820 744.8 730.2 718.5 637.8L724.6 636.4C743.3 694.4 778 740.1 829.5 772.6C871.3 799 917.4 812.5 966.7 809.6C1080.6 803 1154.7 742.8 1195.3 637.8L1200.5 639Z" fill="url(#paint5_linear_0_1)"/>
<path d="M937.5 312.8C878.4 317.7 827.4 341.5 784.5 382.4C757 408.7 736.7 439.9 723.1 476.1H729.2C772.7 379.6 845.3 325.3 951.6 318.4C1065.5 318.9 1143.4 373.8 1190.6 476.3H1196C1166 388.9 1069.4 301.7 937.5 312.8Z" fill="url(#paint6_linear_0_1)"/>
<path d="M678.5 646.1V478.8C685.4 478.8 692.1 478.8 698.9 478.8C689 478.6 679.1 477.6 669 477.4V648.1C686.7 651.7 704.1 655.3 721.5 658.9C707.2 654.6 693 650.4 678.5 646.1Z" fill="url(#paint7_linear_0_1)"/>
<path d="M1109 387C1107.4 385.4 1105.1 384.6 1102.1 384.6C1101.63 384.6 1101.17 384.633 1100.7 384.7C1100.57 384.7 1100.43 384.7 1100.3 384.7H1099.8C1099.73 384.567 1099.67 384.433 1099.6 384.3C1098.7 383.1 1097.2 382.4 1095.6 382.4H1091.8C1090.3 382.4 1089 382.9 1088.1 383.9C1087.1 382.9 1085.8 382.4 1084.5 382.4H1080.6C1078.8 382.4 1077.2 383.3 1076.3 384.9C1075.3 384.7 1074.3 384.6 1073.2 384.6C1070.7 384.6 1068.7 385 1067.2 385.6C1066 385 1064.7 384.6 1063 384.6C1062.33 384.6 1061.7 384.633 1061.1 384.7C1060.97 384.7 1060.8 384.7 1060.6 384.7H1056.8C1055.9 384.7 1055.1 384.9 1054.4 385.2C1053.2 384.8 1051.7 384.6 1049.9 384.6C1049.17 384.6 1048.47 384.633 1047.8 384.7C1047.73 384.567 1047.67 384.433 1047.6 384.3C1046.7 383.1 1045.2 382.4 1043.6 382.4H1039.8C1039.6 382.4 1039.43 382.4 1039.3 382.4V382.3C1039.57 381.433 1039.7 380.6 1039.7 379.8C1039.7 378.5 1039.2 371.9 1029.9 371.9C1029.17 371.9 1028.5 371.933 1027.9 372C1027.83 371.867 1027.77 371.767 1027.7 371.7C1027.77 371.433 1027.87 371.167 1028 370.9C1028.13 370.633 1028.23 370.3 1028.3 369.9L1028.6 369.1C1028.87 368.233 1029 367.367 1029 366.5C1029 365.2 1028.5 358.7 1019.2 358.7C1017.93 358.7 1016.83 358.8 1015.9 359C1015.77 358.8 1015.67 358.6 1015.6 358.4C1014.6 357.2 1013.1 356.4 1011.5 356.4H1007.7C1007.17 356.4 1006.7 356.5 1006.3 356.7C1005.83 356.567 1005.37 356.467 1004.9 356.4H1001C1000.8 356.4 1000.57 356.433 1000.3 356.5C1000.1 356.5 1000 356.4 999.8 356.4H996C994.1 356.4 992.5 357.4 991.6 358.9C990.733 358.767 989.733 358.7 988.6 358.7C986.2 358.7 984.3 359.1 982.7 359.8C982.8 358.6 982.5 357.3 981.7 356.3C980.8 355.1 979.3 354.4 977.7 354.4H975.6C974.1 354.4 972.7 355.1 971.7 356.2C970.8 355.1 969.3 354.4 967.8 354.4H942C936.7 354.4 932.2 356 928.9 359L931.8 348C932.3 346.1 932.1 344.1 931.1 342.4C930.1 340.7 928.5 339.5 926.6 339L884.5 327.7C883.9 327.567 883.267 327.5 882.6 327.5C879.3 327.5 876.4 329.8 875.5 333L869.8 354.3H844.8C842.6 354.3 840.6 355.8 840 357.9C839.4 359.8 839.9 361.8 841.3 363.1C839.5 363.6 838.1 364.9 837.6 366.8L829.1 398.3C828.7 399.9 829.1 401.5 830 402.8C831 404 832.5 404.7 834.1 404.7H856.4L854.4 412.3C853.8 414.2 854.1 416.2 855.1 417.9C856.1 419.6 857.7 420.8 859.6 421.3L901.6 432.6C902.267 432.733 902.9 432.8 903.5 432.8C906.8 432.8 909.8 430.6 910.6 427.3L917.7 401C918.233 400.6 918.766 400.133 919.3 399.6C919.7 400.2 920.1 400.7 920.5 401.1C922.9 403.5 926.6 404.7 931.2 404.7H957C958.6 404.7 960 404 960.9 402.9C961.9 404.1 963.3 404.7 964.8 404.7H966.9C969.2 404.7 971.1 403.3 971.8 401.1C973.2 402.4 975.5 403.3 979 403.3C980.6 403.3 982 403.1 983.2 402.8C983.867 403.067 984.566 403.2 985.3 403.2H989.1C989.433 403.2 989.767 403.167 990.1 403.1C990.433 403.167 990.767 403.2 991.1 403.2H995C995.667 403.2 996.333 403.067 997 402.8C998.1 403.1 999.4 403.3 1001 403.3C1001.47 403.3 1001.93 403.267 1002.4 403.2C1002.53 403.2 1002.7 403.2 1002.9 403.2H1006.7C1007.03 403.2 1007.37 403.167 1007.7 403.1C1008.03 403.167 1008.37 403.2 1008.7 403.2H1012.6C1012.93 403.2 1013.27 403.167 1013.6 403.1C1013.93 403.167 1014.27 403.2 1014.6 403.2H1018.4C1018.73 403.2 1019.07 403.167 1019.4 403.1C1019.6 403.167 1019.77 403.2 1019.9 403.2C1020.03 403.467 1020.2 403.733 1020.4 404C1021.3 405.3 1022.8 406 1024.4 406H1028.2C1030.2 406 1031.9 404.9 1032.8 403.2C1033.47 403.067 1034.1 402.933 1034.7 402.8C1035.37 403.067 1036.1 403.2 1036.9 403.2H1040.7C1041.6 403.2 1042.4 403 1043.1 402.7C1044.37 403.1 1045.87 403.3 1047.6 403.3C1049.4 403.3 1050.9 403.1 1052.2 402.7C1052.9 403 1053.7 403.2 1054.5 403.2H1058.3C1058.63 403.2 1058.97 403.167 1059.3 403.1C1059.63 403.167 1060 403.2 1060.4 403.2H1064.2C1065 403.2 1065.7 403 1066.4 402.7C1067.67 403.1 1069.17 403.3 1070.9 403.3C1072.7 403.3 1074.3 403.1 1075.6 402.7C1076.27 403.033 1077 403.2 1077.8 403.2H1081.6C1081.93 403.2 1082.27 403.167 1082.6 403.1C1082.93 403.167 1083.27 403.2 1083.6 403.2H1087.4C1087.73 403.2 1088.03 403.2 1088.3 403.2C1088.5 403.2 1088.7 403.2 1088.9 403.2H1089C1089.13 403.467 1089.27 403.733 1089.4 404C1090.4 405.3 1091.9 406 1093.5 406H1097.3C1099.2 406 1101 404.9 1101.8 403.2C1106.3 402.6 1109.4 399.9 1110.6 395.6L1110.7 394.9C1111 394 1111.1 393.2 1111.1 392.4C1111.1 390.3 1110.4 388.4 1109 387Z" fill="black"/>
<path fill-rule="evenodd" clip-rule="evenodd" d="M993.3 366.5C993.3 366.9 993.267 367.3 993.2 367.7L992.9 368.6H986.3L986.2 369.2C986.133 369.467 986.1 369.667 986.1 369.8C986.1 370.267 986.333 370.5 986.8 370.5C987.466 370.5 987.9 370.167 988.1 369.5H992.6C991.6 371.367 989.5 372.3 986.3 372.3C983.166 372.3 981.6 371.367 981.6 369.5C981.6 369.167 981.666 368.8 981.8 368.4L982 367.7C982.733 365.1 984.933 363.8 988.6 363.8C991.733 363.8 993.3 364.7 993.3 366.5ZM988.9 366.3C988.9 365.767 988.667 365.5 988.2 365.5C987.533 365.5 987.066 365.933 986.8 366.8L986.7 367.1H988.8V366.8C988.866 366.6 988.9 366.433 988.9 366.3Z" fill="white"/>
<path d="M996 361.5L993.1 372.2H996.9L999.8 361.5H996Z" fill="white"/>
<path d="M1000.4 363.8L998.2 372.2H1002L1004.3 363.8H1000.4ZM1001 361.5L1000.5 363.3H1004.3L1004.8 361.5H1001Z" fill="white"/>
<path d="M1010.9 363.8L1011.5 361.5H1007.7L1007.1 363.8H1005.2L1004.6 366.1H1006.5L1004.8 372.2H1008.7L1010.3 366.1H1012.2L1012.8 363.8H1010.9Z" fill="white"/>
<path fill-rule="evenodd" clip-rule="evenodd" d="M1023.9 366.5C1023.9 366.9 1023.83 367.3 1023.7 367.7L1023.4 368.6H1016.9L1016.7 369.2C1016.63 369.467 1016.6 369.667 1016.6 369.8C1016.6 370.267 1016.83 370.5 1017.3 370.5C1017.97 370.5 1018.4 370.167 1018.6 369.5H1023.1C1022.1 371.367 1020.03 372.3 1016.9 372.3C1013.77 372.3 1012.2 371.367 1012.2 369.5C1012.2 369.167 1012.23 368.8 1012.3 368.4L1012.5 367.7C1013.23 365.1 1015.47 363.8 1019.2 363.8C1022.33 363.8 1023.9 364.7 1023.9 366.5ZM1019.4 366.3C1019.47 365.767 1019.23 365.5 1018.7 365.5C1018.03 365.5 1017.57 365.933 1017.3 366.8V367.1H1019.3L1019.4 366.8C1019.4 366.6 1019.4 366.433 1019.4 366.3Z" fill="white"/>
<path fill-rule="evenodd" clip-rule="evenodd" d="M989.2 379.6C989.2 380 989.133 380.433 989 380.9L988.8 381.6C988.066 384.267 986.133 385.6 983 385.6C982.333 385.6 981.766 385.467 981.3 385.2L981.2 385.5H977.3L980.2 374.8H984L983.4 377.4C983.933 377.133 984.566 377 985.3 377C987.9 377 989.2 377.867 989.2 379.6ZM984.7 379.5C984.7 379.033 984.467 378.8 984 378.8C983.333 378.8 982.867 379.233 982.6 380.1L982 382.5C981.933 382.7 981.9 382.867 981.9 383C981.9 383.533 982.133 383.8 982.6 383.8C983.267 383.8 983.733 383.367 984 382.5L984.6 380.1C984.667 379.833 984.7 379.633 984.7 379.5Z" fill="white"/>
<path fill-rule="evenodd" clip-rule="evenodd" d="M1000.2 379.6C1000.2 379.933 1000.13 380.3 1000 380.7L998.8 385.5H994.9L995 385.2C994.4 385.467 993.733 385.6 993 385.6C990.267 385.6 988.9 384.967 988.9 383.7C988.9 383.5 988.933 383.3 989 383.1C989.267 382.167 989.866 381.533 990.8 381.2C991.4 380.933 992.333 380.733 993.6 380.6C994.867 380.533 995.8 380.367 996.4 380.1V379.9H996.5C996.5 379.767 996.5 379.633 996.5 379.5C996.5 379.367 996.467 379.267 996.4 379.2C996.267 378.933 996 378.8 995.6 378.8C994.8 378.8 994.3 379.167 994.1 379.9H990.1C991.033 377.967 993.033 377 996.1 377C996.233 377 996.333 377 996.4 377C998.933 377.067 1000.2 377.933 1000.2 379.6ZM995.9 381.9C995.7 381.967 995.367 382.033 994.9 382.1C994.433 382.167 994.1 382.233 993.9 382.3C993.5 382.5 993.267 382.733 993.2 383C993.2 383.067 993.2 383.133 993.2 383.2C993.2 383.6 993.533 383.8 994.2 383.8C995 383.8 995.467 383.533 995.6 383L995.9 381.9Z" fill="white"/>
<path d="M1007.5 377.1L1008.1 374.8H1004.3L1003.6 377.1H1001.8L1001.2 379.4H1003L1001.4 385.5H1005.2L1006.8 379.4H1008.7L1009.3 377.1H1007.5Z" fill="white"/>
<path d="M1016.3 377.1L1016.9 374.8H1013L1012.4 377.1H1010.6L1009.9 379.4H1011.8L1010.2 385.5H1014L1015.6 379.4H1017.5L1018.1 377.1H1016.3Z" fill="white"/>
<path d="M1019.8 374.8L1017 385.5H1020.8L1023.7 374.8H1019.8Z" fill="white"/>
<path fill-rule="evenodd" clip-rule="evenodd" d="M1034.6 379.8C1034.6 380.133 1034.53 380.5 1034.4 380.9L1034.1 381.8H1027.6L1027.4 382.5C1027.33 382.7 1027.3 382.867 1027.3 383C1027.3 383.533 1027.53 383.8 1028 383.8C1028.67 383.8 1029.1 383.433 1029.3 382.7H1033.8C1032.8 384.633 1030.73 385.6 1027.6 385.6C1024.47 385.6 1022.9 384.667 1022.9 382.8C1022.9 382.467 1022.93 382.067 1023 381.6L1023.2 380.9C1023.93 378.3 1026.17 377 1029.9 377C1033.03 377 1034.6 377.933 1034.6 379.8ZM1030.1 379.5C1030.17 379.033 1029.93 378.8 1029.4 378.8C1028.73 378.8 1028.27 379.233 1028 380.1V380.4H1030L1030.1 380.1C1030.1 379.9 1030.1 379.7 1030.1 379.5Z" fill="white"/>
<path d="M986 392.7C986 392.633 986 392.533 986 392.4C986 390.6 984.433 389.7 981.3 389.7C977.566 389.7 975.367 391 974.7 393.6L974.5 394.3C974.367 394.7 974.3 395.067 974.3 395.4C974.3 397.267 975.867 398.2 979 398.2C982.333 398.2 984.467 397.2 985.4 395.2H980.9C980.633 396 980.167 396.4 979.5 396.4C979.033 396.4 978.8 396.167 978.8 395.7C978.8 395.567 978.8 395.4 978.8 395.2L979.5 392.7C979.7 391.9 980.133 391.5 980.8 391.5C981.333 391.5 981.6 391.733 981.6 392.2C981.6 392.333 981.567 392.5 981.5 392.7H986Z" fill="white"/>
<path d="M996.4 391.1C996.133 390.167 995.233 389.7 993.7 389.7C992.7 389.7 991.9 389.8 991.3 390L992 387.4H988.2L985.3 398.1H989.1L990.6 392.7C990.8 391.833 991.233 391.4 991.9 391.4C992.433 391.4 992.7 391.633 992.7 392.1C992.7 392.3 992.667 392.5 992.6 392.7L991.1 398.1H995L996.3 393.1C996.366 392.9 996.4 392.733 996.4 392.6C996.467 392.333 996.5 392.067 996.5 391.8C996.5 391.533 996.467 391.3 996.4 391.1Z" fill="white"/>
<path fill-rule="evenodd" clip-rule="evenodd" d="M1008.1 392.2C1008.1 392.6 1008.07 393 1008 393.4L1006.7 398.1H1002.9V397.8C1002.3 398.067 1001.67 398.2 1001 398.2C998.2 398.2 996.8 397.567 996.8 396.3C996.8 396.167 996.833 396 996.9 395.8C997.167 394.867 997.767 394.2 998.7 393.8C999.3 393.6 1000.23 393.433 1001.5 393.3C1002.77 393.167 1003.7 392.967 1004.3 392.7L1004.4 392.5C1004.4 392.367 1004.4 392.267 1004.4 392.2C1004.47 391.733 1004.17 391.5 1003.5 391.5C1002.7 391.5 1002.2 391.833 1002 392.5H998C999 390.633 1001 389.7 1004 389.7C1006.73 389.7 1008.1 390.533 1008.1 392.2ZM1003.8 394.6C1003.6 394.667 1003.27 394.733 1002.8 394.8C1002.33 394.867 1002 394.933 1001.8 395C1001.47 395.133 1001.23 395.367 1001.1 395.7C1001.1 395.767 1001.1 395.833 1001.1 395.9C1001.1 396.3 1001.43 396.5 1002.1 396.5C1002.9 396.5 1003.37 396.233 1003.5 395.7L1003.8 394.6Z" fill="white"/>
<path d="M1023 389.7C1021.53 389.7 1020.4 390 1019.6 390.6C1019.2 390 1018.4 389.7 1017.2 389.7C1016.13 389.7 1015.3 389.8 1014.7 390L1014.8 389.7H1011L1008.7 398.1H1012.6L1014 392.7C1014.27 391.9 1014.73 391.467 1015.4 391.4C1015.87 391.4 1016.1 391.667 1016.1 392.2C1016.1 392.333 1016.07 392.5 1016 392.7L1014.6 398.1H1018.4L1019.9 392.7C1020.1 391.833 1020.53 391.4 1021.2 391.4C1021.73 391.467 1022 391.733 1022 392.2C1022 392.333 1021.97 392.5 1021.9 392.7L1020.4 398.1H1024.3L1025.6 393.1C1025.73 392.633 1025.8 392.2 1025.8 391.8C1025.8 390.4 1024.87 389.7 1023 389.7Z" fill="white"/>
<path fill-rule="evenodd" clip-rule="evenodd" d="M1037 392.3C1037 392.7 1036.93 393.133 1036.8 393.6L1036.6 394.3C1035.87 396.9 1033.93 398.2 1030.8 398.2C1030.13 398.2 1029.53 398.1 1029 397.9L1028.2 400.9H1024.4L1027.4 389.7H1031.2L1031.1 390C1031.77 389.8 1032.43 389.7 1033.1 389.7C1035.7 389.7 1037 390.567 1037 392.3ZM1032.5 392.2C1032.5 391.733 1032.27 391.5 1031.8 391.5C1031.13 391.5 1030.67 391.9 1030.4 392.7L1029.8 395.2C1029.73 395.4 1029.7 395.567 1029.7 395.7C1029.7 396.167 1029.93 396.4 1030.4 396.4C1031.07 396.4 1031.53 396 1031.8 395.2L1032.4 392.7C1032.47 392.5 1032.5 392.333 1032.5 392.2Z" fill="white"/>
<path d="M1039.1 389.7L1036.9 398.1H1040.7L1043 389.7H1039.1ZM1039.7 387.4L1039.2 389.2H1043L1043.5 387.4H1039.7Z" fill="white"/>
<path fill-rule="evenodd" clip-rule="evenodd" d="M1054.6 392.5C1054.6 392.833 1054.53 393.2 1054.4 393.6L1054.2 394.3C1053.53 396.9 1051.33 398.2 1047.6 398.2C1044.47 398.2 1042.9 397.267 1042.9 395.4C1042.9 395.067 1042.97 394.7 1043.1 394.3L1043.2 393.6C1043.93 391 1046.17 389.7 1049.9 389.7C1053.03 389.7 1054.6 390.633 1054.6 392.5ZM1050.2 392.2C1050.2 391.733 1049.93 391.5 1049.4 391.5C1048.73 391.5 1048.3 391.9 1048.1 392.7L1047.4 395.2C1047.33 395.4 1047.3 395.567 1047.3 395.7C1047.3 396.167 1047.57 396.4 1048.1 396.4C1048.77 396.4 1049.2 396 1049.4 395.2L1050.1 392.7C1050.17 392.5 1050.2 392.333 1050.2 392.2Z" fill="white"/>
<path d="M1063 389.7C1061.93 389.7 1061.1 389.8 1060.5 390L1060.6 389.7H1056.8L1054.5 398.1H1058.3L1059.8 392.7C1060 391.9 1060.43 391.467 1061.1 391.4C1061.63 391.4 1061.9 391.667 1061.9 392.2C1061.9 392.333 1061.87 392.5 1061.8 392.7L1060.4 398.1H1064.2L1065.5 393.1C1065.63 392.633 1065.7 392.2 1065.7 391.8C1065.7 390.4 1064.8 389.7 1063 389.7Z" fill="white"/>
<path d="M1075.8 393.6C1075.47 393.4 1074.53 393.167 1073 392.9C1072 392.767 1071.5 392.533 1071.5 392.2C1071.5 391.733 1071.93 391.5 1072.8 391.5C1073.33 391.5 1073.6 391.667 1073.6 392C1073.6 392.133 1073.6 392.233 1073.6 392.3H1077.9C1077.97 390.567 1076.4 389.7 1073.2 389.7C1069.67 389.7 1067.63 390.567 1067.1 392.3C1067.1 392.5 1067.1 392.667 1067.1 392.8C1067.1 393.467 1067.47 393.967 1068.2 394.3C1068.6 394.5 1069.57 394.733 1071.1 395C1072.03 395.133 1072.5 395.367 1072.5 395.7C1072.5 396.167 1072.07 396.4 1071.2 396.4C1070.6 396.4 1070.3 396.2 1070.3 395.8C1070.3 395.733 1070.3 395.633 1070.3 395.5H1066.1C1065.97 397.3 1067.57 398.2 1070.9 398.2C1074.43 398.2 1076.43 397.333 1076.9 395.6C1076.97 395.4 1077 395.233 1077 395.1C1077 394.433 1076.6 393.933 1075.8 393.6Z" fill="white"/>
<path d="M1086.2 389.7C1085.2 389.7 1084.4 389.8 1083.8 390L1084.5 387.4H1080.6L1077.8 398.1H1081.6L1083 392.7C1083.27 391.833 1083.73 391.4 1084.4 391.4C1084.93 391.4 1085.2 391.633 1085.2 392.1C1085.2 392.3 1085.17 392.5 1085.1 392.7L1083.6 398.1H1087.4L1088.8 393.1C1088.93 392.633 1089 392.2 1089 391.8C1089 390.4 1088.07 389.7 1086.2 389.7Z" fill="white"/>
<path d="M1091.2 389.7L1088.9 398.1H1092.7L1095 389.7H1091.2ZM1091.8 387.4L1091.3 389.2H1095.1L1095.2 389L1095.6 387.4H1091.8Z" fill="white"/>
<path fill-rule="evenodd" clip-rule="evenodd" d="M1106 392.3C1106 392.7 1105.93 393.133 1105.8 393.6L1105.6 394.3C1105.4 395.233 1105 396 1104.4 396.6C1103.4 397.667 1101.87 398.2 1099.8 398.2C1099.13 398.2 1098.57 398.1 1098.1 397.9L1097.3 400.9H1093.5L1096.4 390V389.7H1100.3L1100.2 390C1100.8 389.8 1101.43 389.7 1102.1 389.7C1104.7 389.7 1106 390.567 1106 392.3ZM1101.2 393.9L1101.5 392.7C1101.57 392.5 1101.6 392.333 1101.6 392.2C1101.6 391.733 1101.33 391.5 1100.8 391.5C1100.2 391.5 1099.77 391.833 1099.5 392.5C1099.5 392.567 1099.5 392.633 1099.5 392.7L1098.8 395.2C1098.73 395.4 1098.7 395.567 1098.7 395.7C1098.7 396.167 1098.97 396.4 1099.5 396.4C1100.17 396.4 1100.6 396 1100.8 395.2L1101.2 393.9Z" fill="white"/>
<path fill-rule="evenodd" clip-rule="evenodd" d="M877.5 375.2L875.2 383.9H855.5L853.6 391H865.3L863 399.7H834.1L839.8 378.1L842.5 368.1H857.1L844.8 359.4H873.8L873.5 360.6L871.5 368.1H859.7L857.8 375.2H877.5ZM873.4 391L871 399.7H866.7L869 391H873.4ZM881.9 359.4L879.6 368.1H875.2L877.5 359.4H881.9Z" fill="white"/>
<path fill-rule="evenodd" clip-rule="evenodd" d="M925.4 365.8C925.4 366.733 925.233 367.767 924.9 368.9C924.433 370.633 923.833 372.133 923.1 373.4C921.967 375.333 920.5 376.7 918.7 377.5C917.5 378.033 916.167 378.333 914.7 378.4L909.2 399.3C908 399.567 906.733 399.7 905.4 399.7H874.2L882.7 368.1H897.3L885 359.4H916.2C917.533 359.4 918.7 359.5 919.7 359.7C921.1 359.967 922.233 360.4 923.1 361C924.633 362.067 925.4 363.667 925.4 365.8ZM903.4 384.4C903.4 382.267 901.866 381.2 898.8 381.2H896.3L893.7 391H896.2C899.933 391 902.233 389.367 903.1 386.1C903.233 385.5 903.333 384.933 903.4 384.4ZM907.1 370.8C907.1 369 905.5 368.1 902.3 368.1H899.9L897.8 375.7H900.3C904.033 375.7 906.233 374.433 906.9 371.9C907.033 371.5 907.1 371.133 907.1 370.8ZM920.2 384.3C920.2 385.633 919.967 387.2 919.5 389C918.433 393.2 916.333 396.167 913.2 397.9L918.2 379.4C919.533 380.4 920.2 382.033 920.2 384.3Z" fill="white"/>
<path d="M944.2 373.7C945.2 369.967 947.566 368.1 951.3 368.1H965.5L967.8 359.4H942C934.533 359.4 929.8 363.167 927.8 370.7L923.1 388.3L923 388.4C922.6 390 922.4 391.4 922.4 392.6C922.4 393.867 922.633 394.967 923.1 395.9C924.233 398.367 926.933 399.6 931.2 399.6H957L959.3 391H945.1C942.167 391 940.7 389.867 940.7 387.6C940.7 386.933 940.8 386.2 941 385.4L944.2 373.7Z" fill="white"/>
<path fill-rule="evenodd" clip-rule="evenodd" d="M913.2 397.9L911.5 404.5L909.5 411.7L905.7 426C905.4 427.2 904.1 427.9 902.9 427.6L884 422.6L875.4 420.3L860.9 416.4C859.7 416.1 859 414.8 859.3 413.6L863 399.7H866.7L864.5 407.9L887.3 414L896.7 416.5L904 418.4L905.5 413.1L907.4 405.8L909.2 399.3C910.667 399.033 912 398.567 913.2 397.9ZM886.1 418.4C886.4 417.2 885.9 415.9 884.9 415.1C884.633 414.9 884.3 414.733 883.9 414.6C882.2 414.2 880.5 415.2 880.1 416.8C880.033 417.133 880 417.433 880 417.7C880 419.1 880.9 420.3 882.3 420.6C883.9 421.1 885.6 420.1 886.1 418.4ZM926.9 346.7L923.1 361V361.1L918.7 377.5L918.2 379.4C917.333 378.867 916.167 378.533 914.7 378.4L919.7 359.7L922.6 348.9L916 347.1L883.1 338.3L877.6 358.9L877.5 359.4H873.8L879.1 339.3L880.5 334.3C880.8 333.1 882 332.3 883.2 332.7L892.3 335.1L925.3 343.9C926.5 344.2 927.2 345.4 926.9 346.7ZM910.5 341.8L897.1 338.2C896.5 338 896 338.4 895.9 338.9C895.7 339.4 896 339.9 896.6 340.1L910 343.7C910.133 343.7 910.233 343.7 910.3 343.7C910.7 343.7 911.1 343.4 911.2 343C911.4 342.4 911 341.9 910.5 341.8ZM875.2 368.1L873.3 375.2L871 383.9H867.2L869.5 375.2L871.5 368.1H875.2ZM865.3 391H869L871 383.9H867.2L865.3 391Z" fill="#E00016"/>
<path d="M869 391L866.7 399.7H863L865.3 391H869Z" fill="white"/>
<path d="M877.5 359.4L875.2 368.1H871.5L873.8 359.4H877.5Z" fill="white"/>
<path d="M918.2 379.5L913.2 397.9C912 398.567 910.667 399.033 909.2 399.3L914.7 378.4C916.167 378.533 917.333 378.9 918.2 379.5Z" fill="white"/>
<path d="M977.7 359.4L966.9 399.7H964.8L975.6 359.4H977.7Z" fill="white"/>
<path d="M816.1 707.4C814.4 698.7 812.9 691 811.3 683.2C803.3 681.6 795.6 680.2 787.2 678.6C788.8 687 790.3 694.7 791.9 702.7C799.7 704.3 807.4 705.7 816.1 707.4Z" fill="black"/>
<path d="M1133.1 678.6C1124.4 680.3 1116.7 681.8 1108.9 683.3C1107.4 691.3 1105.9 699.1 1104.3 707.3C1113 705.8 1120.8 704.6 1128.6 702.5C1130.1 694.6 1131.5 687 1133.1 678.6Z" fill="black"/>
<path fill-rule="evenodd" clip-rule="evenodd" d="M906.6 579.2C898.4 579.7 894.4 580.1 886.3 580.9C885.4 578.1 884.7 576 884 574C883.733 573.133 883.433 572.267 883.1 571.4C882.6 570 882.1 568.4 881.5 566.6C871.7 567.4 866.8 567.9 856.9 569C855.7 573.2 854.8 576 853.8 579.3C853.8 579.367 853.8 579.433 853.8 579.5C853.533 580.367 853.233 581.333 852.9 582.4C852.7 583.2 852.467 584.067 852.2 585C846.9 585.8 843.4 586.3 839.3 587C837.1 587.3 834.8 587.7 832 588.2C832.2 587.733 832.367 587.267 832.5 586.8V586.7C834.367 580.7 836.233 574.7 838.1 568.7C838.167 568.5 838.233 568.3 838.3 568.1C839.766 563.633 841.2 559.2 842.6 554.8C842.733 554.467 842.833 554.133 842.9 553.8C843.167 553.067 843.4 552.333 843.6 551.6C848.6 536.133 853.733 520.733 859 505.4C860.3 505.4 861.3 505.4 862.3 505.4C864.6 505.4 866.4 505.4 869.3 505.4C869.366 505.4 869.4 505.4 869.4 505.4C873.5 505.4 875.5 505.3 879.7 505.3C883.433 515.967 887.233 526.6 891.1 537.2C891.433 538.067 891.767 538.933 892.1 539.8C895.433 549.133 898.833 558.467 902.3 567.8C902.633 568.6 902.966 569.433 903.3 570.3C904.366 573.233 905.467 576.2 906.6 579.2ZM877.1 553.3C876 549.8 875 547 874.1 544.3C873.833 543.433 873.566 542.6 873.3 541.8C872.2 538.2 871 534.7 869.4 529.9C869.3 529.9 869.2 529.9 869.1 529.9C867.2 535.8 865.9 539.9 864.5 544.5C864.167 545.5 863.867 546.5 863.6 547.5C862.9 549.6 862.2 551.9 861.4 554.5C867.7 554 870.8 553.7 877.1 553.3Z" fill="white"/>
<path d="M980.2 553.2C980.2 557.733 979.2 560.933 977.2 562.8C977.133 562.867 977.067 562.933 977 563C976.533 563.4 976 563.767 975.4 564.1C973.533 565.1 970.967 565.567 967.7 565.5C967.633 565.5 967.567 565.5 967.5 565.5C966.167 565.5 964.9 565.367 963.7 565.1C960.833 564.433 958.533 563.033 956.8 560.9C954.2 557.9 952.9 553.867 952.9 548.8C952.9 542.8 952.9 539.7 952.9 533.7C952.9 528.7 954.067 524.667 956.4 521.6C958.733 518.6 962.067 517.1 966.4 517.1C966.867 517.1 967.3 517.1 967.7 517.1C970.833 517.233 973.333 517.8 975.2 518.8C975.867 519.133 976.467 519.533 977 520C977.2 520.2 977.433 520.433 977.7 520.7C979.033 522.233 979.833 524.4 980.1 527.2C980.167 527.333 980.2 527.433 980.2 527.5V527.6C980.2 528.133 980.233 528.667 980.3 529.2V529.6C981.7 529.6 983 529.6 984.2 529.6C989.3 529.7 992.9 529.7 999 529.8C999 529.7 999.1 529.6 999.1 529.5C999.167 528.9 999.167 528.3 999.1 527.7C999.1 527.033 999.067 526.333 999 525.6C998.667 522.8 997.933 520.233 996.8 517.9C996.266 516.833 995.633 515.833 994.9 514.9C993.767 513.3 992.367 511.9 990.7 510.7C987.433 508.233 983.4 506.467 978.6 505.4C976.667 505 974.633 504.7 972.5 504.5C970.567 504.3 968.533 504.2 966.4 504.2C964.267 504.2 962.233 504.333 960.3 504.6C953.233 505.533 947.367 508.167 942.7 512.5C937.433 517.3 934.466 523.467 933.8 531C933.733 531.933 933.7 532.867 933.7 533.8V534C933.7 540 933.7 543 933.7 549.1C933.7 554.767 934.967 559.7 937.5 563.9C938.033 564.767 938.633 565.633 939.3 566.5C940.366 567.833 941.6 569.1 943 570.3C945.6 572.567 948.533 574.333 951.8 575.6C953.2 576.133 954.633 576.6 956.1 577C959.633 577.867 963.5 578.333 967.7 578.4C971.7 578.4 975.333 578.133 978.6 577.6C980.4 577.267 982.067 576.833 983.6 576.3H983.7C986.5 575.433 988.933 574.2 991 572.6C992 571.867 992.9 571.067 993.7 570.2C994.3 569.533 994.867 568.833 995.4 568.1C997.933 564.433 999.133 559.733 999 554C999 553.9 998.9 553.8 998.9 553.7C991.4 553.4 987.7 553.3 980.2 553.2Z" fill="white"/>
<path d="M1082.6 505.4C1081.27 505.4 1079.93 505.4 1078.6 505.4C1067.47 505.4 1056.3 505.4 1045.1 505.4C1041.03 505.333 1036.93 505.3 1032.8 505.3C1032.87 510.967 1032.9 516.633 1032.9 522.3C1032.9 524.3 1032.9 526.3 1032.9 528.3V528.4C1032.9 531.067 1032.9 533.767 1032.9 536.5V536.6C1032.9 548.133 1032.93 559.7 1033 571.3V574C1033 576.333 1033 578.633 1033 580.9C1046.9 582.4 1060.6 584.1 1074.3 586.2C1078.57 586.8 1082.8 587.467 1087 588.2V573.4C1075.4 571.733 1063.8 570.333 1052.2 569.2C1052.2 561.4 1052.2 557.5 1052.1 549.8C1057.23 550.133 1062.37 550.533 1067.5 551C1070.43 551.267 1073.37 551.533 1076.3 551.8C1077.97 551.933 1079.6 552.067 1081.2 552.2C1081.2 546.4 1081.2 543.5 1081.2 537.6C1071.53 536.933 1061.83 536.367 1052.1 535.9C1052.1 529.2 1052.1 525.9 1052.1 519.2C1062.9 519.467 1073.73 519.767 1084.6 520.1C1085.4 520.167 1086.23 520.2 1087.1 520.2V505.4C1085.57 505.4 1084.07 505.4 1082.6 505.4Z" fill="white"/>
<path d="M890.1 540.3C889.767 539.433 889.433 538.533 889.1 537.6C885.367 527.333 881.766 517.233 878.3 507.3L870.2 507.4L867.3 509.9V507.4H861.2H860.5C859.9 509.067 859.3 510.733 858.7 512.4C858.7 512.467 858.7 512.5 858.7 512.5C854.8 524 851 535.5 847.2 547.1C846.8 548.3 846.4 549.5 846 550.7C845.667 551.767 845.333 552.833 845 553.9C844.467 555.5 843.967 557.1 843.5 558.7C843.3 559.233 843.133 559.733 843 560.2C843.2 560.2 843.4 560.167 843.6 560.1C844.067 559.967 844.533 559.867 845 559.8C850.067 558.667 855.067 557.6 860 556.6L858.6 556.7L859.5 553.9C860.1 551.8 860.7 550 861.2 548.3C861.533 547.233 861.867 546.2 862.2 545.2C863.7 540.2 865.1 535.9 867.2 529.3L867.6 527.9H869L870.9 527.8L871.3 529.2C872.9 534 874.1 537.6 875.3 541.2C875.566 542.067 875.833 542.933 876.1 543.8C876.9 546.4 877.9 549.2 879 552.7L879.2 553.2C884.2 552.4 889.133 551.667 894 551C892.667 547.4 891.367 543.833 890.1 540.3Z" fill="url(#paint8_linear_0_1)"/>
<path d="M997.1 527.8C991.4 527.7 987.9 527.6 982.2 527.6C981.9 523.6 980.6 520.5 978.3 518.5C975.8 516.2 971.9 515.1 966.4 515.1C961.4 515.1 957.5 516.9 954.8 520.4C952.2 523.8 950.9 528.2 950.9 533.7V545.8C945.9 546.067 940.833 546.367 935.7 546.7V534C935.7 525.7 938.5 519 944 513.9C949.6 508.8 957.1 506.2 966.4 506.2C976.4 506.2 984.2 508.3 989.5 512.3C994.4 515.9 996.9 521 997.1 527.8Z" fill="url(#paint9_linear_0_1)"/>
<path d="M1052.1 517.2H1050.1V537.8L1052 537.9C1061 538.4 1070.2 538.9 1079.2 539.5V550C1070.3 549.2 1061.2 548.4 1052.3 547.8L1050.1 547.6V548.9C1045.37 548.367 1040.3 547.867 1034.9 547.4L1034.8 507.3C1051.6 507.367 1068.33 507.4 1085 507.4V518.2C1074.1 517.8 1063 517.5 1052.1 517.2Z" fill="url(#paint10_linear_0_1)"/>
<defs>
<linearGradient id="paint0_linear_0_1" x1="1548.4" y1="484.4" x2="1532.6" y2="743.2" gradientUnits="userSpaceOnUse">
<stop stop-color="#C79317"/>
<stop offset="0.5" stop-color="#EEE64A"/>
<stop offset="1" stop-color="#C79416"/>
</linearGradient>
<radialGradient id="paint1_radial_0_1" cx="0" cy="0" r="1" gradientUnits="userSpaceOnUse" gradientTransform="translate(1003.7 480.8) scale(48.8)">
<stop stop-color="white"/>
<stop offset="1" stop-color="#F9CDCD" stop-opacity="0"/>
</radialGradient>
<linearGradient id="paint2_linear_0_1" x1="782.2" y1="532.9" x2="921" y2="325.1" gradientUnits="userSpaceOnUse">
<stop stop-color="white"/>
<stop offset="1" stop-color="#F9CDCD" stop-opacity="0"/>
</linearGradient>
<linearGradient id="paint3_linear_0_1" x1="1005.1" y1="621.8" x2="996.6" y2="807.6" gradientUnits="userSpaceOnUse">
<stop stop-color="#C79317"/>
<stop offset="0.5" stop-color="#EEE64A"/>
<stop offset="1" stop-color="#C79416"/>
</linearGradient>
<linearGradient id="paint4_linear_0_1" x1="927.6" y1="470.3" x2="947.5" y2="20.1" gradientUnits="userSpaceOnUse">
<stop stop-color="#C79317"/>
<stop offset="0.5" stop-color="#EEE64A"/>
<stop offset="1" stop-color="#C79416"/>
</linearGradient>
<linearGradient id="paint5_linear_0_1" x1="1002" y1="623" x2="993.6" y2="807.2" gradientUnits="userSpaceOnUse">
<stop stop-color="#C79317"/>
<stop offset="0.5" stop-color="#EEE64A"/>
<stop offset="1" stop-color="#C79416"/>
</linearGradient>
<linearGradient id="paint6_linear_0_1" x1="923.9" y1="470.3" x2="943.8" y2="20.2" gradientUnits="userSpaceOnUse">
<stop stop-color="#C79317"/>
<stop offset="0.5" stop-color="#EEE64A"/>
<stop offset="1" stop-color="#C79416"/>
</linearGradient>
<linearGradient id="paint7_linear_0_1" x1="1021.3" y1="447.9" x2="1004.9" y2="715.3" gradientUnits="userSpaceOnUse">
<stop stop-color="#C79317"/>
<stop offset="0.5" stop-color="#EEE64A"/>
<stop offset="1" stop-color="#C79416"/>
</linearGradient>
<linearGradient id="paint8_linear_0_1" x1="841.1" y1="558.1" x2="840.5" y2="511.8" gradientUnits="userSpaceOnUse">
<stop stop-color="#B6B3BA"/>
<stop offset="1" stop-color="white"/>
</linearGradient>
<linearGradient id="paint9_linear_0_1" x1="953.2" y1="557.2" x2="952.7" y2="510.4" gradientUnits="userSpaceOnUse">
<stop stop-color="#B6B3BA"/>
<stop offset="1" stop-color="white"/>
</linearGradient>
<linearGradient id="paint10_linear_0_1" x1="1041.9" y1="555.3" x2="1041.3" y2="509.6" gradientUnits="userSpaceOnUse">
<stop stop-color="#B6B3BA"/>
<stop offset="1" stop-color="white"/>
</linearGradient>
</defs>
</svg>
