<svg width="1921" height="1080" viewBox="0 0 1921 1080" fill="none" xmlns="http://www.w3.org/2000/svg">
<path d="M0.399902 1080H1920.4V0H0.399902V1080Z" fill="none"/>
<path d="M1225.3 464.2V634.3C1225.3 640.5 1221 645.8 1215 647.1L1163.9 657.5L1163.6 657.6C1147 695.6 1120.5 730.3 1087.1 757.2C1077.2 765.2 1066.9 772.4 1056.1 778.8C1055.37 779.267 1054.6 779.733 1053.8 780.2C1052.67 780.867 1051.53 781.5 1050.4 782.1C1015.4 801.8 976.5 813.1 935.7 815.3C934.367 815.367 933.034 815.433 931.7 815.5C931.567 815.5 931.4 815.5 931.2 815.5H930.3C929.833 815.567 929.4 815.6 929 815.6C928.733 815.6 928.5 815.6 928.3 815.6C928.233 815.6 928.167 815.6 928.1 815.6C927.033 815.6 926 815.633 925 815.7C923.733 815.7 922.467 815.7 921.2 815.7H920.9C919.833 815.7 918.767 815.7 917.7 815.7C916.567 815.633 915.4 815.6 914.2 815.6C855.2 814.2 800.2 794.2 754.6 757.4C720.9 730.3 694.3 695.5 677.7 657.4L627.4 647C621.3 645.8 617 640.5 617 634.3V463.6C617 460.1 618.4 456.8 620.9 454.3C623.3 452 626.6 450.6 630 450.6H630.2C635.5 450.7 640.8 451 645.8 451.3C648.8 451.5 662.7 451.7 674.2 451.8C674.4 451.8 674.6 451.8 674.8 451.8C713.9 354.1 809.5 285.1 921.2 285.1C973.2 285.1 1021.7 300 1062.7 325.9C1062.7 325.967 1062.7 326 1062.7 326C1113.2 358.2 1149.1 405.2 1166.7 451.2H1212.3C1219.5 451.2 1225.3 457 1225.3 464.2Z" fill="black"/>
<path d="M1203.1 632.3C1188.7 636.567 1174.33 640.833 1160 645.1C1177.4 641.5 1194.8 637.9 1212.3 634.3V464.2C1202.2 464.2 1192.4 464.2 1182.7 464.2C1182.7 464.467 1182.7 464.767 1182.7 465.1C1189.4 465.1 1196.1 465.1 1203.1 465.1V632.3Z" fill="url(#paint0_linear_0_1)"/>
<path d="M1056.4 550.4C1057 619.1 1000.7 685.8 920.3 686.3C844.6 686.7 782.6 625.9 782.9 549.4C783.2 470.4 846.8 413.5 918.2 412.8C994.2 412 1056.9 473.5 1056.4 550.4Z" fill="#FFB902"/>
<path d="M832.2 563.3C844.8 560 857.5 557.4 870.4 555.5C879 554.3 887.7 553.5 896.3 552.9C899.7 552.6 903 552.6 906.4 552.4C907.4 552.3 907.8 552.8 908.1 553.6C914 566.3 923.5 575.2 936.9 579.3C953 584.4 967.8 581.3 981 570.8C984.6 568 987.6 564.7 990.1 560.9C990.7 559.9 991.3 559.7 992.4 559.9C1009 563.4 1025 568.4 1040.8 574.4C1043.2 575.3 1045.6 576.4 1048.1 577.2C1049.4 577.6 1049.5 578.3 1049.2 579.3C1047.8 584.8 1046.3 590.2 1044.3 595.5C1041.5 602.8 1038.3 609.9 1034.2 616.6C1033.8 617.2 1033.3 617.8 1032.8 618.4C1031.4 620.4 1029.3 621.8 1027.5 623.4C1022.37 628 1016.9 632.133 1011.1 635.8C1000.7 642.4 989.5 647.2 977.6 650.3C970.4 652.3 963.1 653.533 955.7 654C935.7 655.3 916.5 651.9 898.2 643.7C889.6 639.9 881.5 635.1 874.1 629.3C866.6 623.5 859.8 616.9 853.9 609.4C843.5 596.2 836.1 581.5 831.8 565.3C831.6 564.6 831.3 563.8 832.2 563.3Z" fill="#FEFEFE"/>
<path d="M832.2 563.3C831.8 563.8 832 564.3 832.1 564.9C835 576.1 839.4 586.6 845.4 596.5C852.8 608.6 861.9 619 873 627.8C887.9 639.7 904.7 647.5 923.3 651.4C929.3 652.7 935.4 653.3 941.6 653.7C957.4 654.4 972.8 652.1 987.6 646.8C996.7 643.6 1005.2 639.2 1013.3 633.9C1019.6 629.7 1025.3 624.8 1031 619.8C1031.6 619.3 1032.2 618.8 1032.8 618.4C1031.7 621.2 1029.8 623.5 1028.2 625.9C1022.8 633.6 1016.6 640.5 1009.7 646.8C1002 654 993.4 660.1 984.2 665.3C973.4 671.3 962.034 675.667 950.1 678.4C942.967 680.067 935.767 681.133 928.5 681.6C925.3 681.8 922.2 681.9 919.1 682C914.8 682.1 910.4 681.7 906.1 681.3C894.167 680.1 882.634 677.333 871.5 673C857.1 667.4 844.1 659.7 832.5 649.6C810.7 630.6 796.5 607.1 789.7 579C789.3 577.5 789.8 577 791.1 576.5C803.9 571.7 816.9 567.4 830.2 563.8C830.867 563.667 831.534 563.5 832.2 563.3Z" fill="#A09D9D"/>
<path d="M796.5 543.6C802.9 541.2 809.3 538.9 815.8 536.6C823.1 534.1 830.5 531.7 838 529.7C847.4 527.3 856.8 525 866.3 523.4C873.7 522.2 881.1 521.1 888.6 520.5C893.3 520.1 898 519.7 902.7 519.5C904.6 519.5 906.5 519.3 908.4 519.3C909.3 519.3 909.6 518.9 909.9 518.2C913.5 508.9 919.7 501.7 928.1 496.6C933.567 493.2 939.5 491.133 945.9 490.4C957.9 489.1 968.7 492.1 978.2 499.4C986.7 505.9 992.1 514.4 994.4 524.9C994.8 526.3 995.4 526.9 996.8 527.1C1010.8 529.9 1024 535 1036.9 540.8C1042 543.1 1047.1 545.2 1052.2 547.3C1053.1 547.7 1053.6 548.3 1053.6 549.2C1053.9 557.7 1053.6 566.1 1051.6 574.4C1051.3 575.7 1050.6 575.4 1049.8 575.1C1041.2 571.633 1032.5 568.467 1023.7 565.6C1012.9 562.1 1001.9 559.2 990.8 556.9C989.7 556.6 989.3 557.2 988.9 557.9C985.3 563.6 980.7 568.4 975 572C968.8 575.9 962.1 578.2 954.8 578.8C944.3 579.6 934.7 577 926 571.2C918.5 566.1 913.3 559.3 909.8 550.9C909.4 549.8 908.7 549.5 907.7 549.6C902.3 549.9 896.9 550.1 891.5 550.6C884.4 551.2 877.3 551.9 870.2 552.9C860.5 554.3 851 556.1 841.4 558.2C837.8 559 834.4 560.3 830.8 561.1C826.4 562.2 822 563.6 817.6 564.8C816.8 565.1 816.1 565.6 815.3 565.5C813.6 566.1 812.2 565.4 810.7 564.8C802.2 561.1 797.3 554.6 795.9 545.4C795.8 544.7 795.7 544 796.5 543.6Z" fill="#58585A"/>
<path d="M1052.6 542.6C1052.3 537 1051.7 531.5 1050.7 526C1045.1 496 1031.1 470.6 1008.3 450.4C978.2 423.8 942.8 413 902.9 417.5C884.9 419.6 868 425.5 852.3 434.7C847.1 437.8 842 441.1 837.4 445.1C834 447.7 830.5 450.3 827.5 453.4C826.166 454.8 824.833 456.233 823.5 457.7C822.4 458.8 821.3 459.9 820.3 461.1C800.4 483.6 789.3 509.8 787 539.8C786.8 541.3 786.6 542.8 786.8 544.5C787.8 544.2 788.6 543.9 789.4 543.6C804.9 537.6 820.5 531.9 836.4 527.4C859 521 882 517.3 905.5 516.7C906.9 516.6 907.6 516.2 908.2 515C916.8 496.5 934.6 486.1 954.9 487.5C974.6 488.8 991.9 503.3 996.7 522.5C997.1 523.9 997.7 524.5 999.1 524.8C1007.2 526.4 1015 528.9 1022.6 531.8C1032.2 535.5 1041.4 539.9 1050.9 543.8C1052.7 544.5 1052.7 544.5 1052.6 542.6Z" fill="#FF0000"/>
<path d="M796.5 543.6C795.9 545.2 796.5 546.8 796.9 548.2C799.3 557.1 805 562.8 813.8 565.4C814.3 565.5 814.8 565.5 815.3 565.5C810.9 567 806.5 568.4 802.1 569.9C797.9 571.4 793.6 572.8 789.5 574.5C788.6 575 788.3 574.5 788.1 573.7C787.4 571 787.1 568.2 786.6 565.5C785.7 560.1 786.1 554.7 786 549.3C786 548.1 786.4 547.5 787.6 547C790.5 546 793.4 544.5 796.5 543.6Z" fill="#363638"/>
<path d="M952.5 500.9C970.3 500.7 985.2 515.6 985 533.9C984.7 551.8 970.4 566.4 952 566.3C933.7 566.2 919.5 551.2 919.6 533.4C919.6 515.5 934.3 500.6 952.5 500.9Z" fill="black"/>
<path d="M922.3 533.2C922.6 516.7 936.2 503.4 952.6 503.6C969.5 503.9 982.4 517.5 982.1 534.7C981.9 550.8 968 563.7 951.3 563.4C935.3 563.2 922.1 549.3 922.3 533.2Z" fill="#FEFEFE"/>
<path d="M952.4 510.5C965.2 510.6 975.4 521 975.3 533.8C975.1 546.5 964.8 556.7 952.1 556.6C939.3 556.5 929.1 546.1 929.3 533.2C929.4 520.6 939.8 510.4 952.4 510.5Z" fill="black"/>
<path d="M973.5 534C972.9 546.4 963.1 555.3 950.9 554.7C939.7 554.1 930.5 543.9 931.1 532.8C931.7 520.9 941.6 511.7 953.1 512.4C964.7 513 974 522.9 973.5 534Z" fill="#FEFEFE"/>
<path d="M1009.6 474C1009.6 499.3 989.1 519.8 963.8 519.8C938.6 519.8 918.1 499.3 918.1 474C918.1 448.8 938.6 428.3 963.8 428.3C989.1 428.3 1009.6 448.8 1009.6 474Z" fill="url(#paint1_radial_0_1)"/>
<path d="M937.4 423.5C867.9 422.9 813.1 474.6 805.2 552.3L799.8 500.9C799.8 500.9 829.6 413.7 937.4 423.5Z" fill="url(#paint2_linear_0_1)"/>
<path d="M653.8 613.2C832 568 1009.9 568 1187.8 613.3V479.1C1009.6 474.4 831.8 474.4 654 479.1C653.1 484.1 653 608.7 653.8 613.2Z" fill="#AF0CEC"/>
<path d="M1147.8 622.1C1122.8 706.9 1040.7 784.3 930.9 788.6C807.9 793.4 719 709.3 693.2 621L768.6 604.5C799.3 672.4 849.8 711.9 925.6 709.9C996.8 708 1047.4 666.1 1072.4 605.1L1147.8 622.1Z" fill="url(#paint3_linear_0_1)"/>
<path d="M891.5 313.7C838.5 319.9 792.6 342.4 754.3 379.6C730.1 403 711.7 430.5 699 462.6H717.2C750.9 391 806.1 347.4 884.1 331.8V387.5C839.4 398.5 804.8 422.8 779.7 461.3H787.2C820.3 415.6 864.2 390.4 920.9 390.5C977.6 390.5 1021.4 415.8 1054.2 461.3H1061.8C1036.6 422.8 1001.9 398.3 957.4 387.5V331.8C1035.7 347.6 1090.9 391.4 1124.3 462.7H1142.2C1112.2 382.1 1019.7 298.7 891.5 313.7Z" fill="url(#paint4_linear_0_1)"/>
<path d="M1161.5 625.2C1134.7 717.1 1045.8 799.3 928.6 802.6C798.8 806.2 705.8 716.4 679.5 624L685.6 622.6C704.3 680.6 739 726.3 790.5 758.8C832.3 785.2 878.4 798.7 927.7 795.8C1041.6 789.2 1115.7 729 1156.4 624.1L1161.5 625.2Z" fill="url(#paint5_linear_0_1)"/>
<path d="M898.5 299C839.4 303.9 788.4 327.7 745.5 368.6C718 394.9 697.7 426.1 684.1 462.3H690.2C733.7 365.8 806.3 311.5 912.6 304.6C1026.5 305.1 1104.4 360 1151.6 462.5H1157C1127 375.1 1030.4 287.9 898.5 299Z" fill="url(#paint6_linear_0_1)"/>
<path d="M639.5 632.3V465C646.4 465 653.2 465 659.9 465C650 464.8 640.1 463.8 630 463.6V634.3C647.7 637.9 665.1 641.5 682.6 645.1C668.2 640.8 654 636.6 639.5 632.3Z" fill="url(#paint7_linear_0_1)"/>
<path d="M1070 373.2C1068.4 371.6 1066.1 370.8 1063.1 370.8C1062.63 370.8 1062.17 370.833 1061.7 370.9C1061.57 370.9 1061.43 370.9 1061.3 370.9H1060.8C1060.73 370.767 1060.67 370.633 1060.6 370.5C1059.7 369.3 1058.2 368.6 1056.6 368.6H1052.8C1051.3 368.6 1050 369.1 1049.1 370.1C1048.1 369.1 1046.8 368.6 1045.5 368.6H1041.6C1039.8 368.6 1038.2 369.5 1037.3 371.1C1036.3 370.9 1035.3 370.8 1034.2 370.8C1031.7 370.8 1029.7 371.2 1028.2 371.8C1027 371.2 1025.7 370.8 1024 370.8C1023.33 370.8 1022.7 370.833 1022.1 370.9C1021.97 370.9 1021.8 370.9 1021.6 370.9H1017.8C1016.9 370.9 1016.1 371.1 1015.4 371.4C1014.2 371 1012.7 370.8 1010.9 370.8C1010.17 370.8 1009.47 370.833 1008.8 370.9C1008.73 370.767 1008.67 370.633 1008.6 370.5C1007.7 369.3 1006.2 368.6 1004.6 368.6H1000.8C1000.6 368.6 1000.43 368.6 1000.3 368.6V368.5C1000.57 367.633 1000.7 366.8 1000.7 366C1000.7 364.7 1000.2 358.1 990.9 358.1C990.166 358.1 989.5 358.133 988.9 358.2C988.833 358.067 988.767 357.967 988.7 357.9C988.833 357.633 988.933 357.367 989 357.1C989.133 356.833 989.266 356.5 989.4 356.1L989.6 355.3C989.867 354.433 990 353.567 990 352.7C990 351.4 989.5 344.9 980.2 344.9C979 344.9 977.9 345 976.9 345.2C976.833 345 976.733 344.8 976.6 344.6C975.6 343.4 974.1 342.6 972.5 342.6H968.7C968.233 342.6 967.766 342.7 967.3 342.9C966.833 342.767 966.366 342.667 965.9 342.6H962.1C961.833 342.6 961.566 342.633 961.3 342.7C961.1 342.7 961 342.6 960.8 342.6H957C955.1 342.6 953.5 343.6 952.6 345.1C951.733 344.967 950.733 344.9 949.6 344.9C947.2 344.9 945.3 345.3 943.7 346C943.8 344.8 943.5 343.5 942.7 342.5C941.8 341.3 940.3 340.6 938.7 340.6H936.7C935.1 340.6 933.7 341.3 932.7 342.4C931.8 341.3 930.3 340.6 928.8 340.6H903C897.7 340.6 893.3 342.2 889.9 345.2L892.8 334.2C893.3 332.3 893.1 330.3 892.1 328.6C891.1 326.9 889.5 325.7 887.6 325.2L845.5 313.9C844.9 313.767 844.3 313.7 843.7 313.7C840.3 313.7 837.4 316 836.5 319.2L830.9 340.6H805.8C803.6 340.6 801.6 342 801 344.1C800.4 346 800.9 348 802.3 349.3C800.6 349.8 799.1 351.1 798.6 353L790.1 384.5C789.7 386.1 790.1 387.7 791 389C792 390.2 793.5 390.9 795.1 390.9H817.4L815.4 398.5C814.9 400.4 815.1 402.4 816.1 404.1C817.1 405.8 818.7 407 820.6 407.5L862.6 418.8C863.267 418.933 863.9 419 864.5 419C867.8 419 870.8 416.8 871.6 413.5L878.7 387.2C879.233 386.8 879.766 386.333 880.3 385.8C880.7 386.4 881.1 386.9 881.5 387.3C884 389.7 887.6 390.9 892.3 390.9H918C919.6 390.9 921 390.2 921.9 389.1C922.9 390.3 924.3 390.9 925.8 390.9H927.9C930.2 390.9 932.1 389.5 932.8 387.3C934.2 388.6 936.5 389.5 940 389.5C941.7 389.5 943 389.3 944.2 389C944.867 389.267 945.566 389.4 946.3 389.4H950.1C950.5 389.4 950.833 389.367 951.1 389.3C951.433 389.367 951.8 389.4 952.2 389.4H956C956.666 389.4 957.333 389.267 958 389C959.1 389.3 960.4 389.5 962 389.5C962.466 389.5 962.933 389.467 963.4 389.4C963.533 389.4 963.7 389.4 963.9 389.4H967.7C968.033 389.4 968.367 389.367 968.7 389.3C969.033 389.367 969.367 389.4 969.7 389.4H973.6C973.933 389.4 974.267 389.367 974.6 389.3C974.933 389.367 975.267 389.4 975.6 389.4H979.4C979.733 389.4 980.066 389.367 980.4 389.3C980.6 389.367 980.766 389.4 980.9 389.4C981.033 389.667 981.2 389.933 981.4 390.2C982.3 391.5 983.8 392.2 985.4 392.2H989.2C991.2 392.2 992.9 391.1 993.8 389.4C994.466 389.267 995.1 389.133 995.7 389C996.367 389.267 997.1 389.4 997.9 389.4H1001.7C1002.6 389.4 1003.4 389.2 1004.1 388.9C1005.37 389.3 1006.87 389.5 1008.6 389.5C1010.4 389.5 1011.9 389.3 1013.2 388.9C1013.9 389.2 1014.7 389.4 1015.5 389.4H1019.3C1019.7 389.4 1020.03 389.367 1020.3 389.3C1020.63 389.367 1021 389.4 1021.4 389.4H1025.2C1026 389.4 1026.7 389.3 1027.4 388.9C1028.67 389.3 1030.17 389.5 1031.9 389.5C1033.7 389.5 1035.3 389.3 1036.6 388.9C1037.27 389.233 1038 389.4 1038.8 389.4H1042.6C1042.93 389.4 1043.27 389.367 1043.6 389.3C1043.93 389.367 1044.27 389.4 1044.6 389.4H1048.4C1048.73 389.4 1049.03 389.4 1049.3 389.4C1049.5 389.4 1049.7 389.4 1049.9 389.4H1050C1050.13 389.667 1050.27 389.933 1050.4 390.2C1051.4 391.5 1052.9 392.2 1054.5 392.2H1058.3C1060.2 392.2 1062 391.1 1062.8 389.4C1067.3 388.8 1070.4 386.1 1071.6 381.8L1071.8 381.1C1072 380.2 1072.1 379.4 1072.1 378.6C1072.1 376.5 1071.4 374.6 1070 373.2Z" fill="black"/>
<path fill-rule="evenodd" clip-rule="evenodd" d="M953.9 354.8H947.3L947.2 355.5C947.134 355.7 947.1 355.867 947.1 356C947.1 356.467 947.333 356.7 947.8 356.7C948.466 356.7 948.9 356.367 949.1 355.7H953.6C952.6 357.567 950.533 358.5 947.4 358.5C944.267 358.5 942.7 357.567 942.7 355.7C942.7 355.367 942.733 355 942.8 354.6L943 353.9C943.733 351.3 945.933 350 949.6 350C952.733 350 954.3 350.9 954.3 352.7C954.3 353.1 954.267 353.5 954.2 353.9L953.9 354.8ZM949.7 353.3L949.8 353C949.866 352.8 949.9 352.633 949.9 352.5C949.9 351.967 949.633 351.7 949.1 351.7C948.433 351.7 948 352.133 947.8 353L947.7 353.3H949.7Z" fill="white"/>
<path d="M957.9 358.4H954.1L957 347.7H960.8L957.9 358.4Z" fill="white"/>
<path d="M963 358.4H959.2L961.4 350H965.3L963 358.4ZM965.4 349.5H961.5L962 347.7H965.8L965.4 349.5Z" fill="white"/>
<path d="M973.2 352.3H971.3L969.7 358.4H965.8L967.5 352.3H965.6L966.2 350H968.1L968.7 347.7H972.5L971.9 350H973.8L973.2 352.3Z" fill="white"/>
<path fill-rule="evenodd" clip-rule="evenodd" d="M984.4 354.8H977.9L977.7 355.5C977.634 355.7 977.6 355.867 977.6 356C977.6 356.467 977.867 356.7 978.4 356.7C979.067 356.7 979.467 356.367 979.6 355.7H984.1C983.1 357.567 981.033 358.5 977.9 358.5C974.767 358.5 973.2 357.567 973.2 355.7C973.2 355.367 973.233 355 973.3 354.6L973.5 353.9C974.233 351.3 976.467 350 980.2 350C983.334 350 984.9 350.9 984.9 352.7C984.9 353.1 984.834 353.5 984.7 353.9L984.4 354.8ZM980.2 353.3L980.3 353C980.366 352.8 980.4 352.633 980.4 352.5C980.4 351.967 980.133 351.7 979.6 351.7C978.933 351.7 978.5 352.133 978.3 353L978.2 353.3H980.2Z" fill="white"/>
<path fill-rule="evenodd" clip-rule="evenodd" d="M949.8 367.8C949.133 370.467 947.2 371.8 944 371.8C943.333 371.8 942.766 371.667 942.3 371.4L942.2 371.7H938.3L941.2 361H945L944.4 363.6C944.933 363.333 945.566 363.2 946.3 363.2C948.9 363.2 950.2 364.067 950.2 365.8C950.2 366.2 950.133 366.633 950 367.1L949.8 367.8ZM945 368.7L945.6 366.3C945.667 366.033 945.7 365.833 945.7 365.7C945.7 365.233 945.467 365 945 365C944.333 365 943.867 365.433 943.6 366.3L943 368.7C942.933 368.9 942.9 369.1 942.9 369.3C942.9 369.767 943.133 370 943.6 370C944.267 370 944.733 369.567 945 368.7Z" fill="white"/>
<path fill-rule="evenodd" clip-rule="evenodd" d="M959.8 371.7H955.9L956 371.4C955.4 371.667 954.733 371.8 954 371.8C951.267 371.8 949.9 371.167 949.9 369.9C949.9 369.7 949.933 369.5 950 369.3C950.267 368.367 950.866 367.733 951.8 367.4C952.4 367.133 953.333 366.933 954.6 366.8C955.867 366.733 956.8 366.567 957.4 366.3L957.5 366.1C957.5 365.967 957.5 365.833 957.5 365.7C957.5 365.233 957.2 365 956.6 365C955.8 365 955.3 365.367 955.1 366.1H951.1C952.033 364.167 954.033 363.2 957.1 363.2C959.833 363.2 961.2 364.067 961.2 365.8C961.2 366.133 961.167 366.5 961.1 366.9L959.8 371.7ZM956.6 369.2L956.9 368.2C956.7 368.267 956.367 368.333 955.9 368.4C955.433 368.4 955.1 368.467 954.9 368.6C954.5 368.733 954.267 368.933 954.2 369.2C954.2 369.333 954.2 369.433 954.2 369.5C954.2 369.833 954.534 370 955.2 370C956 370 956.467 369.733 956.6 369.2Z" fill="white"/>
<path d="M969.7 365.6H967.9L966.2 371.7H962.4L964 365.6H962.2L962.8 363.3H964.6L965.3 361H969.1L968.5 363.3H970.3L969.7 365.6Z" fill="white"/>
<path d="M978.5 365.6H976.6L975 371.7H971.2L972.8 365.6H970.9L971.6 363.3H973.4L974 361H977.9L977.3 363.3H979.1L978.5 365.6Z" fill="white"/>
<path d="M981.8 371.7H978L980.8 361H984.7L981.8 371.7Z" fill="white"/>
<path fill-rule="evenodd" clip-rule="evenodd" d="M995.1 368H988.6L988.4 368.7C988.333 368.9 988.3 369.1 988.3 369.3C988.3 369.767 988.567 370 989.1 370C989.767 370 990.166 369.633 990.3 368.9H994.8C993.8 370.833 991.733 371.8 988.6 371.8C985.467 371.8 983.9 370.867 983.9 369C983.9 368.667 983.933 368.267 984 367.8L984.2 367.1C984.934 364.5 987.167 363.2 990.9 363.2C994.033 363.2 995.6 364.133 995.6 366C995.6 366.333 995.533 366.7 995.4 367.1L995.1 368ZM990.9 366.6L991 366.3C991.067 366.033 991.1 365.833 991.1 365.7C991.1 365.233 990.833 365 990.3 365C989.633 365 989.2 365.433 989 366.3L988.9 366.6H990.9Z" fill="white"/>
<path d="M946.4 381.4C945.467 383.4 943.333 384.4 940 384.4C936.867 384.4 935.3 383.467 935.3 381.6C935.3 381.267 935.367 380.9 935.5 380.5L935.7 379.8C936.367 377.2 938.566 375.9 942.3 375.9C945.433 375.9 947 376.8 947 378.6C947 378.733 947 378.833 947 378.9H942.5C942.567 378.7 942.6 378.533 942.6 378.4C942.6 377.933 942.333 377.7 941.8 377.7C941.133 377.7 940.7 378.1 940.5 378.9L939.8 381.4C939.8 381.6 939.8 381.767 939.8 381.9C939.8 382.367 940.033 382.6 940.5 382.6C941.167 382.6 941.633 382.2 941.9 381.4H946.4Z" fill="white"/>
<path d="M956 384.4H952.2L953.6 378.9C953.667 378.7 953.7 378.533 953.7 378.4C953.7 377.867 953.467 377.6 953 377.6C952.267 377.6 951.8 378.033 951.6 378.9L950.1 384.4H946.3L949.2 373.6H953L952.3 376.2C952.9 376 953.733 375.9 954.8 375.9C956.6 375.9 957.5 376.6 957.5 378C957.5 378.4 957.433 378.833 957.3 379.3L956 384.4Z" fill="white"/>
<path fill-rule="evenodd" clip-rule="evenodd" d="M967.7 384.4H963.9L964 384C963.333 384.267 962.667 384.4 962 384.4C959.2 384.4 957.8 383.8 957.8 382.6C957.8 382.4 957.833 382.2 957.9 382C958.167 381.067 958.767 380.4 959.7 380C960.3 379.8 961.233 379.633 962.5 379.5C963.767 379.367 964.7 379.2 965.3 379L965.4 378.7C965.4 378.567 965.4 378.467 965.4 378.4C965.467 377.933 965.167 377.7 964.5 377.7C963.7 377.7 963.2 378.033 963 378.7H959C960 376.833 962 375.9 965 375.9C967.733 375.9 969.1 376.733 969.1 378.4C969.1 378.8 969.067 379.2 969 379.6L967.7 384.4ZM964.5 381.9L964.8 380.8C964.6 380.867 964.266 380.933 963.8 381C963.333 381.067 963 381.133 962.8 381.2C962.4 381.4 962.167 381.633 962.1 381.9C962.1 381.967 962.1 382.033 962.1 382.1C962.1 382.5 962.433 382.7 963.1 382.7C963.9 382.7 964.367 382.433 964.5 381.9Z" fill="white"/>
<path d="M985.3 384.4H981.4L982.9 378.9C982.967 378.7 983 378.533 983 378.4C983 377.933 982.734 377.7 982.2 377.7C981.534 377.7 981.1 378.1 980.9 378.9L979.4 384.4H975.6L977 378.9C977.067 378.7 977.1 378.533 977.1 378.4C977.1 377.933 976.867 377.7 976.4 377.7C975.733 377.7 975.267 378.1 975 378.9L973.6 384.4H969.7L972 375.9H975.8L975.7 376.2C976.3 376 977.134 375.9 978.2 375.9C979.4 375.9 980.2 376.2 980.6 376.8C981.4 376.2 982.533 375.9 984 375.9C985.867 375.9 986.8 376.6 986.8 378C986.8 378.4 986.733 378.833 986.6 379.3L985.3 384.4Z" fill="white"/>
<path fill-rule="evenodd" clip-rule="evenodd" d="M997.6 380.5C996.933 383.1 995 384.4 991.8 384.4C991.133 384.4 990.567 384.3 990.1 384.1L989.2 387.1H985.4L988.4 375.9H992.2V376.3C992.8 376.033 993.433 375.9 994.1 375.9C996.7 375.9 998 376.767 998 378.5C998 378.9 997.933 379.333 997.8 379.8L997.6 380.5ZM993.4 378.9C993.467 378.7 993.5 378.533 993.5 378.4C993.5 377.933 993.266 377.7 992.8 377.7C992.133 377.7 991.667 378.1 991.4 378.9L990.8 381.4C990.733 381.6 990.7 381.767 990.7 381.9C990.7 382.367 990.933 382.6 991.4 382.6C992.067 382.6 992.533 382.2 992.8 381.4L993.4 378.9Z" fill="white"/>
<path d="M1001.7 384.4H997.9L1000.1 375.9H1004L1001.7 384.4ZM1004.1 375.5H1000.3L1000.7 373.7H1004.5L1004.1 375.5Z" fill="white"/>
<path fill-rule="evenodd" clip-rule="evenodd" d="M1015.2 380.5C1014.53 383.1 1012.33 384.4 1008.6 384.4C1005.47 384.4 1003.9 383.467 1003.9 381.6C1003.9 381.267 1003.97 380.9 1004.1 380.5L1004.2 379.8C1004.93 377.2 1007.17 375.9 1010.9 375.9C1014.03 375.9 1015.6 376.833 1015.6 378.7C1015.6 379.033 1015.53 379.4 1015.4 379.8L1015.2 380.5ZM1010.4 381.4L1011.1 378.9C1011.1 378.7 1011.1 378.533 1011.1 378.4C1011.1 377.933 1010.87 377.7 1010.4 377.7C1009.73 377.7 1009.27 378.1 1009 378.9L1008.4 381.4C1008.33 381.6 1008.3 381.767 1008.3 381.9C1008.3 382.367 1008.57 382.6 1009.1 382.6C1009.77 382.6 1010.2 382.2 1010.4 381.4Z" fill="white"/>
<path d="M1025.2 384.4H1021.4L1022.8 378.9C1022.87 378.7 1022.9 378.533 1022.9 378.4C1022.9 377.933 1022.63 377.7 1022.1 377.7C1021.43 377.7 1021 378.1 1020.8 378.9L1019.3 384.4H1015.5L1017.8 375.9H1021.6L1021.5 376.2C1022.1 376 1022.93 375.9 1024 375.9C1025.8 375.9 1026.7 376.6 1026.7 378C1026.7 378.4 1026.63 378.833 1026.5 379.3L1025.2 384.4Z" fill="white"/>
<path d="M1038.9 378.5H1034.6C1034.6 378.433 1034.6 378.333 1034.6 378.2C1034.6 377.867 1034.33 377.7 1033.8 377.7C1033 377.7 1032.6 377.933 1032.6 378.4C1032.6 378.733 1033.07 378.967 1034 379.1C1035.53 379.367 1036.47 379.6 1036.8 379.8C1037.6 380.133 1038 380.633 1038 381.3C1038 381.433 1037.97 381.6 1037.9 381.8C1037.43 383.533 1035.43 384.4 1031.9 384.4C1028.57 384.4 1026.97 383.5 1027.1 381.7H1031.3C1031.3 381.833 1031.3 381.933 1031.3 382C1031.3 382.4 1031.6 382.6 1032.2 382.6C1033.07 382.6 1033.5 382.367 1033.5 381.9C1033.5 381.567 1033.03 381.333 1032.1 381.2C1030.57 380.933 1029.6 380.7 1029.2 380.5C1028.47 380.167 1028.1 379.667 1028.1 379C1028.1 378.867 1028.1 378.7 1028.1 378.5C1028.63 376.767 1030.67 375.9 1034.2 375.9C1037.4 375.9 1038.97 376.767 1038.9 378.5Z" fill="white"/>
<path d="M1048.4 384.4H1044.6L1046.1 378.9C1046.17 378.7 1046.2 378.533 1046.2 378.4C1046.2 377.867 1045.93 377.6 1045.4 377.6C1044.73 377.6 1044.3 378.033 1044.1 378.9L1042.6 384.4H1038.8L1041.6 373.6H1045.5L1044.8 376.2C1045.4 376 1046.2 375.9 1047.2 375.9C1049.07 375.9 1050 376.6 1050 378C1050 378.4 1049.93 378.833 1049.8 379.3L1048.4 384.4Z" fill="white"/>
<path d="M1053.7 384.4H1049.9L1052.2 375.9H1056L1053.7 384.4ZM1056.1 375.5H1052.3L1052.7 373.7H1056.6L1056.1 375.5Z" fill="white"/>
<path fill-rule="evenodd" clip-rule="evenodd" d="M1066.6 380.5C1065.93 383.1 1064 384.4 1060.8 384.4C1060.13 384.4 1059.57 384.3 1059.1 384.1L1058.3 387.1H1054.5L1057.5 375.9H1061.3L1061.2 376.3C1061.8 376.033 1062.43 375.9 1063.1 375.9C1065.7 375.9 1067 376.767 1067 378.5C1067 378.9 1066.93 379.333 1066.8 379.8L1066.6 380.5ZM1062.5 378.9C1062.57 378.7 1062.6 378.533 1062.6 378.4C1062.6 377.933 1062.33 377.7 1061.8 377.7C1061.13 377.7 1060.7 378.1 1060.5 378.9L1059.8 381.4C1059.73 381.6 1059.7 381.767 1059.7 381.9C1059.7 382.367 1059.97 382.6 1060.5 382.6C1061.17 382.6 1061.6 382.2 1061.8 381.4L1062.5 378.9Z" fill="white"/>
<path fill-rule="evenodd" clip-rule="evenodd" d="M838.5 361.4L836.2 370.1H816.5L814.6 377.2H826.3L824 385.9H795.1L803.5 354.3H818.1L805.8 345.6H834.8L832.5 354.3H820.7L818.8 361.4H838.5ZM830 377.2H834.4L832 385.9H827.7L830 377.2ZM842.8 345.6L840.5 354.2H836.2L838.5 345.6H842.8Z" fill="white"/>
<path fill-rule="evenodd" clip-rule="evenodd" d="M886.4 352C886.4 352.933 886.233 353.967 885.9 355.1C884.7 359.5 882.634 362.367 879.7 363.7C878.5 364.233 877.167 364.533 875.7 364.6L870.2 385.5C869 385.767 867.733 385.9 866.4 385.9H835.2L843.7 354.3H858.3L846 345.6H877.2C878.534 345.6 879.7 345.7 880.7 345.9C882.1 346.167 883.233 346.6 884.1 347.2C885.633 348.267 886.4 349.867 886.4 352ZM864.4 370.6C864.4 368.467 862.866 367.4 859.8 367.4H857.3L854.7 377.2H857.2C860.934 377.2 863.233 375.567 864.1 372.3C864.3 371.7 864.4 371.133 864.4 370.6ZM868.1 357C868.1 355.2 866.533 354.3 863.4 354.3H860.9L858.8 361.9H861.3C865.033 361.9 867.267 360.633 868 358.1C868.067 357.7 868.1 357.333 868.1 357ZM881.3 370.5C881.3 371.833 881.067 373.4 880.6 375.2C879.467 379.4 877.366 382.367 874.3 384.1L879.2 365.7C880.6 366.633 881.3 368.233 881.3 370.5Z" fill="white"/>
<path d="M918 385.9H892.3C886.366 385.9 883.4 383.533 883.4 378.8C883.4 377.6 883.6 376.2 884 374.6L888.8 356.9C890.8 349.367 895.533 345.6 903 345.6H928.8L926.5 354.3H912.3C908.566 354.3 906.2 356.167 905.2 359.9L902 371.6C901.8 372.4 901.7 373.133 901.7 373.8C901.7 376.067 903.167 377.2 906.1 377.2H920.3L918 385.9Z" fill="white"/>
<path fill-rule="evenodd" clip-rule="evenodd" d="M874.3 384.1L866.7 412.2C866.4 413.4 865.1 414.2 863.9 413.8L821.9 402.6C820.7 402.3 820 401 820.3 399.8L824 385.9H827.7L825.5 394.1L865 404.6L870.2 385.5C871.667 385.233 873.033 384.767 874.3 384.1ZM844.9 400.8C843.2 400.4 841.5 401.4 841.1 403C840.6 404.7 841.6 406.4 843.3 406.8C844.9 407.3 846.6 406.3 847.1 404.6C847.5 403 846.5 401.3 844.9 400.8ZM887.9 332.9L884.1 347.2L879.7 363.7L879.2 365.7C878.333 365.1 877.167 364.733 875.7 364.6L880.7 345.9L883.6 335.1L844.1 324.5L838.5 345.6H834.8L841.5 320.5C841.8 319.3 843 318.6 844.2 318.9L886.3 330.1C887.5 330.4 888.2 331.7 887.9 332.9ZM871.5 328L858.1 324.4C857.6 324.3 857 324.6 856.9 325.1C856.8 325.6 857.1 326.1 857.6 326.3L871 329.9C871.133 329.9 871.233 329.9 871.3 329.9C871.7 329.9 872.1 329.6 872.2 329.2C872.4 328.6 872.1 328.1 871.5 328ZM836.2 354.3L834.3 361.4L832 370.1H828.3L830.6 361.4L832.5 354.3H836.2ZM826.3 377.2H830L832 370.1H828.3L826.3 377.2Z" fill="#E00016"/>
<path d="M830 377.2L827.7 385.9H824L826.3 377.2H830Z" fill="white"/>
<path d="M838.5 345.6L836.2 354.3H832.5L834.8 345.6H838.5Z" fill="white"/>
<path d="M879.2 365.7L874.3 384.1C873.033 384.767 871.667 385.233 870.2 385.5L875.7 364.6C877.167 364.733 878.334 365.1 879.2 365.7Z" fill="white"/>
<path d="M938.7 345.6L927.9 385.9H925.8L936.7 345.6H938.7Z" fill="white"/>
<path d="M777.1 693.6C775.4 684.9 773.9 677.2 772.4 669.4C764.3 667.8 756.6 666.4 748.2 664.8C749.8 673.2 751.3 680.9 752.9 688.9C760.7 690.5 768.4 691.9 777.1 693.6Z" fill="black"/>
<path d="M1094.1 664.8C1085.4 666.5 1077.8 668 1069.9 669.5C1068.4 677.5 1066.9 685.3 1065.3 693.5C1074 692 1081.8 690.8 1089.6 688.7C1091.1 680.8 1092.5 673.2 1094.1 664.8Z" fill="black"/>
<path d="M717.4 540.7C717.4 540.8 717.4 540.9 717.4 541C717.5 547.6 715.8 552.8 712.4 556.7C709 560.5 704.2 562.8 697.9 563.6C691.5 564.4 686.4 562.8 682.5 558.5C678.7 554.2 676.8 548.1 676.8 540.3C676.8 535 676.8 532.4 676.8 527.1C676.8 519.4 678.6 513 682.3 508.2C686.1 503.4 691 501.1 697.1 501.1C703.7 501.1 708.8 502.9 712.3 506.3C715.9 509.8 717.7 514.7 717.6 521.3C717.5 521.4 717.5 521.5 717.5 521.6C712.8 521.8 710.4 521.9 705.8 522C705.8 518.333 705.133 515.733 703.8 514.2C702.4 512.667 700.167 511.9 697.1 511.9C694.433 511.967 692.367 513.333 690.9 516C689.433 518.6 688.7 522.067 688.7 526.4C688.7 531.6 688.7 534.2 688.7 539.4C688.7 543.733 689.5 547.133 691.1 549.6C692.7 552 694.967 553.067 697.9 552.8C700.633 552.467 702.6 551.467 703.8 549.8C705.066 548.067 705.7 545.333 705.7 541.6C710.4 541.3 712.7 541.1 717.4 540.7Z" fill="white"/>
<path d="M771.5 555.3C766.7 555.7 764.3 555.9 759.5 556.3C759.5 547.5 759.5 543.1 759.5 534.4C751.9 534.8 748.1 535 740.4 535.5C740.4 544.5 740.4 549 740.4 558.1C735.6 558.5 733.2 558.8 728.4 559.3C728.4 540.167 728.433 521.033 728.5 501.9C733.3 501.9 735.7 501.9 740.5 501.9C740.5 511.3 740.5 516 740.4 525.4C748.1 525.1 751.9 524.9 759.6 524.7C759.6 515.5 759.6 511 759.6 501.9C764.4 501.8 766.8 501.8 771.6 501.8C771.533 519.667 771.5 537.5 771.5 555.3Z" fill="white"/>
<path fill-rule="evenodd" clip-rule="evenodd" d="M811.8 542.6C805.6 542.9 802.6 543 796.4 543.4C795.2 547.5 794.6 549.5 793.4 553.6C788.3 554 785.8 554.1 780.8 554.5C786.333 536.9 792 519.333 797.8 501.8C800.3 501.8 801.6 501.8 804.2 501.8C806.8 501.8 808.1 501.8 810.6 501.8C816.133 518.4 821.733 535 827.4 551.6C822.4 551.8 819.8 552 814.8 552.3C813.6 548.4 813 546.5 811.8 542.6ZM799.2 534C803.1 533.9 805.1 533.8 809 533.7C807.1 527.4 806.2 524.3 804.2 518C804.2 518 804.1 518 804 518C802.1 524.4 801.1 527.6 799.2 534Z" fill="white"/>
<path d="M847.5 541.9C856.4 541.6 860.9 541.5 869.7 541.3C869.7 544.8 869.7 546.5 869.7 549.9C858.3 550.233 846.9 550.667 835.5 551.2C835.567 534.733 835.6 518.267 835.6 501.8C840.4 501.8 842.8 501.8 847.6 501.8C847.6 515.2 847.567 528.567 847.5 541.9Z" fill="white"/>
<path d="M892.6 540.9C901.4 540.8 905.9 540.8 914.8 540.7C914.8 544.1 914.8 545.8 914.8 549.2C903.4 549.267 891.967 549.4 880.5 549.6C880.567 533.667 880.6 517.733 880.6 501.8C885.4 501.8 887.8 501.8 892.6 501.8C892.6 514.8 892.6 527.833 892.6 540.9Z" fill="white"/>
<path d="M955.8 529.1C948.5 529 944.9 529 937.6 528.9C937.6 533.7 937.6 536.1 937.6 540.8C946.3 540.9 950.7 540.9 959.5 541.1C959.5 544.5 959.5 546.2 959.5 549.6C948.167 549.4 936.867 549.267 925.6 549.2C925.6 533.4 925.6 517.6 925.6 501.8C936.867 501.8 948.133 501.8 959.4 501.8C959.5 505.2 959.5 506.9 959.5 510.3C950.7 510.3 946.3 510.3 937.6 510.2C937.6 514.3 937.6 516.4 937.6 520.5C944.9 520.5 948.5 520.5 955.8 520.6C955.8 524 955.8 525.7 955.8 529.1Z" fill="white"/>
<path d="M1013.7 551.6C1009 551.3 1006.6 551.2 1001.8 551C995.533 540.533 989.2 530.133 982.8 519.8C982.7 519.8 982.6 519.8 982.6 519.8C982.6 529.933 982.6 540.1 982.6 550.3C977.8 550.1 975.4 550 970.6 549.9C970.6 533.833 970.567 517.8 970.5 501.8C975.3 501.8 977.7 501.8 982.5 501.8C988.9 512.067 995.233 522.367 1001.5 532.7C1001.6 532.7 1001.6 532.7 1001.7 532.6C1001.7 522.333 1001.7 512.067 1001.7 501.8C1006.5 501.8 1008.8 501.8 1013.6 501.8C1013.67 518.4 1013.7 535 1013.7 551.6Z" fill="white"/>
<path d="M1067.2 547.7C1065.4 549.833 1062.87 551.567 1059.6 552.9C1056.33 554.233 1052.13 554.7 1047 554.3C1040.6 553.833 1035.4 551.567 1031.4 547.5C1027.3 543.4 1025.3 538.4 1025.3 532.3C1025.3 528.1 1025.3 525.9 1025.3 521.7C1025.3 515.7 1027.2 510.7 1031.1 506.9C1035 503 1040 501.1 1046.1 501.1C1052.7 501.1 1057.7 502.6 1061.1 505.6C1064.5 508.6 1066.1 512.8 1066 518C1066 518.1 1066 518.2 1065.9 518.3C1061.4 518.1 1059.2 518.1 1054.7 518C1054.7 515.4 1054 513.467 1052.6 512.2C1051.27 511 1049.23 510.367 1046.5 510.3C1043.7 510.3 1041.47 511.367 1039.8 513.5C1038.07 515.633 1037.23 518.467 1037.3 522C1037.3 526.3 1037.3 528.4 1037.3 532.7C1037.3 536.233 1038.13 539.133 1039.8 541.4C1041.53 543.667 1043.93 544.9 1047 545.1C1049.2 545.233 1050.93 545.133 1052.2 544.8C1053.47 544.533 1054.47 544.133 1055.2 543.6C1055.2 539.8 1055.2 538 1055.1 534.2C1051.5 534.1 1049.7 534 1046 533.8C1046 530.7 1046 529.1 1046 525.9C1054.4 526.2 1058.7 526.3 1067.1 526.6C1067.2 535.1 1067.2 539.3 1067.2 547.7Z" fill="white"/>
<path d="M1108.9 534.5C1101.6 534.1 1098 533.9 1090.7 533.5C1090.7 539 1090.7 541.7 1090.7 547.2C1099.5 547.9 1103.8 548.3 1112.6 549C1112.6 553.1 1112.6 555.2 1112.6 559.3C1101.33 558.1 1090.07 557 1078.8 556C1078.73 537.933 1078.67 519.9 1078.6 501.9C1089.93 501.9 1101.23 501.9 1112.5 501.9C1112.5 506 1112.5 508 1112.5 512.1C1103.8 512 1099.4 511.9 1090.7 511.7C1090.7 516.5 1090.7 518.9 1090.7 523.6C1098 523.9 1101.6 524 1108.9 524.3C1108.9 528.4 1108.9 530.4 1108.9 534.5Z" fill="white"/>
<path fill-rule="evenodd" clip-rule="evenodd" d="M1135.6 538.9C1135.6 548.1 1135.6 552.7 1135.7 561.8C1130.9 561.3 1128.5 561 1123.7 560.5C1123.63 540.967 1123.6 521.433 1123.6 501.9C1130.8 501.9 1134.4 501.9 1141.6 501.9C1147.6 502 1152.3 503.6 1155.8 507C1159.3 510.4 1161.1 515 1161.1 520.9C1161.1 524.167 1160.4 526.933 1159 529.2C1157.6 531.4 1155.53 533.133 1152.8 534.4C1155.93 535.733 1158.2 537.733 1159.6 540.4C1161 543.067 1161.7 546.3 1161.7 550.1C1161.7 551.7 1161.7 552.5 1161.7 554.1C1161.7 555.7 1161.9 557.6 1162.3 559.8C1162.7 561.933 1163.37 563.533 1164.3 564.6C1164.3 564.9 1164.3 565.1 1164.3 565.4C1159.4 564.8 1156.9 564.5 1152 563.8C1151.07 562.8 1150.43 561.2 1150.1 559C1149.83 556.733 1149.7 554.633 1149.7 552.7C1149.7 551.2 1149.7 550.5 1149.7 549C1149.7 546.067 1149.07 543.767 1147.8 542.1C1146.47 540.433 1144.53 539.533 1142 539.4C1139.5 539.2 1138.2 539.1 1135.6 538.9ZM1135.6 528.2C1138 528.3 1139.3 528.4 1141.7 528.5C1144.1 528.633 1145.93 528.1 1147.2 526.9C1148.47 525.633 1149.1 523.767 1149.1 521.3C1149.1 518.767 1148.47 516.733 1147.2 515.2C1145.87 513.6 1144 512.8 1141.6 512.8C1139.2 512.7 1138 512.7 1135.6 512.6C1135.6 518.9 1135.6 522 1135.6 528.2Z" fill="white"/>
<path d="M715.5 519.7C712.6 519.8 710.6 519.8 707.7 520C707.5 516.8 706.7 514.5 705.3 512.9C703.6 510.9 701 509.9 697.5 509.9H697.1C693.7 510 690.9 511.8 689.2 515C687.6 517.9 686.7 521.7 686.7 526.4V539.4C686.7 540.867 686.8 542.267 687 543.6C684.333 543.867 681.667 544.133 679 544.4C678.867 543.133 678.8 541.767 678.8 540.3V527.1C678.8 519.8 680.5 513.9 683.9 509.4C687.2 505.1 691.6 503.1 697.1 503.1C703.1 503.1 707.7 504.6 711 507.7C713.8 510.5 715.4 514.4 715.5 519.7Z" fill="url(#paint8_linear_0_1)"/>
<path d="M769.6 503.8L769.5 535.7C766.833 535.9 764.167 536.1 761.5 536.3L761.6 532.3L759.4 532.4C751.8 532.8 748 533 740.3 533.5L738.4 533.6V538.4C735.733 538.6 733.067 538.833 730.4 539.1L730.5 503.9H738.5L738.4 527.5L740.5 527.4C748.2 527.1 752 526.9 759.7 526.7L761.6 526.6V503.9L769.6 503.8Z" fill="url(#paint9_linear_0_1)"/>
<path d="M809.2 503.8H805H802.2H799.2C795.9 513.9 792.6 524 789.4 534.2C792 534 794.6 533.8 797.2 533.6L797.3 533.5C799.2 527 800.2 523.8 802.1 517.4L802.5 516L805.7 515.9L806.2 517.4C808 523.6 809 526.7 810.8 532.7C813.466 532.5 816.1 532.333 818.7 532.2C815.5 522.7 812.3 513.2 809.2 503.8Z" fill="url(#paint10_linear_0_1)"/>
<path d="M845.6 503.8V530.7C842.933 530.833 840.233 530.967 837.5 531.1L837.6 503.8H845.6Z" fill="url(#paint11_linear_0_1)"/>
<path d="M890.6 503.8V529C887.933 529.067 885.267 529.133 882.6 529.2V503.8H890.6Z" fill="url(#paint12_linear_0_1)"/>
<path d="M935.6 508.2V522.5H937.6C944.2 522.5 947.8 522.5 953.8 522.5V527.1C947.8 527 944.2 527 937.6 526.9H935.6V528.3C932.933 528.3 930.267 528.3 927.6 528.3V503.8H957.5V508.3C950 508.3 945.6 508.3 937.6 508.2H935.6Z" fill="url(#paint13_linear_0_1)"/>
<path d="M981.4 503.8C986.8 512.4 992.1 521 997.1 529.2C995.033 529.133 992.933 529.067 990.8 529C988.733 525.6 986.633 522.167 984.5 518.7L983.7 517.4L980.6 518.3V528.7C977.933 528.633 975.267 528.6 972.6 528.6L972.5 503.8H981.4Z" fill="url(#paint14_linear_0_1)"/>
<path d="M1011.7 529.8C1009.1 529.667 1006.43 529.533 1003.7 529.4V503.8H1011.6C1011.67 512.467 1011.7 521.133 1011.7 529.8Z" fill="url(#paint15_linear_0_1)"/>
<path d="M1054 510.8C1052.3 509.2 1049.8 508.3 1046.6 508.3H1046.4C1043 508.3 1040.3 509.6 1038.2 512.3C1036.2 514.8 1035.2 518 1035.2 522L1035.3 531C1032.63 530.8 1029.97 530.633 1027.3 530.5V521.7C1027.3 516.2 1029 511.8 1032.5 508.3C1036.1 504.8 1040.5 503.1 1046.1 503.1C1052.2 503.1 1056.8 504.4 1059.8 507.1C1062.3 509.4 1063.7 512.4 1064 516.2C1061.3 516.1 1059.3 516.1 1056.6 516C1056.27 513.8 1055.4 512.067 1054 510.8Z" fill="url(#paint16_linear_0_1)"/>
<path d="M1057.1 532.4V532.3C1057.1 532.3 1056.2 532.3 1054.9 532.2C1054.77 532.2 1054.67 532.2 1054.6 532.2C1052.4 532.1 1049.5 532 1048 531.9V531.8V527.9C1054.5 528.2 1058.6 528.3 1065.1 528.6V533C1062.5 532.8 1059.83 532.6 1057.1 532.4Z" fill="url(#paint17_linear_0_1)"/>
<path d="M1106.9 526.2V532.4C1101 532 1097.4 531.8 1090.8 531.5L1088.7 531.4V534.9C1086.1 534.7 1083.43 534.467 1080.7 534.2L1080.6 503.9H1110.5V510.1C1103.1 510 1098.7 509.9 1090.7 509.7H1088.7V525.5L1090.6 525.6C1097.2 525.9 1100.8 526 1106.9 526.2Z" fill="url(#paint18_linear_0_1)"/>
<path fill-rule="evenodd" clip-rule="evenodd" d="M1157.8 541.2C1154.93 541 1152 540.767 1149 540.5C1147.4 538.6 1145.1 537.6 1142.2 537.4C1139.6 537.2 1133.6 536.7 1133.6 536.7V539.1C1131 538.9 1128.33 538.667 1125.6 538.4V503.9H1141.6C1147.1 504 1151.3 505.4 1154.4 508.4C1157.5 511.4 1159.1 515.6 1159.1 520.9C1159.1 523.767 1158.5 526.167 1157.3 528.1C1156.1 530 1154.3 531.5 1151.9 532.6L1147.7 534.5L1152 536.3C1154.7 537.4 1156.6 539 1157.8 541.2ZM1142.4 530.5C1145 530.5 1147.07 529.767 1148.6 528.3C1150.3 526.7 1151.1 524.3 1151.1 521.3C1151.1 518.3 1150.3 515.8 1148.7 513.9C1147 511.9 1144.6 510.8 1141.6 510.8L1133.6 510.6V530.1L1141.6 530.5C1141.87 530.5 1142.13 530.5 1142.4 530.5Z" fill="url(#paint19_linear_0_1)"/>
<defs>
<linearGradient id="paint0_linear_0_1" x1="1509.4" y1="470.6" x2="1493.6" y2="729.4" gradientUnits="userSpaceOnUse">
<stop stop-color="#C79317"/>
<stop offset="0.5" stop-color="#EEE64A"/>
<stop offset="1" stop-color="#C79416"/>
</linearGradient>
<radialGradient id="paint1_radial_0_1" cx="0" cy="0" r="1" gradientUnits="userSpaceOnUse" gradientTransform="translate(964.7 467) scale(48.8)">
<stop stop-color="white"/>
<stop offset="1" stop-color="#F9CDCD" stop-opacity="0"/>
</radialGradient>
<linearGradient id="paint2_linear_0_1" x1="743.2" y1="519.1" x2="882" y2="311.3" gradientUnits="userSpaceOnUse">
<stop stop-color="white"/>
<stop offset="1" stop-color="#F9CDCD" stop-opacity="0"/>
</linearGradient>
<linearGradient id="paint3_linear_0_1" x1="966.1" y1="608" x2="957.6" y2="793.8" gradientUnits="userSpaceOnUse">
<stop stop-color="#C79317"/>
<stop offset="0.5" stop-color="#EEE64A"/>
<stop offset="1" stop-color="#C79416"/>
</linearGradient>
<linearGradient id="paint4_linear_0_1" x1="888.6" y1="456.5" x2="908.5" y2="6.30001" gradientUnits="userSpaceOnUse">
<stop stop-color="#C79317"/>
<stop offset="0.5" stop-color="#EEE64A"/>
<stop offset="1" stop-color="#C79416"/>
</linearGradient>
<linearGradient id="paint5_linear_0_1" x1="963" y1="609.2" x2="954.6" y2="793.4" gradientUnits="userSpaceOnUse">
<stop stop-color="#C79317"/>
<stop offset="0.5" stop-color="#EEE64A"/>
<stop offset="1" stop-color="#C79416"/>
</linearGradient>
<linearGradient id="paint6_linear_0_1" x1="885" y1="456.5" x2="904.8" y2="6.40002" gradientUnits="userSpaceOnUse">
<stop stop-color="#C79317"/>
<stop offset="0.5" stop-color="#EEE64A"/>
<stop offset="1" stop-color="#C79416"/>
</linearGradient>
<linearGradient id="paint7_linear_0_1" x1="982.301" y1="434.1" x2="965.901" y2="701.5" gradientUnits="userSpaceOnUse">
<stop stop-color="#C79317"/>
<stop offset="0.5" stop-color="#EEE64A"/>
<stop offset="1" stop-color="#C79416"/>
</linearGradient>
<linearGradient id="paint8_linear_0_1" x1="674.7" y1="556.6" x2="671.8" y2="513.8" gradientUnits="userSpaceOnUse">
<stop stop-color="#B6B3BA"/>
<stop offset="1" stop-color="white"/>
</linearGradient>
<linearGradient id="paint9_linear_0_1" x1="735" y1="552.6" x2="732.1" y2="510.4" gradientUnits="userSpaceOnUse">
<stop stop-color="#B6B3BA"/>
<stop offset="1" stop-color="white"/>
</linearGradient>
<linearGradient id="paint10_linear_0_1" x1="789.3" y1="548.3" x2="786.4" y2="505.7" gradientUnits="userSpaceOnUse">
<stop stop-color="#B6B3BA"/>
<stop offset="1" stop-color="white"/>
</linearGradient>
<linearGradient id="paint11_linear_0_1" x1="796.2" y1="545.4" x2="793.5" y2="505.7" gradientUnits="userSpaceOnUse">
<stop stop-color="#B6B3BA"/>
<stop offset="1" stop-color="white"/>
</linearGradient>
<linearGradient id="paint12_linear_0_1" x1="847.1" y1="541.7" x2="844.4" y2="502.2" gradientUnits="userSpaceOnUse">
<stop stop-color="#B6B3BA"/>
<stop offset="1" stop-color="white"/>
</linearGradient>
<linearGradient id="paint13_linear_0_1" x1="933" y1="537.3" x2="930.2" y2="495.9" gradientUnits="userSpaceOnUse">
<stop stop-color="#B6B3BA"/>
<stop offset="1" stop-color="white"/>
</linearGradient>
<linearGradient id="paint14_linear_0_1" x1="971.8" y1="532.7" x2="969.2" y2="493.6" gradientUnits="userSpaceOnUse">
<stop stop-color="#B6B3BA"/>
<stop offset="1" stop-color="white"/>
</linearGradient>
<linearGradient id="paint15_linear_0_1" x1="965.9" y1="533.2" x2="963.2" y2="494.1" gradientUnits="userSpaceOnUse">
<stop stop-color="#B6B3BA"/>
<stop offset="1" stop-color="white"/>
</linearGradient>
<linearGradient id="paint16_linear_0_1" x1="1035" y1="530.1" x2="1031.9" y2="486.3" gradientUnits="userSpaceOnUse">
<stop stop-color="#B6B3BA"/>
<stop offset="1" stop-color="white"/>
</linearGradient>
<linearGradient id="paint17_linear_0_1" x1="1055.4" y1="527" x2="1052.7" y2="487.9" gradientUnits="userSpaceOnUse">
<stop stop-color="#B6B3BA"/>
<stop offset="1" stop-color="white"/>
</linearGradient>
<linearGradient id="paint18_linear_0_1" x1="1078.9" y1="526.4" x2="1076" y2="485.4" gradientUnits="userSpaceOnUse">
<stop stop-color="#B6B3BA"/>
<stop offset="1" stop-color="white"/>
</linearGradient>
<linearGradient id="paint19_linear_0_1" x1="1120.3" y1="522.6" x2="1117.6" y2="483.4" gradientUnits="userSpaceOnUse">
<stop stop-color="#B6B3BA"/>
<stop offset="1" stop-color="white"/>
</linearGradient>
</defs>
</svg>
