<svg width="1920" height="1080" viewBox="0 0 1920 1080" fill="none" xmlns="http://www.w3.org/2000/svg">
<path d="M0 1080H1920V0H0V1080Z" fill="none"/>
<path d="M1264.4 482.1V652.2C1264.4 658.4 1260.1 663.7 1254 665L1203 675.4L1202.6 675.5C1186.1 713.5 1159.6 748.2 1126.2 775.1C1116.3 783.1 1105.9 790.3 1095.2 796.7C1094.4 797.167 1093.63 797.633 1092.9 798.1C1091.77 798.767 1090.63 799.4 1089.5 800C1054.5 819.7 1015.6 831 974.8 833.2C974.333 833.2 973.9 833.233 973.5 833.3C972.567 833.3 971.667 833.333 970.8 833.4C970.6 833.4 970.433 833.4 970.3 833.4H969.4C969.2 833.4 969.033 833.4 968.9 833.4C968.633 833.467 968.333 833.5 968 833.5C967.8 833.5 967.6 833.5 967.4 833.5C967.333 833.5 967.233 833.5 967.1 833.5C966.1 833.5 965.067 833.533 964 833.6C962.733 833.6 961.467 833.6 960.2 833.6H960C959.467 833.6 958.933 833.6 958.4 833.6C957.867 833.6 957.333 833.6 956.8 833.6C955.6 833.533 954.433 833.5 953.3 833.5C953.167 833.5 953 833.5 952.8 833.5C952.667 833.5 952.533 833.5 952.4 833.5C951.533 833.433 950.7 833.4 949.9 833.4C892.2 831.3 838.4 811.4 793.7 775.3C759.9 748.2 733.4 713.4 716.8 675.3L666.4 664.9C660.4 663.7 656 658.4 656 652.2V481.5C656 478 657.4 474.7 659.9 472.2C662.3 469.9 665.6 468.5 669 468.5H669.2C674.6 468.6 679.8 468.9 684.9 469.2C687.9 469.4 701.8 469.6 713.3 469.7C713.5 469.7 713.667 469.7 713.8 469.7C753 372 848.5 303 960.2 303C1012.3 303 1060.8 317.9 1101.8 343.8C1101.8 343.8 1101.8 343.833 1101.8 343.9C1152.3 376.1 1188.2 423.1 1205.8 469.1H1251.4C1258.6 469.1 1264.4 474.9 1264.4 482.1Z" fill="black"/>
<path d="M1242.1 650.2C1227.77 654.467 1213.43 658.733 1199.1 663C1216.5 659.4 1233.8 655.8 1251.4 652.2V482.1C1241.3 482.1 1231.5 482.1 1221.7 482.1C1221.7 482.367 1221.7 482.633 1221.7 482.9C1228.4 482.9 1235.1 482.9 1242.1 482.9V650.2Z" fill="url(#paint0_linear_0_1)"/>
<path d="M1095.5 568.3C1096.1 637 1039.8 703.7 959.4 704.2C883.7 704.6 821.6 643.7 821.9 567.3C822.3 488.3 885.9 431.4 957.3 430.7C1033.3 429.9 1095.9 491.4 1095.5 568.3Z" fill="#FFB902"/>
<path d="M871.3 581.2C883.8 577.9 896.6 575.3 909.4 573.4C918.1 572.2 926.7 571.4 935.4 570.8C938.7 570.5 942.1 570.5 945.5 570.2C946.5 570.2 946.8 570.7 947.2 571.5C953.1 584.2 962.6 593.1 976 597.2C992.1 602.2 1006.9 599.2 1020.1 588.7C1023.6 585.9 1026.6 582.6 1029.1 578.8C1029.7 577.8 1030.3 577.6 1031.5 577.8C1048 581.3 1064.1 586.3 1079.9 592.3C1082.3 593.2 1084.7 594.3 1087.2 595.1C1088.4 595.5 1088.5 596.2 1088.3 597.2C1086.9 602.7 1085.3 608.1 1083.3 613.4C1080.6 620.7 1077.3 627.8 1073.2 634.4C1072.8 635.1 1072.3 635.7 1071.9 636.3C1070.5 638.3 1068.4 639.7 1066.6 641.3C1061.47 645.9 1055.97 650.033 1050.1 653.7C1039.7 660.3 1028.6 665.1 1016.7 668.2C1009.5 670.133 1002.17 671.367 994.7 671.9C974.8 673.2 955.6 669.8 937.2 661.6C928.6 657.8 920.6 653 913.1 647.2C905.6 641.4 898.9 634.7 892.9 627.2C882.5 614.1 875.2 599.4 870.9 583.2C870.7 582.5 870.4 581.7 871.3 581.2Z" fill="#FEFEFE"/>
<path d="M871.3 581.2C870.9 581.7 871 582.2 871.2 582.7C874.1 594 878.5 604.5 884.5 614.4C891.8 626.4 901 636.9 912 645.7C926.9 657.6 943.7 665.4 962.3 669.3C968.4 670.6 974.5 671.2 980.7 671.5C996.5 672.3 1011.8 670 1026.7 664.7C1035.8 661.5 1044.3 657.1 1052.3 651.8C1058.7 647.6 1064.4 642.6 1070.1 637.7C1070.7 637.2 1071.3 636.7 1071.9 636.3C1070.8 639.1 1068.9 641.4 1067.2 643.8C1061.9 651.5 1055.6 658.4 1048.8 664.7C1041 671.9 1032.5 678 1023.2 683.2C1012.47 689.133 1001.1 693.5 989.1 696.3C982.033 697.967 974.833 699.033 967.5 699.5C964.4 699.7 961.3 699.8 958.1 699.9C953.8 700 949.5 699.6 945.2 699.2C933.267 698 921.7 695.233 910.5 690.9C896.2 685.3 883.2 677.5 871.6 667.4C849.8 648.5 835.5 625 828.8 596.9C828.4 595.4 828.8 594.9 830.1 594.4C843 589.6 856 585.3 869.2 581.7C869.867 581.567 870.566 581.4 871.3 581.2Z" fill="#A09D9D"/>
<path d="M835.5 561.5C841.9 559.1 848.4 556.7 854.9 554.5C862.2 552 869.6 549.6 877.1 547.6C886.5 545.2 895.8 542.9 905.4 541.3C912.8 540 920.2 539 927.7 538.4C932.4 538 937.1 537.6 941.8 537.4C943.7 537.4 945.5 537.2 947.4 537.2C948.3 537.2 948.6 536.8 948.9 536C952.6 526.8 958.7 519.6 967.1 514.5C972.567 511.1 978.5 509.033 984.9 508.3C996.9 507 1007.7 510 1017.3 517.3C1025.8 523.8 1031.2 532.3 1033.5 542.8C1033.8 544.2 1034.5 544.8 1035.8 545C1049.9 547.7 1063 552.9 1076 558.7C1081 561 1086.1 563.1 1091.2 565.2C1092.2 565.6 1092.6 566.2 1092.7 567.1C1092.9 575.6 1092.7 584 1090.6 592.3C1090.3 593.5 1089.7 593.3 1088.9 593C1080.3 589.533 1071.6 586.367 1062.8 583.5C1052 580 1041 577.1 1029.9 574.8C1028.8 574.5 1028.4 575.1 1028 575.8C1024.4 581.5 1019.8 586.3 1014.1 589.9C1007.9 593.8 1001.2 596.1 993.8 596.7C983.3 597.5 973.8 594.9 965.1 589.1C957.6 584 952.3 577.1 948.9 568.8C948.4 567.7 947.8 567.4 946.7 567.5C941.3 567.8 935.9 568 930.5 568.4C923.4 569.1 916.4 569.8 909.3 570.8C899.6 572.2 890 574 880.5 576.1C876.9 576.9 873.4 578.2 869.9 579C865.4 580.1 861.1 581.5 856.6 582.7C855.9 583 855.2 583.5 854.3 583.4C852.7 584 851.2 583.3 849.8 582.7C841.3 579 836.3 572.5 835 563.2C834.9 562.6 834.8 561.9 835.5 561.5Z" fill="#58585A"/>
<path d="M1091.7 560.5C1091.3 554.9 1090.8 549.4 1089.8 543.9C1084.1 513.9 1070.2 488.5 1047.4 468.3C1017.2 441.6 981.9 430.9 942 435.4C923.9 437.4 907.1 443.4 891.4 452.6C886.2 455.7 881.1 459 876.4 463C873 465.6 869.5 468.2 866.6 471.3C865.267 472.7 863.933 474.133 862.6 475.6C862.6 475.6 862.6 475.567 862.6 475.5C861.5 476.7 860.4 477.8 859.3 479C839.5 501.5 828.3 527.7 826 557.7C825.9 559.2 825.6 560.7 825.9 562.4C826.8 562 827.6 561.8 828.4 561.5C843.9 555.5 859.5 549.8 875.5 545.3C898.1 538.9 921.1 535.2 944.6 534.6C946 534.5 946.6 534.1 947.2 532.9C955.9 514.4 973.6 504 993.9 505.4C1013.6 506.7 1030.9 521.2 1035.8 540.4C1036.2 541.8 1036.7 542.4 1038.2 542.7C1046.2 544.3 1054 546.7 1061.7 549.7C1071.2 553.4 1080.5 557.8 1090 561.7C1091.7 562.4 1091.8 562.4 1091.7 560.5Z" fill="#FF0000"/>
<path d="M835.5 561.5C834.9 563.1 835.5 564.7 835.9 566.1C838.4 574.9 844.1 580.7 852.9 583.3C853.3 583.4 853.8 583.4 854.3 583.4C849.9 584.9 845.5 586.3 841.2 587.8C837 589.3 832.7 590.6 828.6 592.4C827.6 592.9 827.4 592.4 827.2 591.6C826.4 588.9 826.1 586.1 825.7 583.4C824.8 578 825.1 572.6 825.1 567.2C825 566 825.4 565.3 826.6 564.9C829.6 563.9 832.5 562.4 835.5 561.5Z" fill="#363638"/>
<path d="M991.5 518.8C1009.3 518.6 1024.3 533.5 1024 551.8C1023.8 569.7 1009.5 584.3 991.1 584.2C972.7 584.1 958.6 569.1 958.6 551.3C958.7 533.4 973.4 518.5 991.5 518.8Z" fill="black"/>
<path d="M961.4 551.1C961.7 534.5 975.3 521.3 991.7 521.5C1008.6 521.8 1021.5 535.4 1021.2 552.6C1020.9 568.7 1007 581.6 990.4 581.3C974.4 581 961.1 567.2 961.4 551.1Z" fill="#FEFEFE"/>
<path d="M991.5 528.4C1004.2 528.5 1014.5 538.9 1014.4 551.6C1014.2 564.4 1003.9 574.5 991.2 574.5C978.4 574.4 968.2 564 968.3 551.1C968.5 538.5 978.9 528.3 991.5 528.4Z" fill="black"/>
<path d="M1012.5 551.9C1011.9 564.2 1002.2 573.2 990 572.6C978.7 572 969.5 561.8 970.1 550.7C970.8 538.8 980.7 529.6 992.2 530.3C1003.8 530.9 1013.1 540.8 1012.5 551.9Z" fill="#FEFEFE"/>
<path d="M1048.7 491.9C1048.7 517.2 1028.2 537.7 1002.9 537.7C977.6 537.7 957.2 517.2 957.2 491.9C957.2 466.7 977.6 446.2 1002.9 446.2C1028.2 446.2 1048.7 466.7 1048.7 491.9Z" fill="url(#paint1_radial_0_1)"/>
<path d="M976.4 441.4C907 440.8 852.1 492.5 844.3 570.2L838.9 518.8C838.9 518.8 868.7 431.6 976.4 441.4Z" fill="url(#paint2_linear_0_1)"/>
<path d="M688.9 632.1C867 586.9 1044.9 586.9 1222.9 632.2V498C1044.7 493.3 866.8 493.3 689.1 498C688.2 503 688.1 627.5 688.9 632.1Z" fill="url(#paint3_linear_0_1)"/>
<path d="M1186.8 640C1161.9 724.8 1079.8 802.1 969.9 806.5C847 811.3 758.1 727.2 732.3 638.9L807.7 622.4C838.4 690.3 888.9 729.8 964.7 727.8C1035.8 725.9 1086.5 684 1111.5 623L1186.8 640Z" fill="url(#paint4_linear_0_1)"/>
<path d="M930.5 336.6C877.5 342.7 831.7 365.3 793.3 402.5C769.2 425.9 750.8 453.4 738.1 485.5H756.2C790 413.9 845.2 370.3 923.1 354.7V410.4C878.5 421.4 843.9 445.7 818.8 484.2H826.3C859.4 438.5 903.3 413.3 960 413.4C1016.7 413.4 1060.5 438.7 1093.3 484.2H1100.8C1075.7 445.7 1040.9 421.2 996.5 410.4V354.7C1074.7 370.4 1130 414.3 1163.4 485.6H1181.3C1151.3 404.9 1058.8 321.6 930.5 336.6Z" fill="url(#paint5_linear_0_1)"/>
<path d="M1200.6 643.1C1173.8 735 1084.8 817.2 967.7 820.5C837.9 824.1 744.9 734.3 718.6 641.9L724.6 640.5C743.4 698.5 778 744.2 829.6 776.7C871.4 803.1 917.5 816.5 966.8 813.7C1080.6 807.1 1154.8 746.9 1195.4 641.9L1200.6 643.1Z" fill="url(#paint6_linear_0_1)"/>
<path d="M937.6 321.9C878.5 326.8 827.4 350.6 784.6 391.5C757.1 417.8 736.8 449 723.2 485.1H729.2C772.8 388.7 845.4 334.4 951.6 327.5C1065.6 328 1143.5 382.9 1190.7 485.4H1196.1C1166.1 398 1069.5 310.8 937.6 321.9Z" fill="url(#paint7_linear_0_1)"/>
<path d="M678.5 650.2V482.9C685.5 482.9 692.2 482.9 698.9 482.9C689 482.7 679.2 481.7 669 481.5V652.2C686.8 655.8 704.2 659.4 721.6 663C707.3 658.7 693 654.5 678.5 650.2Z" fill="url(#paint8_linear_0_1)"/>
<path d="M856.3 502.2C856.2 507.8 856.2 510.6 856.2 516.2C844 516.4 831.8 516.633 819.6 516.9C819.6 525.167 819.6 533.433 819.6 541.7C830.4 541.1 841.2 540.567 852 540.1C852 545.7 852 548.5 852 554.1C841.2 554.767 830.4 555.533 819.6 556.4C819.6 565.067 819.567 573.767 819.5 582.5C831.7 581.167 843.9 579.933 856.1 578.8C856.1 584.4 856.1 587.2 856.1 592.8C837.3 594.8 818.6 597.2 799.9 600.1C799.9 567.5 799.9 534.867 799.9 502.2C818.7 502.2 837.5 502.2 856.3 502.2Z" fill="white"/>
<path d="M876.4 502.5C884.3 502.5 888.2 502.5 896.1 502.5C896.034 527.033 895.967 551.6 895.9 576.2C906.367 575.6 916.834 575.167 927.3 574.9C927.3 580.2 927.3 582.8 927.3 588C910.2 588.6 893.2 589.5 876.2 590.9C876.267 561.433 876.334 531.967 876.4 502.5Z" fill="white"/>
<path d="M940.6 587.7C940.6 559.3 940.634 530.9 940.7 502.5C948.6 502.5 952.5 502.5 960.4 502.5C960.4 530.833 960.4 559.167 960.4 587.5C952.5 587.5 948.5 587.6 940.6 587.7Z" fill="white"/>
<path d="M975.6 515.7C975.6 510.4 975.6 507.8 975.6 502.5C999.734 502.5 1023.83 502.5 1047.9 502.5C1047.9 508 1047.9 510.8 1047.9 516.3C1039.1 516.167 1030.3 516.033 1021.5 515.9C1021.57 540.433 1021.6 564.933 1021.6 589.4C1013.8 588.9 1009.9 588.7 1002 588.4C1002 564.2 1001.97 540 1001.9 515.8C993.167 515.733 984.4 515.7 975.6 515.7Z" fill="white"/>
<path d="M1119.3 502.2C1119.3 508.3 1119.3 511.3 1119.3 517.3C1107.1 517.033 1094.9 516.8 1082.7 516.6C1082.7 524.667 1082.73 532.733 1082.8 540.8C1093.53 541.333 1104.3 541.967 1115.1 542.7C1115.1 548.7 1115.1 551.7 1115.1 557.6C1104.37 556.667 1093.6 555.833 1082.8 555.1C1082.8 563.633 1082.8 572.167 1082.8 580.7C1095 581.967 1107.17 583.4 1119.3 585C1119.3 591 1119.3 594.1 1119.3 600.1C1100.6 597.2 1081.9 594.8 1063.2 592.8C1063.13 562.6 1063.07 532.4 1063 502.2C1081.73 502.2 1100.5 502.2 1119.3 502.2Z" fill="white"/>
<path d="M817.3 514.6V544.2L819.7 544C829.7 543.5 839.7 542.9 849.7 542.5L849.6 551.9C839.6 552.5 829.4 553.3 819.4 554.1L817.3 554.2V556.8C812.234 557.667 807.2 558.567 802.2 559.5V504.6H853.9V513.9C842.4 514.1 830.9 514.3 819.6 514.6H817.3Z" fill="url(#paint9_linear_0_1)"/>
<path d="M893.8 504.8L893.7 547.9C888.7 548.233 883.667 548.633 878.6 549.1L878.7 504.8H893.8Z" fill="url(#paint10_linear_0_1)"/>
<path d="M958.1 504.8V545.2C953.1 545.267 948.067 545.367 943 545.5V504.8H958.1Z" fill="url(#paint11_linear_0_1)"/>
<path d="M1021.5 513.6H1019.2V546.2C1014.33 546 1009.37 545.833 1004.3 545.7L1004.2 513.5H1001.9C994 513.4 985.9 513.4 977.9 513.4V504.8C1000.5 504.8 1023.07 504.8 1045.6 504.8V513.9C1037.6 513.8 1029.6 513.7 1021.5 513.6Z" fill="url(#paint12_linear_0_1)"/>
<path d="M1082.8 514.2H1080.4V543L1082.6 543.1C1092.7 543.6 1102.8 544.2 1112.8 544.8V555.1C1111.33 554.967 1109.87 554.833 1108.4 554.7C1096.5 552.8 1082 550.9 1065.4 549.4L1065.3 504.6H1117V515C1105.6 514.7 1094.1 514.5 1082.8 514.2Z" fill="url(#paint13_linear_0_1)"/>
<path d="M1109.1 391.1C1107.5 389.5 1105.1 388.7 1102.2 388.7C1101.73 388.7 1101.27 388.733 1100.8 388.8C1100.67 388.733 1100.5 388.7 1100.3 388.7H1099.9C1099.83 388.633 1099.77 388.533 1099.7 388.4C1098.7 387.2 1097.2 386.4 1095.7 386.4H1091.8C1090.4 386.4 1089.1 387 1088.2 388C1087.2 387 1085.9 386.4 1084.5 386.4H1080.7C1078.9 386.4 1077.2 387.4 1076.3 389C1075.4 388.8 1074.4 388.7 1073.3 388.7C1070.7 388.7 1068.8 389.1 1067.2 389.7C1066.1 389.1 1064.7 388.7 1063 388.7C1062.4 388.7 1061.8 388.733 1061.2 388.8C1061 388.733 1060.83 388.7 1060.7 388.7H1056.8C1056 388.7 1055.2 389 1054.5 389.3C1053.2 388.9 1051.8 388.7 1049.9 388.7C1049.23 388.7 1048.57 388.733 1047.9 388.8C1047.83 388.667 1047.77 388.533 1047.7 388.4C1046.7 387.2 1045.2 386.4 1043.6 386.4H1039.8C1039.67 386.467 1039.5 386.5 1039.3 386.5L1039.4 386.4C1039.6 385.533 1039.7 384.7 1039.7 383.9C1039.7 382.5 1039.3 376 1029.9 376C1029.23 376 1028.6 376.033 1028 376.1C1027.93 375.967 1027.87 375.867 1027.8 375.8C1027.8 375.8 1027.77 375.767 1027.7 375.7C1027.83 375.5 1027.93 375.267 1028 375C1028.2 374.733 1028.33 374.4 1028.4 374L1028.7 373.2C1028.9 372.333 1029 371.467 1029 370.6C1029 369.3 1028.6 362.8 1019.2 362.8C1018 362.8 1016.93 362.9 1016 363.1C1015.87 362.9 1015.73 362.7 1015.6 362.5C1014.7 361.3 1013.2 360.5 1011.6 360.5H1007.8C1007.27 360.5 1006.77 360.567 1006.3 360.7C1005.9 360.567 1005.43 360.5 1004.9 360.5H1001.1C1000.83 360.5 1000.6 360.533 1000.4 360.6C1000.2 360.6 1000 360.5 999.9 360.5H996C994.2 360.5 992.6 361.5 991.7 363C990.834 362.867 989.834 362.8 988.7 362.8C986.3 362.8 984.3 363.2 982.8 363.9C982.9 362.7 982.5 361.4 981.8 360.4C980.8 359.2 979.3 358.4 977.7 358.4H975.7C974.2 358.4 972.7 359.2 971.8 360.3C970.8 359.1 969.4 358.4 967.8 358.4H942.1C936.8 358.4 932.3 360 929 363.1L931.9 352.1C932.4 350.2 932.1 348.2 931.1 346.5C930.1 344.8 928.6 343.6 926.7 343.1L884.6 331.8C884 331.667 883.367 331.6 882.7 331.6C879.4 331.6 876.4 333.8 875.6 337.1L869.9 358.4H844.9C842.7 358.4 840.7 359.9 840 362C839.4 363.9 840 365.9 841.4 367.2C839.6 367.7 838.2 369 837.7 370.9L829.2 402.4C828.8 404 829.1 405.6 830.1 406.8C831 408.1 832.5 408.8 834.1 408.8H856.5L854.4 416.4C853.9 418.3 854.2 420.3 855.2 422C856.1 423.7 857.7 424.9 859.6 425.4L901.7 436.6C902.3 436.8 902.934 436.9 903.6 436.9C906.9 436.9 909.8 434.6 910.7 431.4L917.7 405.1C918.3 404.7 918.867 404.233 919.4 403.7C919.8 404.3 920.2 404.8 920.6 405.2C923 407.6 926.6 408.8 931.3 408.8H957.1C958.6 408.8 960 408.1 961 407C961.9 408.2 963.4 408.8 964.9 408.8H967C969.2 408.8 971.2 407.4 971.8 405.2C973.3 406.5 975.5 407.4 979.1 407.4C980.7 407.4 982.1 407.2 983.3 406.9C983.967 407.167 984.667 407.3 985.4 407.3H989.2C989.534 407.3 989.867 407.267 990.2 407.2C990.534 407.267 990.867 407.3 991.2 407.3H995C995.734 407.3 996.434 407.167 997.1 406.9C998.1 407.2 999.4 407.4 1001 407.4C1001.53 407.4 1002.03 407.367 1002.5 407.3C1002.63 407.3 1002.77 407.3 1002.9 407.3H1006.8C1007.13 407.3 1007.47 407.267 1007.8 407.2C1008.13 407.267 1008.47 407.3 1008.8 407.3H1012.6C1012.93 407.3 1013.27 407.267 1013.6 407.2C1013.93 407.267 1014.27 407.3 1014.6 407.3H1018.5C1018.83 407.3 1019.17 407.267 1019.5 407.2C1019.63 407.267 1019.8 407.3 1020 407.3C1020.13 407.567 1020.27 407.833 1020.4 408.1C1021.4 409.3 1022.9 410.1 1024.5 410.1H1028.3C1030.3 410.1 1032 409 1032.9 407.3C1033.57 407.167 1034.2 407 1034.8 406.8C1035.47 407.133 1036.2 407.3 1037 407.3H1040.8C1041.6 407.3 1042.4 407.1 1043.2 406.7C1044.47 407.167 1045.97 407.4 1047.7 407.4C1049.5 407.4 1051 407.2 1052.3 406.8C1053 407.1 1053.8 407.3 1054.6 407.3H1058.4C1058.73 407.3 1059.07 407.267 1059.4 407.2C1059.73 407.267 1060.07 407.3 1060.4 407.3H1064.2C1065 407.3 1065.8 407.1 1066.5 406.8C1067.77 407.2 1069.23 407.4 1070.9 407.4C1072.8 407.4 1074.3 407.2 1075.6 406.8C1076.33 407.133 1077.07 407.3 1077.8 407.3H1081.7C1082.03 407.3 1082.37 407.267 1082.7 407.2C1083.03 407.267 1083.37 407.3 1083.7 407.3H1087.5C1087.77 407.3 1088.03 407.3 1088.3 407.3C1088.6 407.3 1088.8 407.3 1089 407.3C1089.13 407.567 1089.3 407.833 1089.5 408.1C1090.4 409.3 1091.9 410.1 1093.5 410.1H1097.4C1099.3 410.1 1101 409 1101.9 407.3C1106.4 406.7 1109.5 404 1110.6 399.7L1110.8 399C1111.1 398.1 1111.2 397.3 1111.2 396.5C1111.2 394.4 1110.5 392.5 1109.1 391.1Z" fill="black"/>
<path fill-rule="evenodd" clip-rule="evenodd" d="M993 372.7H986.4L986.2 373.3C986.134 373.567 986.1 373.767 986.1 373.9C986.1 374.367 986.367 374.6 986.9 374.6C987.567 374.6 988 374.267 988.2 373.6H992.6C991.667 375.467 989.6 376.4 986.4 376.4C983.267 376.4 981.7 375.467 981.7 373.6C981.7 373.267 981.767 372.9 981.9 372.5L982.1 371.8C982.767 369.2 984.967 367.9 988.7 367.9C991.834 367.9 993.4 368.8 993.4 370.6C993.4 371 993.334 371.4 993.2 371.8L993 372.7ZM988.9 371.2L989 370.9C989 370.7 989 370.533 989 370.4C989 369.867 988.767 369.6 988.3 369.6C987.634 369.6 987.167 370.033 986.9 370.9V371.2H988.9Z" fill="white"/>
<path d="M997 376.3H993.2L996 365.6H999.9L997 376.3Z" fill="white"/>
<path d="M1002.1 376.3H998.2L1000.5 367.9H1004.3L1002.1 376.3ZM1004.5 367.3H1000.7L1001.2 365.6H1005L1004.5 367.3Z" fill="white"/>
<path d="M1012.2 370.2H1010.4L1008.7 376.3H1004.9L1006.5 370.2H1004.7L1005.3 367.9H1007.2L1007.8 365.6H1011.6L1011 367.9H1012.8L1012.2 370.2Z" fill="white"/>
<path fill-rule="evenodd" clip-rule="evenodd" d="M1023.5 372.7H1016.9L1016.8 373.3C1016.73 373.567 1016.7 373.767 1016.7 373.9C1016.7 374.367 1016.93 374.6 1017.4 374.6C1018.07 374.6 1018.5 374.267 1018.7 373.6H1023.2C1022.2 375.467 1020.1 376.4 1016.9 376.4C1013.77 376.4 1012.2 375.467 1012.2 373.6C1012.2 373.267 1012.27 372.9 1012.4 372.5L1012.6 371.8C1013.27 369.2 1015.47 367.9 1019.2 367.9C1022.33 367.9 1023.9 368.8 1023.9 370.6C1023.9 371 1023.87 371.4 1023.8 371.8L1023.5 372.7ZM1019.3 371.2L1019.4 370.9C1019.47 370.7 1019.5 370.533 1019.5 370.4C1019.5 369.867 1019.23 369.6 1018.7 369.6C1018.03 369.6 1017.6 370.033 1017.4 370.9L1017.3 371.2H1019.3Z" fill="white"/>
<path fill-rule="evenodd" clip-rule="evenodd" d="M988.9 385.7C988.167 388.367 986.234 389.7 983.1 389.7C982.367 389.7 981.767 389.567 981.3 389.3L981.2 389.6H977.4L980.3 378.9H984.1L983.4 381.5C984 381.233 984.634 381.1 985.3 381.1C987.9 381.1 989.2 381.967 989.2 383.7C989.2 384.1 989.167 384.533 989.1 385L988.9 385.7ZM984 386.6L984.7 384.2C984.767 383.933 984.8 383.733 984.8 383.6C984.8 383.133 984.534 382.9 984 382.9C983.334 382.9 982.9 383.333 982.7 384.2L982 386.6C981.934 386.8 981.9 386.967 981.9 387.1C981.9 387.633 982.167 387.9 982.7 387.9C983.367 387.9 983.8 387.467 984 386.6Z" fill="white"/>
<path fill-rule="evenodd" clip-rule="evenodd" d="M998.8 389.6H995L995.101 389.3C994.501 389.567 993.834 389.7 993.101 389.7C990.367 389.7 989 389.067 989 387.8C989 387.6 989.034 387.4 989.101 387.2C989.301 386.267 989.901 385.6 990.901 385.2C991.501 385 992.434 384.833 993.701 384.7C994.967 384.567 995.9 384.4 996.5 384.2V383.9C996.567 383.833 996.601 383.733 996.601 383.6C996.601 383.133 996.267 382.9 995.601 382.9C994.867 382.9 994.401 383.233 994.201 383.9H990.101C991.101 382.033 993.101 381.1 996.101 381.1C998.901 381.1 1000.3 381.967 1000.3 383.7C1000.3 384.033 1000.23 384.4 1000.1 384.8L998.8 389.6ZM995.701 387.1L995.901 386C995.701 386.133 995.367 386.233 994.901 386.3C994.434 386.3 994.101 386.367 993.901 386.5C993.567 386.633 993.367 386.833 993.3 387.1C993.234 387.233 993.201 387.333 993.201 387.4C993.201 387.733 993.534 387.9 994.201 387.9C995.001 387.9 995.501 387.633 995.701 387.1Z" fill="white"/>
<path d="M1008.8 383.5H1006.9L1005.3 389.6H1001.5L1003.1 383.5H1001.2L1001.8 381.2H1003.7L1004.3 378.9H1008.1L1007.5 381.2H1009.4L1008.8 383.5Z" fill="white"/>
<path d="M1017.6 383.5H1015.7L1014.1 389.6H1010.2L1011.9 383.5H1010L1010.6 381.2H1012.5L1013.1 378.9H1016.9L1016.3 381.2H1018.2L1017.6 383.5Z" fill="white"/>
<path d="M1020.9 389.6H1017L1019.9 378.9H1023.7L1020.9 389.6Z" fill="white"/>
<path fill-rule="evenodd" clip-rule="evenodd" d="M1034.2 385.9H1027.6L1027.5 386.6C1027.43 386.8 1027.4 386.967 1027.4 387.1C1027.4 387.633 1027.63 387.9 1028.1 387.9C1028.77 387.9 1029.2 387.533 1029.4 386.8H1033.9C1032.9 388.733 1030.8 389.7 1027.6 389.7C1024.47 389.7 1022.9 388.767 1022.9 386.9C1022.9 386.5 1022.97 386.1 1023.1 385.7L1023.3 385C1023.97 382.4 1026.17 381.1 1029.9 381.1C1033.03 381.1 1034.6 382.033 1034.6 383.9C1034.6 384.233 1034.57 384.6 1034.5 385L1034.2 385.9ZM1030 384.4L1030.1 384.1C1030.17 383.9 1030.2 383.733 1030.2 383.6C1030.2 383.133 1029.93 382.9 1029.4 382.9C1028.73 382.9 1028.3 383.3 1028.1 384.1L1028 384.4H1030Z" fill="white"/>
<path d="M985.4 399.2C984.467 401.267 982.367 402.3 979.1 402.3C975.967 402.3 974.4 401.367 974.4 399.5C974.4 399.167 974.467 398.8 974.6 398.4L974.7 397.7C975.434 395.1 977.667 393.8 981.4 393.8C984.534 393.8 986.1 394.7 986.1 396.5C986.1 396.633 986.1 396.733 986.1 396.8H981.6C981.667 396.6 981.7 396.433 981.7 396.3C981.7 395.833 981.434 395.6 980.9 395.6C980.234 395.6 979.8 396 979.6 396.8L978.9 399.3C978.834 399.5 978.8 399.667 978.8 399.8C978.8 400.267 979.067 400.5 979.6 400.5C980.267 400.5 980.7 400.067 980.9 399.2H985.4Z" fill="white"/>
<path d="M995 402.2H991.2L992.7 396.8C992.767 396.6 992.8 396.4 992.8 396.2C992.8 395.733 992.534 395.5 992 395.5C991.334 395.5 990.9 395.933 990.7 396.8L989.2 402.2H985.4L988.2 391.5H992.1L991.4 394.1C992 393.9 992.8 393.8 993.8 393.8C995.667 393.8 996.6 394.5 996.6 395.9C996.6 396.3 996.534 396.733 996.4 397.2L995 402.2Z" fill="white"/>
<path fill-rule="evenodd" clip-rule="evenodd" d="M1006.8 402.2H1002.9L1003 401.9C1002.4 402.167 1001.73 402.3 1001 402.3C998.267 402.3 996.9 401.667 996.9 400.4C996.9 400.267 996.934 400.1 997 399.9C997.267 398.967 997.867 398.3 998.8 397.9C999.4 397.7 1000.33 397.533 1001.6 397.4C1002.87 397.267 1003.8 397.067 1004.4 396.8L1004.5 396.6C1004.5 396.467 1004.5 396.367 1004.5 396.3C1004.5 395.833 1004.2 395.6 1003.6 395.6C1002.8 395.6 1002.3 395.933 1002.1 396.6H998.1C999.034 394.733 1001 393.8 1004 393.8C1006.8 393.8 1008.2 394.633 1008.2 396.3C1008.2 396.7 1008.13 397.1 1008 397.5L1006.8 402.2ZM1003.7 399.7L1004 398.6C1003.8 398.667 1003.47 398.733 1003 398.8C1002.53 398.867 1002.17 398.933 1001.9 399C1001.57 399.2 1001.37 399.433 1001.3 399.7C1001.3 399.767 1001.3 399.833 1001.3 399.9C1001.3 400.3 1001.63 400.5 1002.3 400.5C1003.1 400.5 1003.57 400.233 1003.7 399.7Z" fill="white"/>
<path d="M1024.3 402.2H1020.5L1022 396.8C1022 396.6 1022 396.433 1022 396.3C1022 395.767 1021.77 395.5 1021.3 395.5C1020.63 395.5 1020.17 395.933 1019.9 396.8L1018.5 402.2H1014.6L1016.1 396.8C1016.17 396.6 1016.2 396.433 1016.2 396.3C1016.2 395.767 1015.93 395.5 1015.4 395.5C1014.73 395.5 1014.3 395.933 1014.1 396.8L1012.6 402.2H1008.8L1011.1 393.8H1014.9L1014.8 394.1C1015.4 393.9 1016.23 393.8 1017.3 393.8C1018.5 393.8 1019.3 394.1 1019.7 394.7C1020.43 394.1 1021.57 393.8 1023.1 393.8C1024.97 393.8 1025.9 394.5 1025.9 395.9C1025.9 396.3 1025.83 396.733 1025.7 397.2L1024.3 402.2Z" fill="white"/>
<path fill-rule="evenodd" clip-rule="evenodd" d="M1036.7 398.4C1035.97 401 1034.03 402.3 1030.9 402.3C1030.17 402.3 1029.57 402.2 1029.1 402L1028.3 405H1024.5L1027.5 393.8H1031.3L1031.2 394.1C1031.8 393.9 1032.43 393.8 1033.1 393.8C1035.77 393.8 1037.07 394.667 1037 396.4C1037 396.8 1036.97 397.233 1036.9 397.7L1036.7 398.4ZM1032.5 396.8C1032.57 396.6 1032.6 396.433 1032.6 396.3C1032.6 395.833 1032.33 395.6 1031.8 395.6C1031.13 395.6 1030.7 396 1030.5 396.8L1029.8 399.3C1029.73 399.5 1029.7 399.667 1029.7 399.8C1029.7 400.267 1029.97 400.5 1030.5 400.5C1031.17 400.5 1031.6 400.1 1031.8 399.3L1032.5 396.8Z" fill="white"/>
<path d="M1040.8 402.2H1037L1039.2 393.8H1043L1040.8 402.2ZM1043.2 393.3H1039.4L1039.9 391.5H1043.7L1043.2 393.3Z" fill="white"/>
<path fill-rule="evenodd" clip-rule="evenodd" d="M1054.3 398.4C1053.57 401 1051.37 402.3 1047.7 402.3C1044.5 402.3 1042.93 401.367 1043 399.5C1043 399.167 1043.03 398.8 1043.1 398.4L1043.3 397.7C1044.03 395.1 1046.23 393.8 1049.9 393.8C1053.03 393.8 1054.6 394.733 1054.6 396.6C1054.6 396.933 1054.57 397.3 1054.5 397.7L1054.3 398.4ZM1049.5 399.3L1050.1 396.8C1050.17 396.6 1050.2 396.433 1050.2 396.3C1050.2 395.833 1049.97 395.6 1049.5 395.6C1048.77 395.6 1048.3 396 1048.1 396.8L1047.5 399.3C1047.43 399.5 1047.4 399.667 1047.4 399.8C1047.4 400.267 1047.63 400.5 1048.1 400.5C1048.77 400.5 1049.23 400.1 1049.5 399.3Z" fill="white"/>
<path d="M1064.2 402.2H1060.4L1061.9 396.8C1061.97 396.6 1062 396.433 1062 396.3C1062 395.767 1061.73 395.5 1061.2 395.5C1060.53 395.5 1060.1 395.933 1059.9 396.8L1058.4 402.2H1054.6L1056.8 393.8H1060.7L1060.6 394.1C1061.2 393.9 1062 393.8 1063 393.8C1064.87 393.8 1065.8 394.5 1065.8 395.9C1065.8 396.3 1065.73 396.733 1065.6 397.2L1064.2 402.2Z" fill="white"/>
<path d="M1077.9 396.4H1073.7C1073.7 396.333 1073.7 396.233 1073.7 396.1C1073.7 395.7 1073.43 395.5 1072.9 395.5C1072.03 395.5 1071.6 395.767 1071.6 396.3C1071.6 396.567 1072.1 396.8 1073.1 397C1074.57 397.267 1075.5 397.5 1075.9 397.7C1076.7 398.033 1077.1 398.533 1077.1 399.2C1077.1 399.333 1077.07 399.5 1077 399.7C1076.53 401.433 1074.5 402.3 1070.9 402.3C1067.63 402.3 1066.03 401.4 1066.1 399.6H1070.4C1070.4 399.733 1070.4 399.833 1070.4 399.9C1070.4 400.3 1070.7 400.5 1071.3 400.5C1072.17 400.5 1072.6 400.267 1072.6 399.8C1072.6 399.467 1072.13 399.233 1071.2 399.1C1069.67 398.833 1068.7 398.6 1068.3 398.4C1067.5 398.067 1067.1 397.567 1067.1 396.9C1067.1 396.767 1067.13 396.6 1067.2 396.4C1067.67 394.667 1069.7 393.8 1073.3 393.8C1076.5 393.8 1078.03 394.667 1077.9 396.4Z" fill="white"/>
<path d="M1087.5 402.2H1083.7L1085.1 396.8C1085.17 396.6 1085.2 396.4 1085.2 396.2C1085.2 395.733 1084.97 395.5 1084.5 395.5C1083.83 395.5 1083.37 395.933 1083.1 396.8L1081.7 402.2H1077.8L1080.7 391.5H1084.5L1083.8 394.1C1084.4 393.9 1085.23 393.8 1086.3 393.8C1088.17 393.8 1089.1 394.5 1089.1 395.9C1089.1 396.3 1089.03 396.733 1088.9 397.2L1087.5 402.2Z" fill="white"/>
<path d="M1092.8 402.2H1089L1091.2 393.8H1095L1092.8 402.2ZM1095.3 393.3H1091.4L1091.9 391.5H1095.7L1095.3 393.3Z" fill="white"/>
<path fill-rule="evenodd" clip-rule="evenodd" d="M1105.7 398.4C1105.03 401 1103.1 402.3 1099.9 402.3C1099.23 402.3 1098.67 402.2 1098.2 402L1097.4 405H1093.5L1096.5 393.8H1100.3V394.1C1100.9 393.9 1101.53 393.8 1102.2 393.8C1104.8 393.8 1106.1 394.667 1106.1 396.4C1106.1 396.8 1106.03 397.233 1105.9 397.7L1105.7 398.4ZM1101.5 396.8C1101.57 396.6 1101.6 396.433 1101.6 396.3C1101.6 395.833 1101.37 395.6 1100.9 395.6C1100.23 395.6 1099.77 396 1099.5 396.8L1098.9 399.3C1098.83 399.5 1098.8 399.667 1098.8 399.8C1098.8 400.267 1099.03 400.5 1099.5 400.5C1100.23 400.5 1100.7 400.1 1100.9 399.3L1101.5 396.8Z" fill="white"/>
<path fill-rule="evenodd" clip-rule="evenodd" d="M877.5 384.3L875.2 392.9H855.5L853.6 400.1H865.4L863.1 408.7H834.1L842.6 377.2H857.2L844.9 368.5H873.8L871.5 377.2H859.8L857.8 384.3H877.5ZM869.1 400.1H873.4L871.1 408.7H866.8L869.1 400.1ZM881.9 368.6L879.6 377.2H875.2L877.5 368.6H881.9Z" fill="white"/>
<path fill-rule="evenodd" clip-rule="evenodd" d="M925.4 369.9C925.4 370.833 925.234 371.867 924.9 373C923.767 377.4 921.734 380.267 918.8 381.6C917.6 382.133 916.267 382.433 914.8 382.5L909.2 403.4C908.067 403.6 906.834 403.7 905.5 403.7H874.3L882.8 372.2H897.4L885.1 363.5H916.3C917.567 363.5 918.734 363.6 919.8 363.8C921.134 364.067 922.234 364.5 923.1 365.1C924.634 366.167 925.4 367.767 925.4 369.9ZM903.4 388.5C903.4 386.367 901.9 385.3 898.9 385.3H896.4L893.8 395.1H896.3C900.034 395.1 902.334 393.467 903.2 390.2C903.334 389.6 903.4 389.033 903.4 388.5ZM907.2 374.9C907.2 373.1 905.6 372.2 902.4 372.2H899.9L897.9 379.8H900.4C904.134 379.8 906.334 378.533 907 376C907.134 375.6 907.2 375.233 907.2 374.9ZM920.3 388.4C920.3 389.733 920.067 391.3 919.6 393.1C918.467 397.3 916.367 400.267 913.3 402L918.2 383.5C919.6 384.5 920.3 386.133 920.3 388.4Z" fill="white"/>
<path d="M957.1 403.7H931.3C925.367 403.7 922.433 401.367 922.5 396.7C922.5 395.5 922.7 394.1 923.1 392.5L927.9 374.8C929.9 367.267 934.634 363.5 942.1 363.5H967.8L965.5 372.2H951.4C947.6 372.2 945.2 374.067 944.2 377.8L941.1 389.5C940.9 390.3 940.8 391 940.8 391.6C940.8 393.933 942.267 395.1 945.2 395.1H959.4L957.1 403.7Z" fill="white"/>
<path fill-rule="evenodd" clip-rule="evenodd" d="M913.3 402L905.8 430.1C905.5 431.3 904.2 432 903 431.7L861 420.5C859.7 420.2 859 418.9 859.3 417.7L863.1 403.7H866.8L864.6 412L904.1 422.5L909.2 403.4C910.734 403.133 912.1 402.667 913.3 402ZM883.9 418.7C882.3 418.3 880.6 419.3 880.1 420.9C879.7 422.6 880.7 424.3 882.3 424.7C884 425.2 885.7 424.2 886.1 422.5C886.6 420.9 885.6 419.2 883.9 418.7ZM927 350.8L923.1 365.1L918.8 381.6L918.2 383.5C917.334 382.9 916.2 382.567 914.8 382.5L919.8 363.8L922.7 353L883.1 342.4L877.5 363.5H873.8L880.5 338.4C880.8 337.2 882.1 336.4 883.3 336.8L925.3 348C926.6 348.3 927.3 349.5 927 350.8ZM910.6 345.9L897.1 342.3C896.6 342.1 896.1 342.5 895.9 343C895.8 343.5 896.1 344 896.6 344.2L910.1 347.7C910.167 347.767 910.234 347.8 910.3 347.8C910.8 347.8 911.2 347.5 911.3 347.1C911.4 346.5 911.1 346 910.6 345.9ZM875.2 372.2L873.3 379.3L871 387.9H867.3L869.6 379.3L871.5 372.2H875.2ZM865.4 395.1H869.1L871 387.9H867.3L865.4 395.1Z" fill="#E00016"/>
<path d="M869.1 395.1L866.8 403.7H863.1L865.4 395.1H869.1Z" fill="white"/>
<path d="M877.5 363.5L875.2 372.2H871.5L873.8 363.5H877.5Z" fill="white"/>
<path d="M918.2 383.5L913.3 402C912.1 402.667 910.734 403.133 909.2 403.4L914.8 382.5C916.2 382.567 917.334 382.9 918.2 383.5Z" fill="white"/>
<path d="M977.7 363.5L967 403.7H964.9L975.7 363.5H977.7Z" fill="white"/>
<path d="M816.1 711.5C814.4 702.8 812.9 695.1 811.4 687.3C803.3 685.7 795.7 684.3 787.3 682.7C788.9 691.1 790.4 698.8 791.9 706.8C799.8 708.4 807.4 709.8 816.1 711.5Z" fill="black"/>
<path d="M1133.2 682.7C1124.5 684.4 1116.8 685.9 1109 687.4C1107.4 695.4 1106 703.1 1104.4 711.4C1113.1 709.9 1120.9 708.7 1128.6 706.6C1130.1 698.7 1131.6 691.1 1133.2 682.7Z" fill="black"/>
<defs>
<linearGradient id="paint0_linear_0_1" x1="1548.4" y1="488.5" x2="1532.6" y2="747.3" gradientUnits="userSpaceOnUse">
<stop stop-color="#C79317"/>
<stop offset="0.5" stop-color="#EEE64A"/>
<stop offset="1" stop-color="#C79416"/>
</linearGradient>
<radialGradient id="paint1_radial_0_1" cx="0" cy="0" r="1" gradientUnits="userSpaceOnUse" gradientTransform="translate(1003.8 484.9) scale(48.8 48.8)">
<stop stop-color="white"/>
<stop offset="1" stop-color="#F9CDCD" stop-opacity="0"/>
</radialGradient>
<linearGradient id="paint2_linear_0_1" x1="782.2" y1="537" x2="921" y2="329.2" gradientUnits="userSpaceOnUse">
<stop stop-color="white"/>
<stop offset="1" stop-color="#F9CDCD" stop-opacity="0"/>
</linearGradient>
<linearGradient id="paint3_linear_0_1" x1="973.1" y1="478.5" x2="974.5" y2="578.2" gradientUnits="userSpaceOnUse">
<stop offset="0.067" stop-color="#811414"/>
<stop offset="1" stop-color="#E30404"/>
</linearGradient>
<linearGradient id="paint4_linear_0_1" x1="1005.2" y1="625.9" x2="996.7" y2="811.6" gradientUnits="userSpaceOnUse">
<stop stop-color="#C79317"/>
<stop offset="0.5" stop-color="#EEE64A"/>
<stop offset="1" stop-color="#C79416"/>
</linearGradient>
<linearGradient id="paint5_linear_0_1" x1="927.6" y1="479.4" x2="947.5" y2="29.2" gradientUnits="userSpaceOnUse">
<stop stop-color="#C79317"/>
<stop offset="0.5" stop-color="#EEE64A"/>
<stop offset="1" stop-color="#C79416"/>
</linearGradient>
<linearGradient id="paint6_linear_0_1" x1="1002.1" y1="627.1" x2="993.6" y2="811.3" gradientUnits="userSpaceOnUse">
<stop stop-color="#C79317"/>
<stop offset="0.5" stop-color="#EEE64A"/>
<stop offset="1" stop-color="#C79416"/>
</linearGradient>
<linearGradient id="paint7_linear_0_1" x1="924" y1="479.4" x2="943.9" y2="29.3" gradientUnits="userSpaceOnUse">
<stop stop-color="#C79317"/>
<stop offset="0.5" stop-color="#EEE64A"/>
<stop offset="1" stop-color="#C79416"/>
</linearGradient>
<linearGradient id="paint8_linear_0_1" x1="1021.3" y1="452" x2="1005" y2="719.4" gradientUnits="userSpaceOnUse">
<stop stop-color="#C79317"/>
<stop offset="0.5" stop-color="#EEE64A"/>
<stop offset="1" stop-color="#C79416"/>
</linearGradient>
<linearGradient id="paint9_linear_0_1" x1="796.2" y1="536.3" x2="800.2" y2="488.7" gradientUnits="userSpaceOnUse">
<stop stop-color="#B6B3BA"/>
<stop offset="1" stop-color="white"/>
</linearGradient>
<linearGradient id="paint10_linear_0_1" x1="818.7" y1="538.2" x2="822.7" y2="490.6" gradientUnits="userSpaceOnUse">
<stop stop-color="#B6B3BA"/>
<stop offset="1" stop-color="white"/>
</linearGradient>
<linearGradient id="paint11_linear_0_1" x1="892.4" y1="544.4" x2="896.4" y2="496.9" gradientUnits="userSpaceOnUse">
<stop stop-color="#B6B3BA"/>
<stop offset="1" stop-color="white"/>
</linearGradient>
<linearGradient id="paint12_linear_0_1" x1="994.7" y1="556.3" x2="999" y2="505.8" gradientUnits="userSpaceOnUse">
<stop stop-color="#B6B3BA"/>
<stop offset="1" stop-color="white"/>
</linearGradient>
<linearGradient id="paint13_linear_0_1" x1="1061.5" y1="563.3" x2="1065.8" y2="512" gradientUnits="userSpaceOnUse">
<stop stop-color="#B6B3BA"/>
<stop offset="1" stop-color="white"/>
</linearGradient>
</defs>
</svg>
