<svg width="1921" height="1080" viewBox="0 0 1921 1080" fill="none" xmlns="http://www.w3.org/2000/svg">
<path d="M0.600098 1080H1920.6V0H0.600098V1080Z" fill="none"/>
<path d="M1265.4 471.1V641.3C1265.4 647.4 1261 652.7 1255 654L1203.9 664.5H1203.6C1187 702.6 1160.6 737.2 1127.1 764.2C1117.2 772.2 1106.9 779.4 1096.1 785.8C1095.37 786.2 1094.6 786.633 1093.8 787.1C1093.6 787.233 1093.4 787.367 1093.2 787.5C1092.67 787.767 1092.17 788.067 1091.7 788.4C1091.37 788.533 1091.03 788.7 1090.7 788.9C1090.63 788.967 1090.53 789 1090.4 789C1090.4 789.067 1090.37 789.1 1090.3 789.1C1055.3 808.8 1016.4 820.1 975.7 822.2C975.3 822.267 974.867 822.3 974.4 822.3C973.533 822.367 972.634 822.4 971.7 822.4C971.567 822.4 971.4 822.4 971.2 822.4L970.3 822.5C970.167 822.5 970.033 822.5 969.9 822.5C969.567 822.5 969.267 822.5 969 822.5C968.8 822.5 968.567 822.5 968.3 822.5C968.234 822.5 968.167 822.5 968.1 822.5C967.033 822.567 966 822.6 965 822.6C963.733 822.6 962.467 822.6 961.2 822.6H961C959.933 822.6 958.834 822.6 957.7 822.6C956.567 822.6 955.4 822.567 954.2 822.5C954.067 822.5 953.934 822.5 953.8 822.5C953.6 822.5 953.434 822.5 953.3 822.5C952.5 822.5 951.7 822.467 950.9 822.4C893.2 820.4 839.3 800.4 794.6 764.4C760.9 737.2 734.3 702.4 717.7 664.3L667.4 653.9C661.3 652.7 657 647.4 657 641.2V470.5C657 467 658.4 463.7 660.9 461.3C663.3 458.9 666.6 457.5 670 457.5H670.2C675.6 457.6 680.8 457.9 685.8 458.2C688.8 458.4 702.7 458.6 714.3 458.7C714.434 458.7 714.6 458.7 714.8 458.7C753.9 361 849.5 292 961.2 292C1013.2 292 1061.8 307 1102.7 332.9C1153.3 365.1 1189.1 412.2 1206.7 458.1H1252.4C1259.5 458.1 1265.4 463.9 1265.4 471.1Z" fill="black"/>
<path d="M1243.1 639.2C1228.7 643.467 1214.33 647.733 1200 652C1217.4 648.4 1234.8 644.9 1252.4 641.2V471.1C1242.3 471.1 1232.5 471.1 1222.7 471.1C1222.7 471.367 1222.7 471.667 1222.7 472C1229.4 472 1236.1 472 1243.1 472V639.2Z" fill="url(#paint0_linear_0_1)"/>
<path d="M1096.5 557.3C1097 626 1040.7 692.7 960.3 693.2C884.6 693.6 822.6 632.8 822.9 556.3C823.2 477.3 886.8 420.4 958.2 419.7C1034.2 419 1096.9 480.5 1096.5 557.3Z" fill="#FFB902"/>
<path d="M872.2 570.2C884.8 566.9 897.5 564.3 910.4 562.5C919 561.2 927.7 560.4 936.4 559.8C939.7 559.6 943.1 559.5 946.4 559.3C947.5 559.2 947.8 559.8 948.1 560.5C954 573.2 963.5 582.1 976.9 586.3C993 591.3 1007.8 588.2 1021 577.7C1024.6 574.9 1027.6 571.6 1030.1 567.8C1030.7 566.9 1031.3 566.6 1032.5 566.8C1049 570.3 1065 575.4 1080.8 581.3C1083.2 582.3 1085.6 583.3 1088.1 584.1C1089.4 584.5 1089.5 585.2 1089.2 586.3C1087.8 591.7 1086.3 597.1 1084.3 602.4C1081.5 609.7 1078.3 616.8 1074.2 623.5C1073.8 624.1 1073.3 624.7 1072.8 625.3C1071.4 627.4 1069.4 628.7 1067.5 630.3C1062.43 634.9 1056.97 639.067 1051.1 642.8C1040.7 649.3 1029.5 654.1 1017.6 657.3C1010.4 659.233 1003.1 660.433 995.7 660.9C975.7 662.2 956.5 658.9 938.2 650.7C929.6 646.8 921.5 642 914.1 636.2C906.6 630.4 899.8 623.8 893.9 616.3C883.5 603.1 876.1 588.5 871.8 572.2C871.6 571.5 871.3 570.8 872.2 570.2Z" fill="#FEFEFE"/>
<path d="M872.2 570.2C871.8 570.7 872 571.2 872.1 571.8C875 583 879.5 593.6 885.5 603.4C892.8 615.5 901.9 625.9 913 634.8C927.9 646.6 944.7 654.4 963.3 658.3C969.3 659.6 975.5 660.3 981.6 660.6C997.4 661.3 1012.8 659 1027.6 653.7C1036.7 650.5 1045.2 646.2 1053.3 640.8C1059.6 636.6 1065.3 631.7 1071 626.7C1071.6 626.2 1072.2 625.8 1072.8 625.3C1071.8 628.1 1069.8 630.4 1068.2 632.8C1062.9 640.5 1056.6 647.4 1049.7 653.7C1042 660.9 1033.4 667.1 1024.2 672.2C1013.4 678.2 1002.03 682.6 990.1 685.4C982.967 687 975.766 688.067 968.5 688.6C965.4 688.8 962.2 688.8 959.1 688.9C954.8 689 950.4 688.6 946.1 688.2C934.233 687 922.7 684.233 911.5 679.9C897.2 674.3 884.1 666.6 872.5 656.5C850.7 637.5 836.5 614 829.7 585.9C829.4 584.5 829.8 583.9 831.1 583.5C843.9 578.6 856.9 574.3 870.2 570.8C870.867 570.6 871.533 570.4 872.2 570.2Z" fill="#A09D9D"/>
<path d="M836.5 550.6C842.9 548.1 849.301 545.8 855.801 543.6C863.201 541 870.5 538.6 878 536.7C887.4 534.2 896.801 531.9 906.301 530.3C913.701 529.1 921.2 528 928.6 527.4C933.3 527 938 526.6 942.7 526.5C944.6 526.4 946.5 526.2 948.4 526.2C949.3 526.3 949.6 525.8 949.9 525.1C953.5 515.9 959.7 508.7 968.1 503.5C973.567 500.1 979.5 498.067 985.9 497.4C997.9 496 1008.7 499 1018.2 506.3C1026.7 512.8 1032.1 521.3 1034.4 531.8C1034.8 533.2 1035.4 533.8 1036.8 534.1C1050.8 536.8 1064 542 1076.9 547.8C1082 550 1087.1 552.2 1092.2 554.3C1093.1 554.7 1093.6 555.2 1093.6 556.2C1093.9 564.6 1093.6 573 1091.6 581.3C1091.3 582.6 1090.6 582.3 1089.8 582C1081.2 578.533 1072.5 575.367 1063.7 572.5C1052.9 569 1041.9 566.1 1030.8 563.8C1029.7 563.5 1029.4 564.1 1028.9 564.8C1025.4 570.5 1020.8 575.3 1015 578.9C1008.9 582.8 1002.1 585.1 994.801 585.7C984.301 586.6 974.7 584 966.1 578.1C958.6 573.1 953.3 566.2 949.9 557.9C949.4 556.7 948.7 556.5 947.7 556.5C942.3 556.8 936.9 557 931.5 557.5C924.4 558.1 917.301 558.8 910.301 559.8C900.601 561.2 891 563 881.4 565.1C877.9 565.9 874.401 567.2 870.801 568.1C866.401 569.1 862 570.5 857.6 571.8C856.8 572 856.101 572.5 855.301 572.5C853.601 573 852.201 572.3 850.801 571.7C842.201 568 837.3 561.5 835.9 552.3C835.9 551.6 835.7 551 836.5 550.6Z" fill="#58585A"/>
<path d="M1092.6 549.5C1092.3 544 1091.7 538.4 1090.7 532.9C1085.1 502.9 1071.2 477.5 1048.3 457.3C1018.2 430.7 982.8 419.9 942.9 424.4C924.9 426.5 908 432.4 892.3 441.7C887.1 444.7 882 448 877.4 452C874 454.7 870.5 457.2 867.5 460.3C866.167 461.767 864.833 463.2 863.5 464.6C862.4 465.7 861.3 466.8 860.3 468C840.5 490.6 829.3 516.7 827 546.7C826.9 548.2 826.6 549.8 826.8 551.4C827.8 551.1 828.6 550.8 829.4 550.5C844.9 544.5 860.5 538.9 876.4 534.3C899 527.9 922 524.2 945.5 523.6C946.9 523.6 947.6 523.2 948.2 521.9C956.9 503.5 974.6 493.1 994.9 494.4C1014.6 495.7 1031.9 510.2 1036.7 529.4C1037.1 530.8 1037.7 531.5 1039.1 531.7C1047.2 533.4 1055 535.8 1062.6 538.7C1072.2 542.4 1081.5 546.8 1090.9 550.7C1092.7 551.5 1092.7 551.4 1092.6 549.5Z" fill="#FF0000"/>
<path d="M836.5 550.6C835.9 552.1 836.5 553.7 836.9 555.1C839.3 564 845 569.7 853.8 572.3C854.3 572.5 854.8 572.4 855.3 572.5C850.9 573.9 846.5 575.3 842.1 576.8C837.9 578.3 833.7 579.7 829.6 581.5C828.6 581.9 828.3 581.5 828.1 580.6C827.4 577.9 827.1 575.2 826.6 572.4C825.7 567 826.1 561.6 826 556.2C826 555 826.4 554.4 827.6 554C830.6 552.9 833.4 551.5 836.5 550.6Z" fill="#363638"/>
<path d="M992.5 507.8C1010.3 507.7 1025.2 522.5 1025 540.9C1024.7 558.8 1010.4 573.3 992 573.2C973.7 573.1 959.5 558.2 959.6 540.3C959.6 522.4 974.3 507.5 992.5 507.8Z" fill="black"/>
<path d="M962.4 540.1C962.6 523.6 976.2 510.3 992.6 510.5C1009.5 510.8 1022.5 524.4 1022.2 541.6C1021.9 557.7 1008 570.7 991.3 570.4C975.3 570.1 962.1 556.3 962.4 540.1Z" fill="#FEFEFE"/>
<path d="M992.4 517.4C1005.2 517.5 1015.5 528 1015.3 540.7C1015.2 553.4 1004.8 563.6 992.2 563.5C979.3 563.4 969.1 553 969.3 540.1C969.4 527.5 979.8 517.3 992.4 517.4Z" fill="black"/>
<path d="M1013.5 540.9C1012.9 553.3 1003.1 562.2 990.9 561.6C979.7 561 970.5 550.8 971.1 539.7C971.7 527.8 981.6 518.7 993.1 519.3C1004.7 519.9 1014 529.8 1013.5 540.9Z" fill="#FEFEFE"/>
<path d="M1049.6 480.9C1049.6 506.2 1029.1 526.7 1003.9 526.7C978.6 526.7 958.1 506.2 958.1 480.9C958.1 455.7 978.6 435.2 1003.9 435.2C1029.1 435.2 1049.6 455.7 1049.6 480.9Z" fill="url(#paint1_radial_0_1)"/>
<path d="M977.4 430.4C907.9 429.8 853.1 481.5 845.3 559.3L839.8 507.8C839.8 507.8 869.6 420.6 977.4 430.4Z" fill="url(#paint2_linear_0_1)"/>
<path d="M693.8 620.2C872 574.9 1049.9 574.9 1227.8 620.2V486C1049.6 481.3 871.8 481.3 694 486C693.2 491.1 693 615.6 693.8 620.2Z" fill="#FF3C00"/>
<path d="M1187.8 629C1162.8 713.8 1080.7 791.2 970.9 795.5C848 800.3 759.1 716.3 733.2 627.9L808.7 611.5C839.3 679.4 889.9 718.8 965.6 716.8C1036.8 714.9 1087.5 673 1112.4 612L1187.8 629Z" fill="url(#paint3_linear_0_1)"/>
<path d="M931.5 320.6C878.5 326.8 832.6 349.3 794.3 386.5C770.1 410 751.8 437.4 739 469.5H757.2C790.9 398 846.2 354.4 924.1 338.7V394.4C879.4 405.4 844.8 429.8 819.7 468.2H827.2C860.3 422.5 904.2 397.3 961 397.4C1017.7 397.5 1061.5 422.8 1094.2 468.2H1101.8C1076.6 429.7 1041.9 405.2 997.5 394.4V338.7C1075.7 354.5 1130.9 398.3 1164.3 469.6H1182.2C1152.3 389 1059.7 305.7 931.5 320.6Z" fill="url(#paint4_linear_0_1)"/>
<path d="M1201.5 632.1C1174.7 724 1085.8 806.2 968.6 809.5C838.8 813.2 745.9 723.3 719.5 630.9L725.6 629.6C744.3 687.5 779 733.2 830.5 765.7C872.4 792.1 918.4 805.6 967.7 802.7C1081.6 796.1 1155.7 735.9 1196.4 631L1201.5 632.1Z" fill="url(#paint5_linear_0_1)"/>
<path d="M938.5 305.9C879.4 310.9 828.4 334.6 785.5 375.5C758 401.8 737.7 433 724.1 469.2H730.2C773.7 372.7 846.3 318.4 952.6 311.5C1066.5 312 1144.4 366.9 1191.6 469.5H1197C1167 382.1 1070.4 294.8 938.5 305.9Z" fill="url(#paint6_linear_0_1)"/>
<path d="M679.5 639.2V471.9C686.5 471.9 693.2 471.9 699.9 471.9C690 471.7 680.1 470.7 670 470.5V641.2C687.7 644.8 705.1 648.4 722.6 652C708.3 647.7 694 643.5 679.5 639.2Z" fill="url(#paint7_linear_0_1)"/>
<path d="M1110 380.1C1108.4 378.5 1106.1 377.7 1103.1 377.7C1102.63 377.7 1102.17 377.733 1101.7 377.8C1101.57 377.8 1101.43 377.8 1101.3 377.8H1100.8C1100.73 377.667 1100.7 377.567 1100.7 377.5C1099.7 376.2 1098.2 375.5 1096.6 375.5H1092.8C1091.4 375.5 1090 376.1 1089.1 377C1088.2 376.1 1086.9 375.5 1085.5 375.5H1081.6C1079.8 375.5 1078.2 376.5 1077.3 378C1076.3 377.8 1075.4 377.7 1074.2 377.7C1071.7 377.7 1069.7 378.1 1068.2 378.7C1067.1 378.1 1065.7 377.7 1064 377.7C1063.33 377.7 1062.73 377.733 1062.2 377.8C1062 377.8 1061.8 377.8 1061.6 377.8H1057.8C1056.9 377.8 1056.1 378 1055.4 378.4C1054.2 378 1052.7 377.7 1050.9 377.7C1050.17 377.7 1049.5 377.733 1048.9 377.8C1048.83 377.667 1048.73 377.567 1048.6 377.5C1047.7 376.2 1046.2 375.5 1044.6 375.5H1040.8C1040.6 375.5 1040.43 375.5 1040.3 375.5C1040.57 374.567 1040.7 373.7 1040.7 372.9C1040.7 371.6 1040.2 365 1030.9 365C1030.17 365 1029.5 365.033 1028.9 365.1C1028.83 365.033 1028.77 364.933 1028.7 364.8C1028.83 364.533 1028.93 364.3 1029 364.1C1029.13 363.767 1029.27 363.433 1029.4 363.1L1029.6 362.2C1029.87 361.333 1030 360.467 1030 359.6C1030 358.3 1029.5 351.8 1020.2 351.8C1019 351.8 1017.9 351.9 1016.9 352.1C1016.83 351.9 1016.73 351.733 1016.6 351.6C1015.6 350.3 1014.1 349.6 1012.5 349.6H1008.7C1008.23 349.6 1007.77 349.667 1007.3 349.8C1006.83 349.667 1006.37 349.6 1005.9 349.6H1002.1C1001.83 349.6 1001.57 349.6 1001.3 349.6C1001.2 349.6 1001 349.6 1000.8 349.6H997C995.2 349.6 993.5 350.5 992.6 352.1C991.734 351.9 990.767 351.8 989.7 351.8C987.2 351.8 985.3 352.2 983.8 352.9C983.8 351.7 983.5 350.5 982.7 349.5C981.8 348.2 980.3 347.5 978.7 347.5H976.7C975.1 347.5 973.7 348.2 972.7 349.4C971.8 348.2 970.3 347.5 968.8 347.5H943C937.7 347.5 933.3 349.1 929.9 352.1L932.8 341.1C933.3 339.2 933.1 337.2 932.1 335.5C931.1 333.8 929.5 332.6 927.6 332.1L885.5 320.9C884.9 320.7 884.3 320.6 883.7 320.6C880.3 320.6 877.4 322.9 876.5 326.1L870.9 347.5H845.8C843.6 347.5 841.7 348.9 841 351C840.4 352.9 840.9 354.9 842.3 356.3C840.6 356.7 839.1 358.1 838.6 359.9L830.2 391.5C829.7 393 830.1 394.6 831 395.9C832 397.1 833.5 397.9 835.1 397.9H857.4L855.4 405.4C854.9 407.3 855.1 409.3 856.1 411C857.1 412.7 858.7 413.9 860.6 414.5L902.6 425.7C903.267 425.833 903.9 425.9 904.5 425.9C907.9 425.9 910.8 423.7 911.7 420.5L918.7 394.1C919.3 393.7 919.834 393.233 920.3 392.7C920.7 393.3 921.1 393.8 921.5 394.2C924 396.6 927.6 397.9 932.3 397.9H958C959.6 397.9 961 397.2 961.9 396C962.9 397.2 964.3 397.9 965.8 397.9H967.9C970.2 397.9 972.1 396.4 972.8 394.2C974.2 395.5 976.5 396.4 980 396.4C981.7 396.4 983.1 396.2 984.3 395.9C984.9 396.233 985.567 396.4 986.3 396.4H990.1C990.5 396.4 990.867 396.367 991.2 396.3C991.534 396.367 991.867 396.4 992.2 396.4H996C996.733 396.4 997.4 396.233 998 395.9C999.1 396.2 1000.4 396.4 1002 396.4C1002.47 396.4 1002.93 396.367 1003.4 396.3C1003.6 396.367 1003.77 396.4 1003.9 396.4H1007.7C1008.03 396.4 1008.37 396.333 1008.7 396.2C1009.03 396.333 1009.37 396.4 1009.7 396.4H1013.6C1013.93 396.4 1014.27 396.367 1014.6 396.3C1014.93 396.367 1015.27 396.4 1015.6 396.4H1019.4C1019.73 396.4 1020.07 396.367 1020.4 396.3C1020.6 396.3 1020.77 396.3 1020.9 396.3C1021.03 396.567 1021.2 396.833 1021.4 397.1C1022.4 398.4 1023.9 399.1 1025.4 399.1H1029.3C1031.2 399.1 1033 398 1033.8 396.3C1034.47 396.233 1035.1 396.1 1035.7 395.9C1036.43 396.233 1037.17 396.4 1037.9 396.4H1041.7C1042.6 396.4 1043.4 396.2 1044.1 395.8C1045.37 396.2 1046.87 396.4 1048.6 396.4C1050.4 396.4 1051.9 396.2 1053.2 395.8C1053.9 396.2 1054.7 396.4 1055.5 396.4H1059.4C1059.73 396.4 1060.07 396.367 1060.4 396.3C1060.73 396.367 1061.07 396.4 1061.4 396.4H1065.2C1066 396.4 1066.7 396.2 1067.4 395.8C1068.67 396.2 1070.17 396.4 1071.9 396.4C1073.7 396.4 1075.3 396.2 1076.6 395.9C1077.27 396.233 1078 396.4 1078.8 396.4H1082.6C1082.93 396.4 1083.27 396.367 1083.6 396.3C1083.93 396.367 1084.27 396.4 1084.6 396.4H1088.4C1088.73 396.4 1089.03 396.367 1089.3 396.3C1089.5 396.3 1089.7 396.4 1089.9 396.4H1090C1090.13 396.667 1090.27 396.9 1090.4 397.1C1091.4 398.4 1092.9 399.1 1094.5 399.1H1098.3C1100.3 399.1 1102 398 1102.8 396.3C1107.3 395.7 1110.4 393 1111.6 388.8L1111.8 388C1112 387.1 1112.1 386.3 1112.1 385.5C1112.1 383.4 1111.4 381.5 1110 380.1Z" fill="black"/>
<path fill-rule="evenodd" clip-rule="evenodd" d="M993.9 361.7H987.4L987.2 362.4C987.134 362.6 987.1 362.767 987.1 362.9C987.1 363.367 987.334 363.6 987.8 363.6C988.467 363.6 988.9 363.267 989.1 362.6H993.6C992.6 364.467 990.533 365.4 987.4 365.4C984.267 365.4 982.7 364.5 982.7 362.7C982.7 362.3 982.734 361.9 982.8 361.5L983 360.8C983.733 358.2 985.967 356.9 989.7 356.9C992.834 356.9 994.4 357.8 994.4 359.6C994.4 360 994.334 360.4 994.2 360.8L993.9 361.7ZM989.7 360.2L989.8 359.9C989.867 359.7 989.9 359.533 989.9 359.4C989.9 358.933 989.633 358.7 989.1 358.7C988.433 358.7 988 359.1 987.8 359.9L987.7 360.2H989.7Z" fill="white"/>
<path d="M997.9 365.4H994.1L997 354.7H1000.8L997.9 365.4Z" fill="white"/>
<path d="M1003 365.4H999.2L1001.5 357H1005.3L1003 365.4ZM1005.4 356.4H1001.6L1002 354.6H1005.9L1005.4 356.4Z" fill="white"/>
<path d="M1013.2 359.3H1011.3L1009.7 365.4H1005.8L1007.5 359.3H1005.6L1006.2 357H1008.1L1008.7 354.7H1012.5L1011.9 357H1013.8L1013.2 359.3Z" fill="white"/>
<path fill-rule="evenodd" clip-rule="evenodd" d="M1024.5 361.7H1017.9L1017.7 362.4C1017.63 362.6 1017.6 362.767 1017.6 362.9C1017.6 363.367 1017.87 363.6 1018.4 363.6C1019.07 363.6 1019.5 363.267 1019.7 362.6H1024.1C1023.1 364.467 1021.03 365.4 1017.9 365.4C1014.77 365.4 1013.2 364.5 1013.2 362.7C1013.2 362.3 1013.27 361.9 1013.4 361.5L1013.5 360.8C1014.23 358.2 1016.47 356.9 1020.2 356.9C1023.33 356.9 1024.9 357.8 1024.9 359.6C1024.9 360 1024.83 360.4 1024.7 360.8L1024.5 361.7ZM1020.3 360.2L1020.4 359.9C1020.47 359.7 1020.5 359.533 1020.5 359.4C1020.5 358.933 1020.27 358.7 1019.8 358.7C1019.07 358.7 1018.6 359.1 1018.4 359.9L1018.3 360.2H1020.3Z" fill="white"/>
<path fill-rule="evenodd" clip-rule="evenodd" d="M989.8 374.7C989.134 377.367 987.2 378.7 984 378.7C983.333 378.7 982.767 378.567 982.3 378.3L982.2 378.6H978.4L981.2 367.9H985.1L984.4 370.5C985 370.233 985.634 370.1 986.3 370.1C988.9 370.1 990.2 370.967 990.2 372.7C990.2 373.1 990.133 373.533 990 374L989.8 374.7ZM985 375.6L985.6 373.2C985.667 373 985.7 372.8 985.7 372.6C985.7 372.133 985.467 371.9 985 371.9C984.333 371.9 983.867 372.333 983.6 373.2L983 375.6C982.933 375.8 982.9 376 982.9 376.2C982.9 376.667 983.133 376.9 983.6 376.9C984.333 376.9 984.8 376.467 985 375.6Z" fill="white"/>
<path fill-rule="evenodd" clip-rule="evenodd" d="M999.8 378.6H996V378.3C995.4 378.567 994.733 378.7 994 378.7C991.267 378.7 989.9 378.067 989.9 376.8C989.9 376.6 989.933 376.4 990 376.2C990.267 375.333 990.867 374.7 991.8 374.3C992.4 374.033 993.333 373.833 994.6 373.7C995.867 373.633 996.8 373.467 997.4 373.2L997.5 373C997.5 372.867 997.5 372.733 997.5 372.6C997.5 372.133 997.2 371.9 996.6 371.9C995.8 371.9 995.3 372.267 995.1 373H991.1C992.1 371.067 994.1 370.1 997.1 370.1C999.833 370.1 1001.2 370.967 1001.2 372.7C1001.2 373.033 1001.17 373.4 1001.1 373.8L999.8 378.6ZM996.6 376.2L996.9 375.1C996.7 375.167 996.367 375.233 995.9 375.3C995.433 375.367 995.1 375.433 994.9 375.5C994.5 375.633 994.267 375.867 994.2 376.2C994.2 376.267 994.2 376.333 994.2 376.4C994.2 376.8 994.534 377 995.2 377C996 377 996.467 376.733 996.6 376.2Z" fill="white"/>
<path d="M1009.7 372.5H1007.9L1006.2 378.6H1002.4L1004 372.5H1002.2L1002.8 370.2H1004.7L1005.3 367.9H1009.1L1008.5 370.2H1010.4L1009.7 372.5Z" fill="white"/>
<path d="M1018.5 372.5H1016.7L1015 378.6H1011.2L1012.8 372.5H1011L1011.6 370.2H1013.5L1014.1 367.9H1017.9L1017.3 370.2H1019.1L1018.5 372.5Z" fill="white"/>
<path d="M1021.8 378.6H1018L1020.8 367.9H1024.7L1021.8 378.6Z" fill="white"/>
<path fill-rule="evenodd" clip-rule="evenodd" d="M1035.2 375H1028.6L1028.4 375.6C1028.33 375.8 1028.3 376 1028.3 376.2C1028.3 376.667 1028.57 376.9 1029.1 376.9C1029.77 376.9 1030.2 376.533 1030.4 375.8H1034.8C1033.87 377.733 1031.8 378.7 1028.6 378.7C1025.47 378.7 1023.9 377.767 1023.9 375.9C1023.9 375.567 1023.97 375.167 1024.1 374.7L1024.2 374.1C1024.93 371.433 1027.17 370.1 1030.9 370.1C1034.03 370.1 1035.6 371.033 1035.6 372.9C1035.6 373.233 1035.53 373.633 1035.4 374.1L1035.2 375ZM1031 373.5L1031.1 373.2C1031.17 373 1031.2 372.8 1031.2 372.6C1031.2 372.133 1030.97 371.9 1030.5 371.9C1029.83 371.9 1029.37 372.333 1029.1 373.2L1029 373.5H1031Z" fill="white"/>
<path d="M986.4 388.3C985.467 390.3 983.333 391.3 980 391.3C976.933 391.3 975.367 390.4 975.3 388.6C975.3 388.2 975.367 387.8 975.5 387.4L975.7 386.7C976.367 384.1 978.567 382.8 982.3 382.8C985.434 382.8 987 383.733 987 385.6C987 385.667 987 385.733 987 385.8H982.5C982.567 385.6 982.6 385.433 982.6 385.3C982.6 384.833 982.367 384.6 981.9 384.6C981.167 384.6 980.7 385.033 980.5 385.9L979.9 388.3C979.833 388.5 979.8 388.667 979.8 388.8C979.8 389.333 980.033 389.6 980.5 389.6C981.167 389.6 981.633 389.167 981.9 388.3H986.4Z" fill="white"/>
<path d="M996 391.3H992.2L993.6 385.8C993.667 385.6 993.7 385.433 993.7 385.3C993.7 384.833 993.467 384.6 993 384.6C992.267 384.6 991.8 385 991.6 385.8L990.1 391.3H986.3L989.2 380.6H993L992.3 383.2C992.9 382.933 993.734 382.8 994.8 382.8C996.6 382.8 997.5 383.5 997.5 384.9C997.5 385.3 997.434 385.733 997.3 386.2L996 391.3Z" fill="white"/>
<path fill-rule="evenodd" clip-rule="evenodd" d="M1007.7 391.3H1003.9L1004 391C1003.4 391.2 1002.73 391.3 1002 391.3C999.267 391.3 997.9 390.7 997.9 389.5C997.9 389.3 997.9 389.1 997.9 388.9C998.167 387.967 998.767 387.3 999.7 386.9C1000.3 386.7 1001.23 386.533 1002.5 386.4C1003.83 386.267 1004.77 386.1 1005.3 385.9L1005.4 385.6C1005.47 385.533 1005.5 385.433 1005.5 385.3C1005.5 384.833 1005.17 384.6 1004.5 384.6C1003.7 384.6 1003.2 384.933 1003 385.6H999C1000 383.733 1002 382.8 1005 382.8C1007.73 382.8 1009.13 383.667 1009.2 385.4C1009.2 385.733 1009.13 386.1 1009 386.5L1007.7 391.3ZM1004.5 388.8L1004.8 387.7C1004.6 387.833 1004.27 387.933 1003.8 388C1003.33 388 1003 388.067 1002.8 388.2C1002.47 388.333 1002.23 388.533 1002.1 388.8C1002.1 388.933 1002.1 389.033 1002.1 389.1C1002.1 389.433 1002.43 389.6 1003.1 389.6C1003.9 389.6 1004.37 389.333 1004.5 388.8Z" fill="white"/>
<path d="M1025.3 391.3H1021.5L1022.9 385.8C1022.97 385.6 1023 385.433 1023 385.3C1023 384.833 1022.73 384.6 1022.2 384.6C1021.53 384.6 1021.1 385 1020.9 385.8L1019.4 391.3H1015.6L1017.1 385.8C1017.1 385.6 1017.1 385.433 1017.1 385.3C1017.1 384.833 1016.87 384.6 1016.4 384.6C1015.73 384.6 1015.27 385 1015 385.8L1013.6 391.3H1009.7L1012 382.9H1015.8V383.2C1016.33 382.933 1017.13 382.8 1018.2 382.8C1019.4 382.8 1020.2 383.1 1020.6 383.7C1021.4 383.1 1022.57 382.8 1024.1 382.8C1025.9 382.8 1026.8 383.5 1026.8 384.9C1026.8 385.3 1026.73 385.733 1026.6 386.2L1025.3 391.3Z" fill="white"/>
<path fill-rule="evenodd" clip-rule="evenodd" d="M1037.6 387.4C1036.93 390 1035 391.3 1031.8 391.3C1031.13 391.3 1030.57 391.2 1030.1 391L1029.3 394H1025.4L1028.4 382.9H1032.3L1032.2 383.2C1032.8 382.933 1033.43 382.8 1034.1 382.8C1036.7 382.8 1038 383.7 1038 385.5C1038 385.833 1037.93 386.233 1037.8 386.7L1037.6 387.4ZM1033.4 385.9C1033.47 385.633 1033.5 385.433 1033.5 385.3C1033.5 384.833 1033.27 384.6 1032.8 384.6C1032.13 384.6 1031.67 385.033 1031.4 385.9L1030.8 388.3C1030.73 388.5 1030.7 388.667 1030.7 388.8C1030.7 389.333 1030.97 389.6 1031.5 389.6C1032.17 389.6 1032.6 389.167 1032.8 388.3L1033.4 385.9Z" fill="white"/>
<path d="M1041.7 391.3H1037.9L1040.2 382.9H1044L1041.7 391.3ZM1044.1 382.3H1040.3L1040.7 380.6H1044.6L1044.1 382.3Z" fill="white"/>
<path fill-rule="evenodd" clip-rule="evenodd" d="M1055.2 387.4C1054.53 390 1052.33 391.3 1048.6 391.3C1045.47 391.3 1043.9 390.367 1043.9 388.5C1043.9 388.167 1043.97 387.8 1044.1 387.4L1044.3 386.7C1044.97 384.1 1047.17 382.8 1050.9 382.8C1054.03 382.8 1055.6 383.733 1055.6 385.6C1055.6 385.933 1055.53 386.3 1055.4 386.7L1055.2 387.4ZM1050.4 388.3L1051.1 385.9C1051.17 385.633 1051.2 385.433 1051.2 385.3C1051.2 384.833 1050.93 384.6 1050.4 384.6C1049.73 384.6 1049.3 385.033 1049.1 385.9L1048.4 388.3C1048.33 388.5 1048.3 388.7 1048.3 388.9C1048.3 389.367 1048.57 389.6 1049.1 389.6C1049.77 389.6 1050.2 389.167 1050.4 388.3Z" fill="white"/>
<path d="M1065.2 391.3H1061.4L1062.8 385.8C1062.87 385.6 1062.9 385.433 1062.9 385.3C1062.9 384.833 1062.67 384.6 1062.2 384.6C1061.53 384.6 1061.07 385 1060.8 385.8L1059.4 391.3H1055.5L1057.8 382.9H1061.6L1061.5 383.2C1062.1 382.933 1062.93 382.8 1064 382.8C1065.87 382.8 1066.8 383.5 1066.8 384.9C1066.8 385.3 1066.73 385.733 1066.6 386.2L1065.2 391.3Z" fill="white"/>
<path d="M1078.9 385.5H1074.6C1074.67 385.367 1074.7 385.267 1074.7 385.2C1074.7 384.8 1074.4 384.6 1073.8 384.6C1073 384.6 1072.6 384.833 1072.6 385.3C1072.6 385.633 1073.07 385.867 1074 386C1075.53 386.267 1076.5 386.5 1076.9 386.7C1077.63 387.033 1078 387.533 1078 388.2C1078 388.333 1077.97 388.5 1077.9 388.7C1077.43 390.433 1075.43 391.3 1071.9 391.3C1068.57 391.3 1066.97 390.433 1067.1 388.7H1071.4C1071.33 388.767 1071.3 388.867 1071.3 389C1071.3 389.4 1071.6 389.6 1072.2 389.6C1073.07 389.6 1073.5 389.333 1073.5 388.8C1073.5 388.533 1073.03 388.3 1072.1 388.1C1070.57 387.833 1069.6 387.633 1069.2 387.5C1068.47 387.167 1068.1 386.667 1068.1 386C1068.1 385.8 1068.13 385.6 1068.2 385.4C1068.67 383.667 1070.67 382.8 1074.2 382.8C1077.4 382.8 1078.97 383.7 1078.9 385.5Z" fill="white"/>
<path d="M1088.4 391.3H1084.6L1086.1 385.8C1086.17 385.6 1086.2 385.433 1086.2 385.3C1086.2 384.833 1085.93 384.6 1085.4 384.6C1084.73 384.6 1084.3 385 1084.1 385.8L1082.6 391.3H1078.8L1081.6 380.6H1085.5L1084.8 383.2C1085.4 382.933 1086.2 382.8 1087.2 382.8C1089.07 382.8 1090 383.5 1090 384.9C1090 385.3 1089.93 385.733 1089.8 386.2L1088.4 391.3Z" fill="white"/>
<path d="M1093.7 391.3H1089.9L1092.2 382.9H1096L1093.7 391.3ZM1096.1 382.3H1092.3L1092.7 380.6H1096.6L1096.1 382.3Z" fill="white"/>
<path fill-rule="evenodd" clip-rule="evenodd" d="M1106.7 387.4C1105.97 390 1104.03 391.3 1100.9 391.3C1100.17 391.3 1099.57 391.2 1099.1 391L1098.3 394H1094.5L1097.5 382.9H1101.3L1101.2 383.2C1101.8 382.933 1102.43 382.8 1103.1 382.8C1105.77 382.8 1107.07 383.7 1107 385.5C1107 385.833 1106.93 386.233 1106.8 386.7L1106.7 387.4ZM1102.6 385.9C1102.67 385.633 1102.7 385.433 1102.7 385.3C1102.7 384.833 1102.43 384.6 1101.9 384.6C1101.23 384.6 1100.8 385.033 1100.6 385.9L1099.9 388.3C1099.83 388.5 1099.8 388.667 1099.8 388.8C1099.8 389.333 1100.07 389.6 1100.6 389.6C1101.27 389.6 1101.7 389.167 1101.9 388.3L1102.6 385.9Z" fill="white"/>
<path fill-rule="evenodd" clip-rule="evenodd" d="M878.5 368.4L876.2 377H856.5L854.6 384.2H866.4L864.1 392.8H835.1L843.5 361.2H858.1L845.8 352.6H874.8L872.5 361.2H860.7L858.8 368.4H878.5ZM870.1 384.2H874.4L872.1 392.8H867.8L870.1 384.2ZM882.8 352.6L880.5 361.2H876.2L878.5 352.6H882.8Z" fill="white"/>
<path fill-rule="evenodd" clip-rule="evenodd" d="M926.4 358.9C926.4 359.833 926.233 360.9 925.9 362.1C924.767 366.433 922.7 369.267 919.7 370.6C918.5 371.133 917.2 371.433 915.8 371.5C915.534 371.5 915.3 371.5 915.1 371.5C915.3 371.5 915.5 371.533 915.7 371.6L910.2 392.4C909 392.667 907.767 392.8 906.5 392.8H875.2L883.7 361.2H898.3L886 352.6H917.2C918.534 352.6 919.7 352.7 920.7 352.9C922.1 353.1 923.233 353.5 924.1 354.1C925.633 355.167 926.4 356.767 926.4 358.9ZM904.4 377.6C904.4 375.4 902.867 374.3 899.8 374.3H897.4L894.8 384.2H897.2C900.934 384.2 903.233 382.533 904.1 379.2C904.3 378.6 904.4 378.067 904.4 377.6ZM908.1 363.9C908.1 362.1 906.533 361.2 903.4 361.2H900.9L898.8 368.8H901.3C905.034 368.8 907.267 367.533 908 365C908.067 364.6 908.1 364.233 908.1 363.9ZM921.3 377.4C921.3 378.733 921.067 380.333 920.6 382.2C919.467 386.333 917.367 389.267 914.3 391L919.2 372.6C920.6 373.533 921.3 375.133 921.3 377.4Z" fill="white"/>
<path d="M958 392.8H932.3C926.367 392.8 923.4 390.467 923.4 385.8C923.4 384.533 923.6 383.1 924 381.5L928.8 363.8C930.8 356.333 935.533 352.6 943 352.6H968.8L966.5 361.2H952.3C948.567 361.2 946.2 363.067 945.2 366.8L942 378.5C941.8 379.3 941.7 380.033 941.7 380.7C941.7 383.033 943.2 384.2 946.2 384.2H960.4L958 392.8Z" fill="white"/>
<path fill-rule="evenodd" clip-rule="evenodd" d="M914.3 391L906.7 419.1C906.4 420.4 905.2 421.1 903.9 420.8L861.9 409.5C860.7 409.2 860 408 860.3 406.8L864.1 392.8H867.8L865.5 401L905.1 411.6L910.2 392.4C911.734 392.133 913.1 391.667 914.3 391ZM884.9 407.8C883.2 407.3 881.5 408.3 881.1 410C880.7 411.6 881.6 413.3 883.3 413.8C885 414.2 886.6 413.2 887.1 411.6C887.5 409.9 886.5 408.2 884.9 407.8ZM927.9 339.8L924.1 354.1L919.7 370.6L919.2 372.6C918.334 372 917.167 371.667 915.7 371.6L915.8 371.5L920.7 352.9L923.6 342L884.1 331.5L878.5 352.6H874.8L881.5 327.4C881.8 326.2 883 325.5 884.2 325.8L926.3 337C927.5 337.3 928.2 338.6 927.9 339.8ZM911.5 334.9L898.1 331.3C897.6 331.2 897 331.5 896.9 332C896.8 332.5 897.1 333 897.6 333.2L911 336.8C911.133 336.8 911.234 336.8 911.3 336.8C911.7 336.8 912.1 336.5 912.2 336.1C912.4 335.6 912.1 335 911.5 334.9ZM876.2 361.2L874.3 368.4L872 377H868.3L870.6 368.4L872.5 361.2H876.2ZM866.4 384.2H870.1L872 377H868.3L866.4 384.2Z" fill="#E00016"/>
<path d="M870.1 384.2L867.8 392.8H864.1L866.4 384.2H870.1Z" fill="white"/>
<path d="M878.5 352.6L876.2 361.2H872.5L874.8 352.6H878.5Z" fill="white"/>
<path d="M919.2 372.6L914.3 391C913.1 391.667 911.734 392.133 910.2 392.4L915.7 371.6C917.167 371.667 918.334 372 919.2 372.6Z" fill="white"/>
<path d="M978.7 352.6L967.9 392.8H965.8L976.7 352.6H978.7Z" fill="white"/>
<path d="M817.1 700.5C815.4 691.8 813.9 684.1 812.4 676.3C804.3 674.8 796.6 673.3 788.2 671.7C789.8 680.1 791.3 687.8 792.9 695.9C800.7 697.4 808.4 698.9 817.1 700.5Z" fill="black"/>
<path d="M1134.1 671.7C1125.4 673.4 1117.8 674.9 1109.9 676.4C1108.4 684.5 1106.9 692.2 1105.4 700.5C1114 698.9 1121.9 697.7 1129.6 695.7C1131.1 687.7 1132.5 680.1 1134.1 671.7Z" fill="black"/>
<path fill-rule="evenodd" clip-rule="evenodd" d="M800.5 546.1C800.5 555.833 800.467 565.6 800.4 575.4C793.1 576.4 789.5 576.9 782.2 577.9C782.2 551.5 782.2 525.133 782.2 498.8C793.2 498.8 798.7 498.8 809.7 498.8C818.9 498.8 826.1 500.8 831.5 504.6C836.8 508.5 839.5 513.8 839.5 520.5C839.5 524.233 838.4 527.467 836.2 530.2C834.067 533 830.9 535.367 826.7 537.3C831.567 538.367 835.033 540.3 837.1 543.1C839.233 545.9 840.3 549.467 840.3 553.8C840.3 555.7 840.3 556.6 840.3 558.4C840.3 560.267 840.6 562.4 841.2 564.8C841.8 567.133 842.867 568.733 844.4 569.6C844.4 570 844.4 570.2 844.4 570.6C836.8 571.3 833 571.7 825.4 572.5C824 571.633 823.067 569.9 822.6 567.3C822.2 564.7 822 562.2 822 559.8C822 558.1 822 557.2 822 555.4C822 551.867 821 549.233 819 547.5C817 545.767 814.1 545.033 810.3 545.3C806.4 545.6 804.4 545.7 800.5 546.1ZM800.5 532.4C804.2 532.2 806.1 532.1 809.8 531.9C813.467 531.7 816.267 530.767 818.2 529.1C820.2 527.367 821.2 525.033 821.2 522.1C821.2 519.1 820.2 516.7 818.2 514.9C816.2 513.1 813.367 512.233 809.7 512.3C806 512.3 804.2 512.4 800.5 512.5C800.5 520.4 800.5 524.4 800.5 532.4Z" fill="white"/>
<path d="M888 567.3C880.7 567.8 877 568 869.7 568.5C869.767 545.3 869.833 522.067 869.9 498.8C877.2 498.8 880.8 498.8 888.2 498.8C888.134 521.667 888.067 544.5 888 567.3Z" fill="white"/>
<path d="M945.8 547.3C946.1 548.3 946.2 548.7 946.4 549.7C946.5 549.7 946.6 549.7 946.7 549.7C946.9 548.8 947 548.4 947.3 547.5C952.5 531.233 957.733 515 963 498.8C970.7 498.8 974.5 498.8 982.2 498.8C973.667 520.933 965.133 543.1 956.6 565.3C948.6 565.3 944.6 565.3 936.7 565.5C928.1 543.3 919.6 521.067 911.2 498.8C918.9 498.8 922.7 498.8 930.4 498.8C935.533 514.933 940.667 531.1 945.8 547.3Z" fill="white"/>
<path fill-rule="evenodd" clip-rule="evenodd" d="M1041.6 554.4C1032.2 553.9 1027.4 553.7 1018 553.4C1016.2 558.6 1015.3 561.2 1013.5 566.4C1005.7 566.1 1001.8 565.9 994.1 565.7C1002.77 543.433 1011.33 521.133 1019.8 498.8C1023.7 498.8 1025.7 498.8 1029.7 498.8C1033.6 498.8 1035.6 498.8 1039.5 498.8C1048.37 522.333 1057.07 545.933 1065.6 569.6C1057.8 569 1054 568.7 1046.2 568.2C1044.4 562.6 1043.4 559.9 1041.6 554.4ZM1022.2 541.4C1028.3 541.6 1031.3 541.7 1037.3 541.9C1034.3 533.3 1032.8 529 1029.9 520.4C1029.7 520.4 1029.7 520.4 1029.5 520.4C1026.6 528.9 1025.2 533.1 1022.2 541.4Z" fill="white"/>
<path d="M1105.1 560.2C1116.43 561.333 1127.73 562.533 1139 563.8C1139 569.4 1139 572.2 1139 577.9C1121.6 575.4 1104.2 573.3 1086.8 571.6C1086.73 547.333 1086.67 523.067 1086.6 498.8C1094 498.8 1097.7 498.8 1105 498.8C1105.07 519.267 1105.1 539.733 1105.1 560.2Z" fill="white"/>
<path fill-rule="evenodd" clip-rule="evenodd" d="M837.5 520.5C837.5 523.8 836.6 526.6 834.7 529C832.7 531.5 829.8 533.7 825.9 535.5L820.4 538.1L823 538.6C809.9 539.9 796.9 541.4 784.2 543.1V500.8H809.7C818.3 500.8 825.3 502.6 830.3 506.3C835.2 509.8 837.5 514.4 837.5 520.5ZM823.2 522.1C823.2 518.5 822 515.6 819.5 513.4C817.2 511.3 814.1 510.3 810.1 510.3C809.967 510.3 809.8 510.3 809.6 510.3C806 510.3 798.5 510.5 798.5 510.5V534.5L800.6 534.4C804.3 534.2 806.2 534.1 809.9 533.9C814 533.6 817.2 532.5 819.5 530.6C821.967 528.533 823.2 525.7 823.2 522.1Z" fill="url(#paint8_linear_0_1)"/>
<path d="M886.2 500.8L886.1 534.3C881.3 534.5 876.534 534.733 871.8 535V500.8H886.2Z" fill="url(#paint9_linear_0_1)"/>
<path d="M928.9 500.8C932.2 511.3 935.7 522 939.3 533.3C935.034 533.3 930.767 533.3 926.5 533.3C922.1 521.9 918 511.1 914.1 500.8H928.9Z" fill="url(#paint10_linear_0_1)"/>
<path d="M979.3 500.8C975.1 511.733 970.867 522.7 966.6 533.7C962.4 533.567 958.167 533.467 953.9 533.4L964.4 500.8H979.3Z" fill="url(#paint11_linear_0_1)"/>
<path d="M1038.2 500.8H1021.2C1016.9 512 1012.5 523.6 1007.9 535.6C1012.57 535.867 1017.2 536.2 1021.8 536.6C1023.8 530.7 1025.3 526.7 1027.6 519.8L1028.1 518.4L1031.3 518.5L1031.7 519.8C1034.3 527.2 1035.8 531.4 1038.1 538C1043.03 538.533 1047.87 539.067 1052.6 539.6C1047.9 526.8 1043.1 513.9 1038.2 500.8Z" fill="url(#paint12_linear_0_1)"/>
<path d="M1103.1 547.7C1098.5 546.7 1093.7 545.767 1088.7 544.9L1088.6 500.8H1103L1103.1 547.7Z" fill="url(#paint13_linear_0_1)"/>
<defs>
<linearGradient id="paint0_linear_0_1" x1="1549.4" y1="477.5" x2="1533.6" y2="736.3" gradientUnits="userSpaceOnUse">
<stop stop-color="#C79317"/>
<stop offset="0.5" stop-color="#EEE64A"/>
<stop offset="1" stop-color="#C79416"/>
</linearGradient>
<radialGradient id="paint1_radial_0_1" cx="0" cy="0" r="1" gradientUnits="userSpaceOnUse" gradientTransform="translate(1004.7 473.9) scale(48.8)">
<stop stop-color="white"/>
<stop offset="1" stop-color="#F9CDCD" stop-opacity="0"/>
</radialGradient>
<linearGradient id="paint2_linear_0_1" x1="783.2" y1="526" x2="922.001" y2="318.2" gradientUnits="userSpaceOnUse">
<stop stop-color="white"/>
<stop offset="1" stop-color="#F9CDCD" stop-opacity="0"/>
</linearGradient>
<linearGradient id="paint3_linear_0_1" x1="1006.1" y1="615" x2="997.6" y2="800.7" gradientUnits="userSpaceOnUse">
<stop stop-color="#C79317"/>
<stop offset="0.5" stop-color="#EEE64A"/>
<stop offset="1" stop-color="#C79416"/>
</linearGradient>
<linearGradient id="paint4_linear_0_1" x1="928.6" y1="463.4" x2="948.5" y2="13.2" gradientUnits="userSpaceOnUse">
<stop stop-color="#C79317"/>
<stop offset="0.5" stop-color="#EEE64A"/>
<stop offset="1" stop-color="#C79416"/>
</linearGradient>
<linearGradient id="paint5_linear_0_1" x1="1003" y1="616.1" x2="994.6" y2="800.3" gradientUnits="userSpaceOnUse">
<stop stop-color="#C79317"/>
<stop offset="0.5" stop-color="#EEE64A"/>
<stop offset="1" stop-color="#C79416"/>
</linearGradient>
<linearGradient id="paint6_linear_0_1" x1="925" y1="463.4" x2="944.9" y2="13.3" gradientUnits="userSpaceOnUse">
<stop stop-color="#C79317"/>
<stop offset="0.5" stop-color="#EEE64A"/>
<stop offset="1" stop-color="#C79416"/>
</linearGradient>
<linearGradient id="paint7_linear_0_1" x1="1022.3" y1="441" x2="1006" y2="708.5" gradientUnits="userSpaceOnUse">
<stop stop-color="#C79317"/>
<stop offset="0.5" stop-color="#EEE64A"/>
<stop offset="1" stop-color="#C79416"/>
</linearGradient>
<linearGradient id="paint8_linear_0_1" x1="792.2" y1="544.4" x2="794.3" y2="493.4" gradientUnits="userSpaceOnUse">
<stop stop-color="#B6B3BA"/>
<stop offset="1" stop-color="white"/>
</linearGradient>
<linearGradient id="paint9_linear_0_1" x1="836.501" y1="546.2" x2="838.501" y2="496.4" gradientUnits="userSpaceOnUse">
<stop stop-color="#B6B3BA"/>
<stop offset="1" stop-color="white"/>
</linearGradient>
<linearGradient id="paint10_linear_0_1" x1="903.6" y1="549.9" x2="905.7" y2="498.7" gradientUnits="userSpaceOnUse">
<stop stop-color="#B6B3BA"/>
<stop offset="1" stop-color="white"/>
</linearGradient>
<linearGradient id="paint11_linear_0_1" x1="943.2" y1="550.9" x2="945.3" y2="500.8" gradientUnits="userSpaceOnUse">
<stop stop-color="#B6B3BA"/>
<stop offset="1" stop-color="white"/>
</linearGradient>
<linearGradient id="paint12_linear_0_1" x1="1011.1" y1="556" x2="1013.3" y2="503.2" gradientUnits="userSpaceOnUse">
<stop stop-color="#B6B3BA"/>
<stop offset="1" stop-color="white"/>
</linearGradient>
<linearGradient id="paint13_linear_0_1" x1="1017.5" y1="554.2" x2="1019.6" y2="503.8" gradientUnits="userSpaceOnUse">
<stop stop-color="#B6B3BA"/>
<stop offset="1" stop-color="white"/>
</linearGradient>
</defs>
</svg>
