<svg width="1920" height="1080" viewBox="0 0 1920 1080" fill="none" xmlns="http://www.w3.org/2000/svg">
<path d="M0.399902 1080H1920.4V0H0.399902V1080Z" fill="none"/>
<path d="M1264.6 465V635.2C1264.6 641.4 1260.3 646.7 1254.3 647.9L1203.2 658.4L1202.8 658.5C1186.3 696.5 1159.8 731.1 1126.4 758.1C1116.5 766.1 1106.1 773.3 1095.4 779.7C1094.6 780.167 1093.83 780.633 1093.1 781.1C1092.37 781.5 1091.63 781.9 1090.9 782.3C1090.57 782.5 1090.23 782.667 1089.9 782.8C1089.83 782.867 1089.77 782.933 1089.7 783C1089.63 783.067 1089.53 783.133 1089.4 783.2C1054.5 802.8 1015.7 814 975 816.2C974.6 816.2 974.167 816.2 973.7 816.2C972.834 816.267 971.933 816.3 971 816.3C970.867 816.3 970.7 816.333 970.5 816.4H969.6C969.466 816.4 969.334 816.4 969.2 816.4C968.867 816.4 968.566 816.4 968.3 816.4H968.2C968 816.4 967.8 816.4 967.6 816.4C967.533 816.467 967.467 816.5 967.4 816.5C966.334 816.5 965.3 816.5 964.3 816.5C962.966 816.5 961.7 816.5 960.5 816.5H960.2C959.134 816.5 958.067 816.5 957 816.5C955.867 816.5 954.7 816.5 953.5 816.5C953.367 816.5 953.233 816.5 953.1 816.5C952.9 816.5 952.733 816.467 952.6 816.4C951.8 816.4 951 816.4 950.2 816.4C892.4 814.3 838.6 794.3 793.9 758.3C760.2 731.1 733.6 696.3 717 658.2L666.7 647.9C660.6 646.6 656.3 641.3 656.3 635.1V464.5C656.3 461 657.7 457.7 660.1 455.2C662.6 452.8 665.9 451.5 669.3 451.5H669.5C674.8 451.6 680.1 451.9 685.1 452.2C688.1 452.4 702 452.5 713.5 452.7C713.7 452.7 713.9 452.7 714.1 452.7C753.2 354.9 848.8 285.9 960.5 285.9C1012.5 285.9 1061 300.9 1102 326.8C1152.5 359.1 1188.4 406.1 1206 452H1251.6C1258.8 452 1264.6 457.9 1264.6 465Z" fill="black"/>
<path d="M1242.3 633.1C1227.97 637.367 1213.63 641.633 1199.3 645.9C1216.7 642.4 1234.1 638.8 1251.6 635.2V465C1241.5 465 1231.7 465 1221.9 465C1221.9 465.333 1221.9 465.633 1221.9 465.9C1228.7 465.9 1235.4 465.9 1242.3 465.9V633.1Z" fill="url(#paint0_linear_0_1)"/>
<path d="M1095.7 551.3C1096.3 620 1040 686.7 959.6 687.1C883.9 687.6 821.9 626.7 822.2 550.2C822.5 471.3 886.1 414.3 957.5 413.6C1033.5 412.9 1096.2 474.4 1095.7 551.3Z" fill="#FFB902"/>
<path d="M871.5 564.2C884.1 560.8 896.8 558.3 909.7 556.4C918.3 555.2 926.9 554.3 935.6 553.7C939 553.5 942.3 553.4 945.7 553.2C946.7 553.1 947.101 553.7 947.401 554.5C953.301 567.2 962.8 576 976.2 580.2C992.3 585.2 1007.1 582.2 1020.3 571.7C1023.8 568.9 1026.9 565.5 1029.3 561.7C1030 560.8 1030.6 560.5 1031.7 560.8C1048.3 564.3 1064.3 569.3 1080.1 575.3C1082.5 576.2 1084.9 577.2 1087.4 578C1088.7 578.4 1088.7 579.1 1088.5 580.2C1087.1 585.7 1085.6 591.1 1083.6 596.4C1080.8 603.7 1077.6 610.8 1073.4 617.4C1073 618 1072.6 618.6 1072.1 619.2C1070.7 621.3 1068.6 622.6 1066.8 624.2C1061.67 628.867 1056.2 633.033 1050.4 636.7C1040 643.3 1028.8 648 1016.9 651.2C1009.7 653.133 1002.4 654.333 995 654.8C975 656.1 955.8 652.8 937.5 644.6C928.8 640.7 920.801 635.9 913.401 630.2C905.901 624.3 899.1 617.7 893.2 610.2C882.8 597 875.4 582.4 871.1 566.2C870.9 565.5 870.6 564.7 871.5 564.2Z" fill="#FEFEFE"/>
<path d="M871.5 564.2C871.1 564.7 871.3 565.2 871.4 565.7C874.3 576.9 878.7 587.5 884.7 597.4C892 609.4 901.2 619.9 912.2 628.7C927.1 640.6 943.9 648.4 962.5 652.3C968.6 653.5 974.7 654.2 980.9 654.5C996.7 655.3 1012 653 1026.9 647.7C1036 644.4 1044.5 640.1 1052.5 634.8C1058.9 630.6 1064.6 625.6 1070.3 620.6C1070.9 620.1 1071.5 619.7 1072.1 619.2C1071 622 1069.1 624.3 1067.4 626.8C1062.1 634.4 1055.9 641.3 1049 647.7C1041.3 654.9 1032.7 661 1023.5 666.1C1012.7 672.1 1001.3 676.5 989.3 679.3C982.233 680.967 975.067 682.033 967.8 682.5C964.6 682.7 961.5 682.8 958.4 682.8C954.1 682.9 949.7 682.6 945.4 682.2C933.467 681 921.933 678.2 910.8 673.8C896.4 668.3 883.4 660.5 871.8 650.4C850 631.4 835.8 607.9 829 579.8C828.6 578.4 829 577.9 830.3 577.4C843.2 572.6 856.2 568.2 869.5 564.7C870.167 564.5 870.833 564.333 871.5 564.2Z" fill="#A09D9D"/>
<path d="M835.701 544.5C842.201 542.1 848.6 539.7 855.1 537.5C862.4 535 869.8 532.5 877.3 530.6C886.7 528.2 896.1 525.8 905.6 524.2C913 523 920.401 521.9 927.901 521.3C932.601 521 937.3 520.6 942 520.4C943.9 520.3 945.801 520.1 947.701 520.2C948.601 520.2 948.9 519.7 949.1 519C952.8 509.8 958.901 502.6 967.401 497.4C972.867 494.067 978.801 492.033 985.201 491.3C997.101 490 1008 492.9 1017.5 500.2C1026 506.7 1031.4 515.3 1033.7 525.7C1034 527.2 1034.7 527.7 1036.1 528C1050.1 530.7 1063.3 535.9 1076.2 541.7C1081.3 544 1086.3 546.1 1091.4 548.2C1092.4 548.6 1092.9 549.1 1092.9 550.1C1093.1 558.6 1092.9 567 1090.9 575.3C1090.6 576.5 1089.9 576.2 1089.1 575.9C1080.5 572.433 1071.8 569.3 1063 566.5C1052.2 563 1041.2 560 1030.1 557.7C1029 557.5 1028.6 558 1028.2 558.7C1024.6 564.5 1020 569.2 1014.3 572.8C1008.1 576.8 1001.4 579 994.1 579.6C983.6 580.5 974 577.9 965.3 572C957.8 567 952.5 560.1 949.1 551.8C948.6 550.6 948.001 550.4 946.901 550.5C941.601 550.8 936.1 550.9 930.8 551.4C923.7 552 916.6 552.8 909.5 553.8C899.8 555.1 890.201 557 880.701 559.1C877.101 559.9 873.7 561.2 870.1 562C865.6 563.1 861.301 564.5 856.901 565.7C856.101 565.9 855.4 566.4 854.5 566.4C852.9 567 851.4 566.3 850 565.6C841.5 561.9 836.601 555.4 835.201 546.2C835.101 545.5 835.001 544.9 835.701 544.5Z" fill="#58585A"/>
<path d="M1091.9 543.5C1091.6 537.9 1091 532.3 1090 526.8C1084.4 496.9 1070.4 471.4 1047.6 451.2C1017.5 424.6 982.101 413.9 942.201 418.4C924.201 420.4 907.3 426.4 891.6 435.6C886.4 438.7 881.301 442 876.701 445.9C873.301 448.6 869.8 451.1 866.8 454.3C865.467 455.7 864.134 457.1 862.8 458.5C861.7 459.7 860.6 460.8 859.5 461.9C839.7 484.5 828.501 510.7 826.201 540.6C826.101 542.2 825.9 543.7 826.1 545.4C827.1 545 827.901 544.7 828.701 544.4C844.101 538.4 859.701 532.8 875.701 528.3C898.301 521.8 921.3 518.2 944.8 517.5C946.2 517.5 946.9 517.1 947.5 515.8C956.1 497.4 973.901 487 994.201 488.4C1013.8 489.7 1031.2 504.1 1036 523.4C1036.4 524.8 1037 525.4 1038.4 525.7C1046.4 527.3 1054.3 529.7 1061.9 532.7C1071.5 536.4 1080.7 540.8 1090.2 544.7C1091.9 545.4 1092 545.4 1091.9 543.5Z" fill="#FF0000"/>
<path d="M835.7 544.5C835.1 546.1 835.8 547.6 836.2 549.1C838.6 557.9 844.3 563.6 853.1 566.3C853.6 566.4 854.1 566.3 854.5 566.4C850.2 567.8 845.801 569.3 841.401 570.8C837.201 572.2 832.9 573.6 828.8 575.4C827.8 575.8 827.601 575.4 827.401 574.6C826.701 571.9 826.301 569.1 825.901 566.3C825.001 561 825.4 555.6 825.3 550.2C825.3 549 825.7 548.3 826.8 547.9C829.8 546.8 832.7 545.4 835.7 544.5Z" fill="#363638"/>
<path d="M991.8 501.8C1009.6 501.6 1024.5 516.4 1024.3 534.8C1024 552.7 1009.7 567.2 991.3 567.1C973 567 958.8 552.1 958.8 534.3C958.9 516.4 973.6 501.4 991.8 501.8Z" fill="black"/>
<path d="M961.6 534.1C961.9 517.5 975.501 504.2 991.901 504.5C1008.8 504.7 1021.7 518.3 1021.4 535.5C1021.2 551.7 1007.3 564.6 990.6 564.3C974.6 564 961.4 550.2 961.6 534.1Z" fill="#FEFEFE"/>
<path d="M991.7 511.4C1004.5 511.5 1014.7 521.9 1014.6 534.6C1014.4 547.3 1004.1 557.5 991.4 557.4C978.6 557.4 968.4 546.9 968.6 534C968.7 521.5 979.1 511.3 991.7 511.4Z" fill="black"/>
<path d="M1012.8 534.8C1012.1 547.2 1002.4 556.2 990.2 555.5C979 555 969.7 544.8 970.4 533.6C971 521.8 980.9 512.6 992.4 513.2C1004 513.8 1013.3 523.7 1012.8 534.8Z" fill="#FEFEFE"/>
<path d="M1048.9 474.9C1048.9 500.1 1028.4 520.6 1003.1 520.6C977.9 520.6 957.4 500.1 957.4 474.9C957.4 449.6 977.9 429.1 1003.1 429.1C1028.4 429.1 1048.9 449.6 1048.9 474.9Z" fill="url(#paint1_radial_0_1)"/>
<path d="M976.6 424.4C907.2 423.8 852.3 475.4 844.5 553.2L839.1 501.8C839.1 501.8 868.9 414.6 976.6 424.4Z" fill="url(#paint2_linear_0_1)"/>
<path d="M693.1 614.1C871.2 568.8 1049.1 568.9 1227.1 614.1V479.9C1048.9 475.2 871 475.2 693.3 479.9C692.4 485 692.3 609.5 693.1 614.1Z" fill="#666666"/>
<path d="M1187.1 623C1162.1 707.8 1080 785.1 970.2 789.4C847.2 794.3 758.3 710.2 732.5 621.8L807.9 605.4C838.6 673.3 889.1 712.7 964.9 710.7C1036.1 708.9 1086.7 667 1111.7 606L1187.1 623Z" fill="url(#paint3_linear_0_1)"/>
<path d="M930.8 314.5C877.8 320.7 831.9 343.3 793.6 380.5C769.4 403.9 751 431.3 738.3 463.4H756.5C790.2 391.9 845.4 348.3 923.3 332.7V388.3C878.7 399.3 844.1 423.7 819 462.1H826.5C859.6 416.4 903.5 391.2 960.2 391.3C1016.9 391.4 1060.7 416.7 1093.5 462.1H1101.1C1075.9 423.7 1041.1 399.2 996.7 388.4V332.7C1074.9 348.4 1130.2 392.3 1163.6 463.5H1181.5C1151.5 382.9 1059 299.6 930.8 314.5Z" fill="url(#paint4_linear_0_1)"/>
<path d="M1200.8 626.1C1174 718 1085.1 800.1 967.9 803.4C838.1 807.1 745.1 717.3 718.8 624.8L724.9 623.5C743.6 681.4 778.3 727.1 829.8 759.7C871.6 786.1 917.7 799.5 967 796.7C1080.9 790.1 1155 729.9 1195.6 624.9L1200.8 626.1Z" fill="url(#paint5_linear_0_1)"/>
<path d="M937.8 299.8C878.7 304.8 827.6 328.5 784.8 369.5C757.3 395.8 737 426.9 723.4 463.1H729.5C773 366.7 845.6 312.4 951.9 305.4C1065.8 305.9 1143.7 360.9 1190.9 463.4H1196.3C1166.3 376 1069.7 288.7 937.8 299.8Z" fill="url(#paint6_linear_0_1)"/>
<path d="M678.8 633.1V465.8C685.7 465.8 692.4 465.8 699.2 465.8C689.3 465.7 679.4 464.6 669.3 464.5V635.1C687 638.8 704.4 642.4 721.8 645.9C707.5 641.7 693.3 637.4 678.8 633.1Z" fill="url(#paint7_linear_0_1)"/>
<path d="M1109.3 374.1C1107.7 372.5 1105.4 371.6 1102.4 371.6C1101.93 371.6 1101.47 371.633 1101 371.7C1100.87 371.7 1100.73 371.7 1100.6 371.7H1100.1C1100.03 371.633 1099.97 371.533 1099.9 371.4C1099 370.1 1097.5 369.4 1095.9 369.4H1092.1C1090.6 369.4 1089.3 370 1088.4 371C1087.4 370 1086.1 369.4 1084.7 369.4H1080.9C1079.1 369.4 1077.4 370.4 1076.5 371.9C1075.6 371.7 1074.6 371.6 1073.5 371.6C1071 371.6 1069 372 1067.5 372.7C1066.3 372 1065 371.6 1063.3 371.6C1062.63 371.6 1062 371.633 1061.4 371.7C1061.27 371.7 1061.1 371.7 1060.9 371.7H1057.1C1056.2 371.7 1055.4 371.9 1054.7 372.3C1053.5 371.9 1052 371.6 1050.2 371.6C1049.47 371.6 1048.77 371.667 1048.1 371.8C1048.03 371.667 1047.97 371.533 1047.9 371.4C1046.9 370.1 1045.5 369.4 1043.9 369.4H1040C1039.87 369.4 1039.73 369.4 1039.6 369.4C1039.8 368.533 1039.9 367.667 1039.9 366.8C1039.9 365.5 1039.5 359 1030.1 359C1029.43 359 1028.8 359.033 1028.2 359.1C1028.13 358.967 1028.07 358.833 1028 358.7C1028.07 358.5 1028.17 358.267 1028.3 358C1028.43 357.667 1028.53 357.333 1028.6 357L1028.9 356.1C1029.1 355.233 1029.2 354.4 1029.2 353.6C1029.2 352.3 1028.8 345.7 1019.4 345.7C1018.2 345.7 1017.13 345.8 1016.2 346C1016.07 345.867 1015.97 345.7 1015.9 345.5C1014.9 344.2 1013.4 343.5 1011.8 343.5H1008C1007.47 343.5 1006.97 343.567 1006.5 343.7C1006.1 343.567 1005.67 343.5 1005.2 343.5H1001.3C1001.1 343.5 1000.87 343.533 1000.6 343.6C1000.4 343.5 1000.3 343.5 1000.1 343.5H996.2C994.4 343.5 992.8 344.5 991.9 346C991.033 345.8 990.033 345.7 988.9 345.7C986.5 345.7 984.6 346.2 983 346.8C983.1 345.6 982.8 344.4 982 343.4C981 342.1 979.6 341.4 978 341.4H975.9C974.4 341.4 973 342.1 972 343.3C971 342.1 969.599 341.4 968.099 341.4H942.299C936.999 341.4 932.5 343 929.2 346L932.099 335C932.599 333.1 932.3 331.2 931.4 329.4C930.4 327.7 928.8 326.5 926.9 326L884.799 314.8C884.199 314.667 883.567 314.6 882.9 314.6C879.6 314.6 876.699 316.8 875.799 320L870.099 341.4H845.099C842.899 341.4 840.899 342.8 840.299 345C839.699 346.8 840.199 348.9 841.599 350.2C839.799 350.6 838.4 352 837.9 353.8L829.4 385.4C829 386.9 829.299 388.6 830.299 389.8C831.299 391.1 832.799 391.8 834.299 391.8H856.7L854.7 399.4C854.1 401.3 854.4 403.3 855.4 405C856.4 406.7 858 407.9 859.9 408.4L901.9 419.6C902.5 419.8 903.133 419.9 903.799 419.9C907.099 419.9 910.1 417.6 910.9 414.4L918 388.1C918.533 387.633 919.066 387.167 919.599 386.7C919.999 387.233 920.399 387.7 920.799 388.1C923.199 390.6 926.9 391.8 931.5 391.8H957.299C958.799 391.8 960.2 391.1 961.2 390C962.2 391.1 963.599 391.8 965.099 391.8H967.2C969.5 391.8 971.399 390.3 972.099 388.2C973.499 389.4 975.799 390.4 979.299 390.4C980.899 390.4 982.3 390.2 983.5 389.8C984.166 390.133 984.866 390.3 985.599 390.3H989.4C989.733 390.3 990.067 390.267 990.4 390.2C990.733 390.267 991.067 390.3 991.4 390.3H995.299C995.966 390.3 996.633 390.167 997.299 389.9C998.399 390.2 999.7 390.4 1001.2 390.4C1001.73 390.4 1002.23 390.367 1002.7 390.3C1002.83 390.3 1003 390.3 1003.2 390.3H1007C1007.33 390.3 1007.67 390.267 1008 390.2C1008.33 390.267 1008.67 390.3 1009 390.3H1012.8C1013.2 390.3 1013.57 390.267 1013.9 390.2C1014.23 390.267 1014.57 390.3 1014.9 390.3H1018.7C1019.03 390.3 1019.37 390.267 1019.7 390.2C1019.83 390.2 1020 390.2 1020.2 390.2C1020.33 390.533 1020.5 390.833 1020.7 391.1C1021.6 392.3 1023.1 393 1024.7 393H1028.5C1030.5 393 1032.2 391.9 1033.1 390.2C1033.77 390.133 1034.4 390 1035 389.8C1035.67 390.133 1036.4 390.3 1037.2 390.3H1041C1041.9 390.3 1042.7 390.1 1043.4 389.7C1044.67 390.167 1046.17 390.4 1047.9 390.4C1049.7 390.4 1051.2 390.1 1052.5 389.7C1053.2 390.1 1054 390.3 1054.8 390.3H1058.6C1058.93 390.3 1059.27 390.267 1059.6 390.2C1059.93 390.267 1060.27 390.3 1060.6 390.3H1064.5C1065.3 390.3 1066 390.1 1066.7 389.8C1067.97 390.2 1069.43 390.4 1071.1 390.4C1073 390.4 1074.6 390.2 1075.9 389.8C1076.57 390.133 1077.3 390.3 1078.1 390.3H1081.9C1082.23 390.3 1082.57 390.267 1082.9 390.2C1083.23 390.267 1083.57 390.3 1083.9 390.3H1087.7C1088.03 390.3 1088.33 390.267 1088.6 390.2C1088.8 390.3 1089 390.3 1089.2 390.3H1089.3C1089.37 390.567 1089.5 390.833 1089.7 391.1C1090.7 392.3 1092.2 393 1093.7 393H1097.6C1099.5 393 1101.3 391.9 1102.1 390.2C1106.6 389.6 1109.7 387 1110.8 382.7L1111 382C1111.3 381.1 1111.4 380.3 1111.4 379.4C1111.4 377.3 1110.7 375.5 1109.3 374.1Z" fill="black"/>
<path fill-rule="evenodd" clip-rule="evenodd" d="M993.2 355.7H986.6L986.5 356.3C986.433 356.5 986.4 356.7 986.4 356.9C986.4 357.367 986.633 357.6 987.1 357.6C987.766 357.6 988.2 357.233 988.4 356.5H992.9C991.9 358.433 989.8 359.4 986.6 359.4C983.466 359.4 981.9 358.467 981.9 356.6C981.9 356.267 981.966 355.867 982.1 355.4L982.3 354.7C982.966 352.1 985.167 350.8 988.9 350.8C992.034 350.8 993.6 351.733 993.6 353.6C993.6 353.933 993.567 354.333 993.5 354.8L993.2 355.7ZM989 354.2L989.1 353.9C989.166 353.7 989.2 353.5 989.2 353.3C989.2 352.833 988.934 352.6 988.4 352.6C987.734 352.6 987.3 353.033 987.1 353.9L987 354.2H989Z" fill="white"/>
<path d="M997.2 359.3H993.4L996.2 348.6H1000.1L997.2 359.3Z" fill="white"/>
<path d="M1002.3 359.3H998.5L1000.7 350.9H1004.6L1002.3 359.3ZM1004.7 350.3H1000.8L1001.3 348.6H1005.1L1004.7 350.3Z" fill="white"/>
<path d="M1012.4 353.2H1010.6L1008.9 359.3H1005.1L1006.8 353.2H1004.9L1005.5 350.9H1007.4L1008 348.6H1011.8L1011.2 350.9H1013.1L1012.4 353.2Z" fill="white"/>
<path fill-rule="evenodd" clip-rule="evenodd" d="M1023.7 355.7H1017.1L1017 356.3C1016.93 356.5 1016.9 356.7 1016.9 356.9C1016.9 357.367 1017.13 357.6 1017.6 357.6C1018.27 357.6 1018.7 357.233 1018.9 356.5H1023.4C1022.4 358.433 1020.33 359.4 1017.2 359.4C1014.07 359.4 1012.5 358.467 1012.5 356.6C1012.5 356.267 1012.53 355.867 1012.6 355.4L1012.8 354.7C1013.53 352.1 1015.73 350.8 1019.4 350.8C1022.6 350.8 1024.2 351.733 1024.2 353.6C1024.2 353.933 1024.13 354.333 1024 354.8L1023.7 355.7ZM1019.5 354.2L1019.6 353.9C1019.67 353.7 1019.7 353.5 1019.7 353.3C1019.7 352.833 1019.43 352.6 1018.9 352.6C1018.23 352.6 1017.8 353.033 1017.6 353.9L1017.5 354.2H1019.5Z" fill="white"/>
<path fill-rule="evenodd" clip-rule="evenodd" d="M989.1 368.7C988.366 371.3 986.433 372.6 983.3 372.6C982.633 372.6 982.033 372.467 981.5 372.2V372.5H977.6L980.5 361.8H984.3L983.6 364.4C984.2 364.2 984.866 364.1 985.6 364.1C988.2 364.1 989.5 364.967 989.5 366.7C989.5 367.1 989.433 367.533 989.3 368L989.1 368.7ZM984.3 369.6L984.9 367.1C984.967 366.9 985 366.733 985 366.6C985 366.067 984.734 365.8 984.2 365.8C983.534 365.8 983.1 366.233 982.9 367.1L982.3 369.6C982.233 369.8 982.2 369.967 982.2 370.1C982.2 370.567 982.434 370.8 982.9 370.8C983.567 370.8 984.033 370.4 984.3 369.6Z" fill="white"/>
<path fill-rule="evenodd" clip-rule="evenodd" d="M999.1 372.5H995.2L995.3 372.2C994.7 372.467 994.033 372.6 993.3 372.6C990.566 372.6 989.2 371.967 989.2 370.7C989.2 370.567 989.233 370.4 989.3 370.2C989.566 369.267 990.166 368.6 991.1 368.2C991.7 368 992.634 367.833 993.9 367.7C995.167 367.567 996.1 367.367 996.7 367.1L996.8 366.9C996.8 366.767 996.8 366.667 996.8 366.6C996.8 366.133 996.5 365.9 995.9 365.9C995.1 365.9 994.6 366.233 994.4 366.9H990.4C991.334 365.033 993.3 364.1 996.3 364.1C999.1 364.1 1000.5 364.933 1000.5 366.6C1000.5 367 1000.43 367.4 1000.3 367.8L999.1 372.5ZM996 370L996.3 368.9C996.1 368.967 995.766 369.033 995.3 369.1C994.833 369.167 994.467 369.233 994.2 369.3C993.867 369.5 993.666 369.733 993.6 370C993.6 370.067 993.6 370.133 993.6 370.2C993.6 370.6 993.933 370.8 994.6 370.8C995.4 370.8 995.867 370.533 996 370Z" fill="white"/>
<path d="M1009 366.4H1007.1L1005.5 372.5H1001.7L1003.3 366.4H1001.4L1002.1 364.1H1003.9L1004.5 361.8H1008.4L1007.8 364.1H1009.6L1009 366.4Z" fill="white"/>
<path d="M1017.8 366.4H1015.9L1014.3 372.5H1010.5L1012.1 366.4H1010.2L1010.9 364.1H1012.7L1013.3 361.8H1017.2L1016.5 364.1H1018.4L1017.8 366.4Z" fill="white"/>
<path d="M1021.1 372.5H1017.2L1020.1 361.8H1023.9L1021.1 372.5Z" fill="white"/>
<path fill-rule="evenodd" clip-rule="evenodd" d="M1034.4 368.9H1027.8L1027.7 369.5C1027.63 369.767 1027.6 369.967 1027.6 370.1C1027.6 370.567 1027.83 370.8 1028.3 370.8C1028.97 370.8 1029.4 370.467 1029.6 369.8H1034.1C1033.1 371.667 1031.03 372.6 1027.9 372.6C1024.77 372.6 1023.2 371.667 1023.2 369.8C1023.2 369.467 1023.23 369.1 1023.3 368.7L1023.5 368C1024.23 365.4 1026.43 364.1 1030.1 364.1C1033.3 364.1 1034.9 365 1034.9 366.8C1034.9 367.2 1034.83 367.6 1034.7 368L1034.4 368.9ZM1030.2 367.4L1030.3 367.1C1030.37 366.9 1030.4 366.733 1030.4 366.6C1030.4 366.067 1030.13 365.8 1029.6 365.8C1028.93 365.8 1028.5 366.233 1028.3 367.1L1028.2 367.4H1030.2Z" fill="white"/>
<path d="M985.6 382.2C984.733 384.267 982.633 385.3 979.3 385.3C976.166 385.3 974.6 384.367 974.6 382.5C974.6 382.167 974.666 381.8 974.8 381.4L975 380.7C975.667 378.033 977.866 376.7 981.6 376.7C984.733 376.7 986.3 377.633 986.3 379.5C986.3 379.567 986.3 379.667 986.3 379.8H981.8C981.866 379.6 981.9 379.4 981.9 379.2C981.9 378.733 981.633 378.5 981.1 378.5C980.433 378.5 980 378.933 979.8 379.8L979.1 382.2C979.033 382.4 979 382.6 979 382.8C979 383.267 979.266 383.5 979.8 383.5C980.466 383.5 980.9 383.067 981.1 382.2H985.6Z" fill="white"/>
<path d="M995.3 385.2H991.4L992.9 379.8C992.967 379.533 993 379.333 993 379.2C993 378.733 992.734 378.5 992.2 378.5C991.534 378.5 991.1 378.933 990.9 379.8L989.4 385.2H985.6L988.5 374.5H992.3L991.6 377.1C992.2 376.833 993 376.7 994 376.7C995.867 376.7 996.8 377.433 996.8 378.9C996.8 379.233 996.733 379.633 996.6 380.1L995.3 385.2Z" fill="white"/>
<path fill-rule="evenodd" clip-rule="evenodd" d="M1007 385.2H1003.2V384.9C1002.6 385.167 1001.93 385.3 1001.2 385.3C998.467 385.3 997.1 384.667 997.1 383.4C997.1 383.2 997.134 383 997.2 382.8C997.467 381.933 998.067 381.3 999 380.9C999.6 380.633 1000.53 380.467 1001.8 380.4C1003.07 380.267 1004 380.067 1004.6 379.8L1004.7 379.6C1004.7 379.467 1004.7 379.333 1004.7 379.2C1004.7 378.733 1004.4 378.5 1003.8 378.5C1003 378.5 1002.5 378.867 1002.3 379.6H998.3C999.3 377.667 1001.3 376.7 1004.3 376.7C1007.03 376.7 1008.4 377.567 1008.4 379.3C1008.4 379.633 1008.37 380 1008.3 380.4L1007 385.2ZM1003.8 382.8L1004.1 381.7C1003.9 381.767 1003.57 381.833 1003.1 381.9C1002.63 381.967 1002.3 382.033 1002.1 382.1C1001.7 382.233 1001.47 382.467 1001.4 382.8C1001.4 382.867 1001.4 382.933 1001.4 383C1001.4 383.4 1001.73 383.6 1002.4 383.6C1003.2 383.6 1003.67 383.333 1003.8 382.8Z" fill="white"/>
<path d="M1024.6 385.2H1020.7L1022.2 379.8C1022.27 379.6 1022.3 379.4 1022.3 379.2C1022.3 378.733 1022.03 378.5 1021.5 378.5C1020.83 378.5 1020.37 378.933 1020.1 379.8L1018.7 385.2H1014.9L1016.3 379.8C1016.37 379.6 1016.4 379.4 1016.4 379.2C1016.4 378.733 1016.17 378.5 1015.7 378.5C1014.97 378.5 1014.5 378.933 1014.3 379.8L1012.8 385.2H1009L1011.3 376.8H1015.1L1015 377.1C1015.6 376.833 1016.43 376.7 1017.5 376.7C1018.7 376.7 1019.5 377.033 1019.9 377.7C1020.7 377.033 1021.83 376.7 1023.3 376.7C1025.17 376.7 1026.1 377.433 1026.1 378.9C1026.1 379.233 1026.03 379.633 1025.9 380.1L1024.6 385.2Z" fill="white"/>
<path fill-rule="evenodd" clip-rule="evenodd" d="M1036.9 381.4C1036.17 384 1034.23 385.3 1031.1 385.3C1030.43 385.3 1029.83 385.167 1029.3 384.9L1028.5 388H1024.7L1027.7 376.8H1031.5L1031.4 377.1C1032.07 376.833 1032.73 376.7 1033.4 376.7C1036 376.7 1037.3 377.6 1037.3 379.4C1037.3 379.8 1037.23 380.233 1037.1 380.7L1036.9 381.4ZM1032.7 379.8C1032.77 379.6 1032.8 379.4 1032.8 379.2C1032.8 378.733 1032.57 378.5 1032.1 378.5C1031.37 378.5 1030.9 378.933 1030.7 379.8L1030.1 382.2C1030.03 382.4 1030 382.6 1030 382.8C1030 383.267 1030.23 383.5 1030.7 383.5C1031.37 383.5 1031.83 383.067 1032.1 382.2L1032.7 379.8Z" fill="white"/>
<path d="M1041 385.2H1037.2L1039.4 376.8H1043.3L1041 385.2ZM1043.4 376.2H1039.5L1040 374.5H1043.8L1043.4 376.2Z" fill="white"/>
<path fill-rule="evenodd" clip-rule="evenodd" d="M1054.5 381.3C1053.83 383.967 1051.63 385.3 1047.9 385.3C1044.77 385.3 1043.2 384.367 1043.2 382.5C1043.2 382.167 1043.27 381.767 1043.4 381.3L1043.5 380.7C1044.23 378.033 1046.47 376.7 1050.2 376.7C1053.33 376.7 1054.9 377.633 1054.9 379.5C1054.9 379.833 1054.83 380.233 1054.7 380.7L1054.5 381.3ZM1049.7 382.1L1050.3 379.7C1050.37 379.5 1050.4 379.333 1050.4 379.2C1050.4 378.667 1050.17 378.4 1049.7 378.4C1049.03 378.4 1048.57 378.833 1048.3 379.7L1047.7 382.1C1047.63 382.367 1047.6 382.567 1047.6 382.7C1047.6 383.167 1047.83 383.4 1048.3 383.4C1049.03 383.4 1049.5 382.967 1049.7 382.1Z" fill="white"/>
<path d="M1064.5 385.2H1060.6L1062.1 379.8C1062.17 379.6 1062.2 379.4 1062.2 379.2C1062.2 378.733 1061.93 378.5 1061.4 378.5C1060.73 378.5 1060.3 378.933 1060.1 379.8L1058.6 385.2H1054.8L1057.1 376.8H1060.9L1060.8 377.1C1061.4 376.833 1062.23 376.7 1063.3 376.7C1065.1 376.7 1066 377.433 1066 378.9C1066 379.233 1065.93 379.633 1065.8 380.1L1064.5 385.2Z" fill="white"/>
<path d="M1078.2 379.4H1073.9C1073.9 379.267 1073.9 379.167 1073.9 379.1C1073.9 378.7 1073.63 378.5 1073.1 378.5C1072.23 378.5 1071.8 378.733 1071.8 379.2C1071.8 379.533 1072.3 379.8 1073.3 380C1074.83 380.267 1075.77 380.467 1076.1 380.6C1076.9 380.933 1077.3 381.433 1077.3 382.1C1077.3 382.3 1077.27 382.5 1077.2 382.7C1076.73 384.433 1074.7 385.3 1071.1 385.3C1067.83 385.3 1066.27 384.4 1066.4 382.6H1070.6C1070.6 382.733 1070.6 382.833 1070.6 382.9C1070.6 383.3 1070.9 383.5 1071.5 383.5C1072.37 383.5 1072.8 383.267 1072.8 382.8C1072.8 382.467 1072.33 382.2 1071.4 382C1069.87 381.733 1068.9 381.533 1068.5 381.4C1067.77 381.067 1067.4 380.567 1067.4 379.9C1067.4 379.7 1067.4 379.5 1067.4 379.3C1067.87 377.567 1069.9 376.7 1073.5 376.7C1076.7 376.7 1078.27 377.6 1078.2 379.4Z" fill="white"/>
<path d="M1087.7 385.2H1083.9L1085.4 379.8C1085.47 379.533 1085.5 379.333 1085.5 379.2C1085.5 378.733 1085.23 378.5 1084.7 378.5C1084.03 378.5 1083.57 378.933 1083.3 379.8L1081.9 385.2H1078.1L1080.9 374.5H1084.7L1084.1 377.1C1084.7 376.833 1085.5 376.7 1086.5 376.7C1088.37 376.7 1089.3 377.433 1089.3 378.9C1089.3 379.233 1089.23 379.633 1089.1 380.1L1087.7 385.2Z" fill="white"/>
<path d="M1093 385.2H1089.2L1091.4 376.8H1095.3L1093 385.2ZM1095.4 376.2H1091.6L1092 374.5H1095.8L1095.4 376.2Z" fill="white"/>
<path fill-rule="evenodd" clip-rule="evenodd" d="M1105.9 381.4C1105.23 384 1103.3 385.3 1100.1 385.3C1099.43 385.3 1098.87 385.167 1098.4 384.9L1097.6 388H1093.7L1096.7 376.8H1100.6L1100.5 377.1C1101.1 376.833 1101.73 376.7 1102.4 376.7C1105 376.7 1106.3 377.6 1106.3 379.4C1106.3 379.8 1106.23 380.233 1106.1 380.7L1105.9 381.4ZM1101.8 379.8C1101.87 379.6 1101.9 379.4 1101.9 379.2C1101.9 378.733 1101.63 378.5 1101.1 378.5C1100.43 378.5 1099.97 378.933 1099.7 379.8L1099.1 382.2C1099.03 382.4 1099 382.6 1099 382.8C1099 383.267 1099.27 383.5 1099.8 383.5C1100.47 383.5 1100.9 383.067 1101.1 382.2L1101.8 379.8Z" fill="white"/>
<path fill-rule="evenodd" clip-rule="evenodd" d="M877.8 362.3L875.5 370.9H855.8L853.8 378.1H865.6L863.3 386.7H834.3L842.8 355.1H857.4L845.1 346.5H874.1L871.7 355.1H860L858.1 362.3H877.8ZM869.3 378.1H873.7L871.3 386.7H867L869.3 378.1ZM882.1 346.5L879.8 355.2H875.4L877.7 346.5H882.1Z" fill="white"/>
<path fill-rule="evenodd" clip-rule="evenodd" d="M925.6 352.8C925.6 353.8 925.467 354.867 925.2 356C924 360.333 921.933 363.2 919 364.6C917.8 365.133 916.467 365.433 915 365.5L909.5 386.4C908.3 386.6 907.034 386.7 905.7 386.7H874.5L883 355.1H897.6L885.3 346.5H916.5C917.833 346.5 919 346.6 920 346.8C921.4 347.067 922.534 347.5 923.4 348.1C924.867 349.167 925.6 350.733 925.6 352.8ZM903.6 371.5C903.6 369.367 902.1 368.3 899.1 368.3H896.6L894 378.1H896.5C900.233 378.1 902.534 376.467 903.4 373.2C903.534 372.6 903.6 372.033 903.6 371.5ZM907.4 357.9C907.4 356.033 905.8 355.1 902.6 355.1H900.2L898.1 362.7H900.6C904.333 362.7 906.534 361.433 907.2 358.9C907.334 358.5 907.4 358.167 907.4 357.9ZM920.5 371.3C920.5 372.7 920.266 374.3 919.8 376.1C918.666 380.3 916.567 383.233 913.5 384.9L918.5 366.5C919.833 367.433 920.5 369.033 920.5 371.3Z" fill="white"/>
<path d="M957.3 386.7H931.5C925.633 386.7 922.7 384.367 922.7 379.7C922.7 378.5 922.9 377.1 923.3 375.5L928.1 357.7C930.1 350.233 934.833 346.5 942.3 346.5H968.1L965.8 355.1H951.6C947.866 355.1 945.467 356.967 944.4 360.7L941.3 372.5C941.1 373.3 941 374 941 374.6C941 376.933 942.467 378.1 945.4 378.1H959.6L957.3 386.7Z" fill="white"/>
<path fill-rule="evenodd" clip-rule="evenodd" d="M913.5 384.9L906 413.1C905.7 414.3 904.401 415 903.201 414.7L861.201 403.5C860.001 403.1 859.2 401.9 859.6 400.7L863.3 386.7H867L864.8 395L904.3 405.5L909.5 386.4C910.967 386.067 912.3 385.567 913.5 384.9ZM884.201 401.7C882.501 401.3 880.801 402.2 880.401 403.9C879.901 405.5 880.9 407.3 882.6 407.7C884.2 408.1 885.901 407.1 886.401 405.5C886.801 403.8 885.801 402.1 884.201 401.7ZM927.201 333.7L923.401 348.1L919 364.6L918.5 366.5C917.567 365.9 916.4 365.567 915 365.5L920 346.8L922.901 335.9L883.401 325.4L877.8 346.5H874.1L880.701 321.3C881.101 320.1 882.3 319.4 883.5 319.7L925.6 330.9C926.8 331.3 927.501 332.5 927.201 333.7ZM910.8 328.8L897.401 325.3C896.801 325.1 896.301 325.4 896.201 325.9C896.001 326.5 896.301 327 896.901 327.1L910.3 330.7C910.367 330.7 910.467 330.7 910.6 330.7C911 330.7 911.4 330.5 911.5 330C911.6 329.5 911.3 329 910.8 328.8ZM875.401 355.1L873.5 362.3L871.201 370.9H867.5L869.8 362.3L871.701 355.1H875.401ZM865.6 378.1H869.3L871.201 370.9H867.5L865.6 378.1Z" fill="#E00016"/>
<path d="M869.3 378.1L867 386.7H863.3L865.6 378.1H869.3Z" fill="white"/>
<path d="M877.8 346.5L875.4 355.1H871.7L874.1 346.5H877.8Z" fill="white"/>
<path d="M918.5 366.5L913.5 384.9C912.3 385.567 910.967 386.067 909.5 386.4L915 365.5C916.4 365.567 917.567 365.9 918.5 366.5Z" fill="white"/>
<path d="M978 346.5L967.2 386.7H965.1L975.9 346.5H978Z" fill="white"/>
<path d="M816.4 694.5C814.7 685.8 813.2 678 811.6 670.2C803.5 668.7 795.9 667.2 787.5 665.6C789.1 674 790.6 681.8 792.2 689.8C800 691.3 807.7 692.8 816.4 694.5Z" fill="black"/>
<path d="M1133.4 665.6C1124.7 667.3 1117 668.8 1109.2 670.4C1107.7 678.4 1106.2 686.1 1104.6 694.4C1113.3 692.9 1121.1 691.6 1128.8 689.6C1130.4 681.7 1131.8 674 1133.4 665.6Z" fill="black"/>
<path d="M792.6 509.9C785.6 510 782 510.1 774.9 510.2C774.9 527.6 774.9 545 774.9 562.4C768.7 563 765.6 563.3 759.4 563.9C759.4 546.1 759.4 528.267 759.4 510.4C752.5 510.6 749 510.6 742.1 510.8C742.1 506 742.1 503.6 742.1 498.8C758.966 498.8 775.834 498.8 792.7 498.8C792.6 503.3 792.6 505.5 792.6 509.9Z" fill="white"/>
<path fill-rule="evenodd" clip-rule="evenodd" d="M825.7 535.5C825.7 544.6 825.7 549.2 825.6 558.3C819.4 558.7 816.3 558.9 810.1 559.4C810.166 539.2 810.2 519 810.2 498.8C819.6 498.8 824.2 498.8 833.5 498.8C841.3 498.8 847.434 500.367 851.9 503.5C856.434 506.567 858.7 510.767 858.7 516.1C858.7 519.033 857.8 521.6 856 523.8C854.133 526 851.434 527.833 847.9 529.3C851.967 530.167 854.9 531.733 856.7 534C858.5 536.267 859.4 539.133 859.4 542.6C859.4 544.1 859.4 544.8 859.4 546.3C859.4 547.767 859.667 549.467 860.2 551.4C860.667 553.267 861.567 554.567 862.9 555.3C862.9 555.6 862.9 555.8 862.9 556.1C856.4 556.4 853.2 556.6 846.8 557C845.6 556.2 844.8 554.767 844.4 552.7C844.067 550.633 843.9 548.7 843.9 546.9C843.9 545.5 843.9 544.8 843.9 543.4C843.9 540.6 843.067 538.5 841.4 537.1C839.734 535.7 837.267 535.067 834 535.2C830.7 535.3 829 535.4 825.7 535.5ZM825.7 524.9C828.9 524.8 830.4 524.7 833.6 524.7C836.733 524.567 839.1 523.867 840.7 522.6C842.367 521.333 843.2 519.533 843.2 517.2C843.2 514.8 842.367 512.9 840.7 511.5C838.967 510.033 836.567 509.333 833.5 509.4C830.4 509.4 828.8 509.4 825.7 509.4C825.7 515.6 825.7 518.7 825.7 524.9Z" fill="white"/>
<path fill-rule="evenodd" clip-rule="evenodd" d="M916.5 543.4C908.5 543.6 904.5 543.7 896.6 543.9C895 548.3 894.3 550.5 892.7 554.9C886.1 555.1 882.9 555.2 876.3 555.5C883.566 536.567 890.9 517.667 898.3 498.8C901.6 498.8 903.2 498.8 906.6 498.8C909.9 498.8 911.6 498.8 914.9 498.8C922.167 517.2 929.466 535.567 936.8 553.9C930.2 554 926.9 554 920.4 554.1C918.8 549.9 918.1 547.7 916.5 543.4ZM900.2 533.8C905.3 533.7 907.8 533.7 912.9 533.6C910.4 526.8 909.2 523.3 906.7 516.4C906.6 516.4 906.5 516.4 906.4 516.4C903.9 523.4 902.7 526.8 900.2 533.8Z" fill="white"/>
<path d="M969.3 553.8C963.1 553.7 960 553.7 953.8 553.7C953.8 535.433 953.8 517.133 953.8 498.8C960 498.8 963.1 498.8 969.3 498.8C969.3 517.133 969.3 535.467 969.3 553.8Z" fill="white"/>
<path d="M1048.1 555.7C1041.9 555.4 1038.8 555.3 1032.6 555.1C1024.47 543.167 1016.3 531.267 1008.1 519.4C1008 519.4 1007.9 519.5 1007.8 519.5C1007.8 531.1 1007.8 542.7 1007.8 554.3C1001.6 554.2 998.5 554.1 992.3 554C992.3 535.6 992.267 517.2 992.2 498.8C998.5 498.8 1001.6 498.8 1007.8 498.8C1016 510.533 1024.17 522.333 1032.3 534.2C1032.4 534.1 1032.5 534.1 1032.6 534.1C1032.6 522.367 1032.57 510.6 1032.5 498.8C1038.7 498.8 1041.8 498.8 1048 498.8C1048.07 517.8 1048.1 536.767 1048.1 555.7Z" fill="white"/>
<path d="M1109.1 533.5C1099.7 533.1 1095 532.9 1085.6 532.5C1085.6 538.4 1085.6 541.3 1085.6 547.2C1095 547.667 1104.43 548.233 1113.9 548.9C1113.9 553.2 1113.9 555.4 1113.9 559.7C1099.3 558.633 1084.7 557.667 1070.1 556.8C1070.03 537.467 1070 518.133 1070 498.8C1084.6 498.8 1099.2 498.8 1113.8 498.8C1113.8 503.2 1113.8 505.4 1113.8 509.7C1104.4 509.567 1094.97 509.433 1085.5 509.3C1085.5 514.4 1085.5 516.9 1085.6 522C1095 522.2 1099.7 522.4 1109.1 522.7C1109.1 527 1109.1 529.1 1109.1 533.5Z" fill="white"/>
<path d="M1172.9 536.8C1163.5 536.2 1158.8 536 1149.4 535.4C1149.4 541.8 1149.4 545 1149.4 551.4C1158.8 552.133 1168.2 552.933 1177.6 553.8C1177.6 558.6 1177.6 560.9 1177.6 565.7C1163 564.167 1148.43 562.733 1133.9 561.4C1133.83 540.533 1133.8 519.667 1133.8 498.8C1148.4 498.8 1163 498.8 1177.6 498.8C1177.6 503.6 1177.6 506 1177.6 510.8C1168.2 510.6 1158.77 510.433 1149.3 510.3C1149.3 515.8 1149.3 518.5 1149.3 524C1158.8 524.4 1163.5 524.6 1172.9 525C1172.9 529.7 1172.9 532.1 1172.9 536.8Z" fill="white"/>
<path d="M790.7 500.8L790.6 507.9C784.8 508 781.3 508.1 774.9 508.2H773L772.9 535.4C768.967 535.667 765.134 535.9 761.4 536.1C761.4 521.8 761.4 508.4 761.4 508.4H759.4C753.2 508.6 749.7 508.6 744.1 508.7V500.8H790.7Z" fill="url(#paint8_linear_0_1)"/>
<path fill-rule="evenodd" clip-rule="evenodd" d="M856.7 516.1C856.7 518.6 856 520.7 854.4 522.5C852.8 524.4 850.4 526.1 847.1 527.4L841.2 529.9L847.5 531.2C848.9 531.533 850.166 531.933 851.3 532.4C837.7 532.8 824.6 533.2 812.2 533.7V500.8H833.5C840.8 500.8 846.6 502.3 850.8 505.1C854.8 507.8 856.7 511.4 856.7 516.1ZM845.2 517.2C845.2 514.2 844.2 511.8 842 509.9C840 508.2 837.2 507.4 833.7 507.4L823.8 507.5L823.7 526.9C823.7 526.9 830.5 526.7 833.6 526.7C837.2 526.6 840 525.7 842 524.2C844.1 522.5 845.2 520.1 845.2 517.2Z" fill="url(#paint9_linear_0_1)"/>
<path d="M913.6 500.8H907.3L904.6 503V500.8H899.6C895.7 510.8 891.7 521.1 887.7 531.5C891.434 531.433 895.2 531.367 899 531.3C901 525.5 902.3 522.1 904.5 515.8L905 514.5L908.1 514.4L908.6 515.8C910.8 522 912.1 525.4 914.1 531.1C917.9 531.033 921.7 530.967 925.5 530.9C921.2 520.2 917.3 510.3 913.6 500.8Z" fill="url(#paint10_linear_0_1)"/>
<path d="M967.3 530.4C963.5 530.4 959.666 530.433 955.8 530.5V500.8H967.3V530.4Z" fill="url(#paint11_linear_0_1)"/>
<path d="M1027 530C1024 530 1020.97 530 1017.9 530C1015.17 526.133 1012.43 522.233 1009.7 518.3L1008.9 517.1L1005.8 517.9V530.1C1002 530.1 998.166 530.1 994.3 530.1V500.8H1006.7C1013.7 510.8 1020.5 520.6 1027 530Z" fill="url(#paint12_linear_0_1)"/>
<path d="M1046.1 530C1042.3 530 1038.47 530 1034.6 530L1034.5 500.8H1046L1046.1 530Z" fill="url(#paint13_linear_0_1)"/>
<path d="M1107.1 524.6V530.3C1096.2 530.2 1084.4 530.1 1072 530V500.8H1111.8V507.7C1103.07 507.567 1094.33 507.433 1085.6 507.3H1083.5L1083.6 524H1085.5C1094.3 524.2 1099 524.4 1107.1 524.6Z" fill="url(#paint14_linear_0_1)"/>
<path d="M1149.4 508.3L1147.3 508.2V525.9L1149.3 526C1158 526.3 1162.7 526.5 1170.9 526.9V531.7C1161.9 531.3 1150 531 1135.8 530.7V500.8H1175.6V508.7C1166.87 508.567 1158.13 508.433 1149.4 508.3Z" fill="url(#paint15_linear_0_1)"/>
<path d="M1225.8 551.2C1225.8 572.2 1223.3 592.5 1218.7 612C1216.23 622.6 1213.17 632.9 1209.5 642.9C1209.37 643.233 1209.23 643.567 1209.1 643.9C1207.3 648.833 1205.33 653.667 1203.2 658.4C1180.8 709.2 1142.8 751.6 1095.4 779.7C1094.6 780.167 1093.83 780.633 1093.1 781.1C1092.37 781.5 1091.63 781.9 1090.9 782.3C1090.57 782.5 1090.23 782.667 1089.9 782.8C1089.83 782.867 1089.77 782.933 1089.7 783C1089.63 783.067 1089.53 783.133 1089.4 783.2C1055.2 802.2 1016.4 813.9 975 816.2C974.6 816.2 974.167 816.2 973.7 816.2C972.834 816.267 971.933 816.3 971 816.3C970.867 816.3 970.7 816.333 970.5 816.4H969.6C969.466 816.4 969.334 816.4 969.2 816.4C968.867 816.4 968.566 816.4 968.3 816.4H968.2C968 816.4 967.8 816.4 967.6 816.4C967.533 816.467 967.467 816.5 967.4 816.5C966.334 816.5 965.3 816.5 964.3 816.5C962.966 816.5 961.7 816.5 960.5 816.5H960.2C959.134 816.5 958.067 816.5 957 816.5C955.867 816.5 954.7 816.5 953.5 816.5C953.367 816.5 953.233 816.5 953.1 816.5C952.9 816.5 952.733 816.467 952.6 816.4C951.8 816.4 951 816.4 950.2 816.4C840.7 812.2 748.2 741.7 711.8 643.9C711.666 643.567 711.534 643.2 711.4 642.8C707.7 632.8 704.6 622.4 702.1 611.9C697.6 592.4 695.1 572.1 695.1 551.2C695.1 526.4 698.5 502.4 704.9 479.6C706.767 472.867 708.9 466.267 711.3 459.8C712.166 457.4 713.1 455.033 714.1 452.7C753.2 354.9 848.8 285.9 960.5 285.9C1012.5 285.9 1061 300.9 1102 326.8C1148.8 356.3 1185.7 400.1 1206.6 452C1210.2 461 1213.33 470.233 1216 479.7C1222.4 502.4 1225.8 526.4 1225.8 551.2Z" stroke="#662D91" stroke-miterlimit="10"/>
<defs>
<linearGradient id="paint0_linear_0_1" x1="1548.6" y1="471.4" x2="1532.8" y2="730.2" gradientUnits="userSpaceOnUse">
<stop stop-color="#C79317"/>
<stop offset="0.5" stop-color="#EEE64A"/>
<stop offset="1" stop-color="#C79416"/>
</linearGradient>
<radialGradient id="paint1_radial_0_1" cx="0" cy="0" r="1" gradientUnits="userSpaceOnUse" gradientTransform="translate(1004 467.8) scale(48.8 48.8)">
<stop stop-color="white"/>
<stop offset="1" stop-color="#F9CDCD" stop-opacity="0"/>
</radialGradient>
<linearGradient id="paint2_linear_0_1" x1="782.5" y1="520" x2="921.3" y2="312.1" gradientUnits="userSpaceOnUse">
<stop stop-color="white"/>
<stop offset="1" stop-color="#F9CDCD" stop-opacity="0"/>
</linearGradient>
<linearGradient id="paint3_linear_0_1" x1="1005.4" y1="608.9" x2="996.9" y2="794.6" gradientUnits="userSpaceOnUse">
<stop stop-color="#C79317"/>
<stop offset="0.5" stop-color="#EEE64A"/>
<stop offset="1" stop-color="#C79416"/>
</linearGradient>
<linearGradient id="paint4_linear_0_1" x1="927.9" y1="457.3" x2="947.8" y2="7.09999" gradientUnits="userSpaceOnUse">
<stop stop-color="#C79317"/>
<stop offset="0.5" stop-color="#EEE64A"/>
<stop offset="1" stop-color="#C79416"/>
</linearGradient>
<linearGradient id="paint5_linear_0_1" x1="1002.3" y1="610.1" x2="993.9" y2="794.2" gradientUnits="userSpaceOnUse">
<stop stop-color="#C79317"/>
<stop offset="0.5" stop-color="#EEE64A"/>
<stop offset="1" stop-color="#C79416"/>
</linearGradient>
<linearGradient id="paint6_linear_0_1" x1="924.2" y1="457.3" x2="944.1" y2="7.19997" gradientUnits="userSpaceOnUse">
<stop stop-color="#C79317"/>
<stop offset="0.5" stop-color="#EEE64A"/>
<stop offset="1" stop-color="#C79416"/>
</linearGradient>
<linearGradient id="paint7_linear_0_1" x1="1021.6" y1="435" x2="1005.2" y2="702.4" gradientUnits="userSpaceOnUse">
<stop stop-color="#C79317"/>
<stop offset="0.5" stop-color="#EEE64A"/>
<stop offset="1" stop-color="#C79416"/>
</linearGradient>
<linearGradient id="paint8_linear_0_1" x1="754.1" y1="541.5" x2="753.7" y2="506.3" gradientUnits="userSpaceOnUse">
<stop stop-color="#B6B3BA"/>
<stop offset="1" stop-color="white"/>
</linearGradient>
<linearGradient id="paint9_linear_0_1" x1="822.4" y1="540.9" x2="822" y2="505.6" gradientUnits="userSpaceOnUse">
<stop stop-color="#B6B3BA"/>
<stop offset="1" stop-color="white"/>
</linearGradient>
<linearGradient id="paint10_linear_0_1" x1="894.2" y1="540" x2="893.8" y2="504.6" gradientUnits="userSpaceOnUse">
<stop stop-color="#B6B3BA"/>
<stop offset="1" stop-color="white"/>
</linearGradient>
<linearGradient id="paint11_linear_0_1" x1="923.5" y1="539.3" x2="923.1" y2="504.3" gradientUnits="userSpaceOnUse">
<stop stop-color="#B6B3BA"/>
<stop offset="1" stop-color="white"/>
</linearGradient>
<linearGradient id="paint12_linear_0_1" x1="997.6" y1="538.4" x2="997.2" y2="503.5" gradientUnits="userSpaceOnUse">
<stop stop-color="#B6B3BA"/>
<stop offset="1" stop-color="white"/>
</linearGradient>
<linearGradient id="paint13_linear_0_1" x1="1003.5" y1="538.2" x2="1003.1" y2="503.4" gradientUnits="userSpaceOnUse">
<stop stop-color="#B6B3BA"/>
<stop offset="1" stop-color="white"/>
</linearGradient>
<linearGradient id="paint14_linear_0_1" x1="1081.1" y1="537.3" x2="1080.7" y2="502.5" gradientUnits="userSpaceOnUse">
<stop stop-color="#B6B3BA"/>
<stop offset="1" stop-color="white"/>
</linearGradient>
<linearGradient id="paint15_linear_0_1" x1="1143.8" y1="536.6" x2="1143.4" y2="501.8" gradientUnits="userSpaceOnUse">
<stop stop-color="#B6B3BA"/>
<stop offset="1" stop-color="white"/>
</linearGradient>
</defs>
</svg>
