<svg width="25" height="28" viewBox="0 0 25 28" fill="none" xmlns="http://www.w3.org/2000/svg">
<g id="instagram-brands 1" clip-path="url(#clip0_1_1355)">
<path id="Vector" d="M12.2683 8.23501C8.88883 8.23501 6.16293 10.9609 6.16293 14.3404C6.16293 17.7199 8.88883 20.4458 12.2683 20.4458C15.6478 20.4458 18.3737 17.7199 18.3737 14.3404C18.3737 10.9609 15.6478 8.23501 12.2683 8.23501ZM12.2683 18.3097C10.0844 18.3097 8.29901 16.5296 8.29901 14.3404C8.29901 12.1512 10.0791 10.3711 12.2683 10.3711C14.4575 10.3711 16.2376 12.1512 16.2376 14.3404C16.2376 16.5296 14.4522 18.3097 12.2683 18.3097ZM20.0475 7.98527C20.0475 8.77701 19.4098 9.40933 18.6234 9.40933C17.8317 9.40933 17.1994 8.77169 17.1994 7.98527C17.1994 7.19885 17.837 6.56121 18.6234 6.56121C19.4098 6.56121 20.0475 7.19885 20.0475 7.98527ZM24.0912 9.43059C24.0008 7.52299 23.5651 5.83324 22.1676 4.44107C20.7755 3.04889 19.0857 2.61317 17.1781 2.51753C15.2121 2.40594 9.31923 2.40594 7.35319 2.51753C5.4509 2.60786 3.76116 3.04358 2.36367 4.43576C0.966186 5.82793 0.535781 7.51767 0.440135 9.42527C0.328549 11.3913 0.328549 17.2842 0.440135 19.2502C0.530467 21.1578 0.966186 22.8475 2.36367 24.2397C3.76116 25.6319 5.44559 26.0676 7.35319 26.1633C9.31923 26.2749 15.2121 26.2749 17.1781 26.1633C19.0857 26.0729 20.7755 25.6372 22.1676 24.2397C23.5598 22.8475 23.9955 21.1578 24.0912 19.2502C24.2028 17.2842 24.2028 11.3966 24.0912 9.43059ZM21.5512 21.3597C21.1368 22.4012 20.3344 23.2036 19.2876 23.6233C17.7201 24.245 14.0006 24.1016 12.2683 24.1016C10.5361 24.1016 6.81119 24.2397 5.24898 23.6233C4.20751 23.2089 3.40515 22.4065 2.98537 21.3597C2.36367 19.7922 2.50714 16.0726 2.50714 14.3404C2.50714 12.6081 2.36899 8.88328 2.98537 7.32107C3.39984 6.27959 4.2022 5.47723 5.24898 5.05745C6.81651 4.43576 10.5361 4.57922 12.2683 4.57922C14.0006 4.57922 17.7254 4.44107 19.2876 5.05745C20.3291 5.47192 21.1315 6.27428 21.5512 7.32107C22.1729 8.88859 22.0295 12.6081 22.0295 14.3404C22.0295 16.0726 22.1729 19.7975 21.5512 21.3597Z" fill="#EEEEEE"/>
</g>
<defs>
<clipPath id="clip0_1_1355">
<rect width="23.8051" height="27.2059" fill="white" transform="translate(0.360352 0.742676)"/>
</clipPath>
</defs>
</svg>
