<svg width="28" height="28" viewBox="0 0 28 28" fill="none" xmlns="http://www.w3.org/2000/svg">
<g id="twitter-brands 1" clip-path="url(#clip0_1_1358)">
<path id="Vector" d="M24.4093 8.13517C24.4266 8.37683 24.4266 8.61855 24.4266 8.86021C24.4266 16.2313 18.8163 24.7245 8.56225 24.7245C5.40318 24.7245 2.46856 23.8096 0 22.2215C0.448844 22.2732 0.880365 22.2905 1.34648 22.2905C3.95309 22.2905 6.35263 21.4101 8.26878 19.9083C5.81749 19.8565 3.76323 18.2511 3.05545 16.0414C3.40074 16.0932 3.74596 16.1277 4.10851 16.1277C4.60911 16.1277 5.10976 16.0587 5.57582 15.9379C3.02097 15.42 1.10476 13.1759 1.10476 10.4656V10.3966C1.84702 10.8109 2.71023 11.0698 3.62508 11.1043C2.12323 10.1031 1.1393 8.3941 1.1393 6.46068C1.1393 5.42494 1.41545 4.4755 1.89883 3.64689C4.6436 7.03035 8.76938 9.23993 13.3957 9.48164C13.3094 9.06734 13.2576 8.63582 13.2576 8.20424C13.2576 5.13147 15.7434 2.62842 18.8334 2.62842C20.4388 2.62842 21.8889 3.30166 22.9074 4.3892C24.1675 4.14754 25.3759 3.68142 26.4462 3.04272C26.0319 4.33745 25.1515 5.42499 23.995 6.11545C25.117 5.99467 26.2046 5.68387 27.2058 5.25235C26.4464 6.35711 25.4969 7.34104 24.4093 8.13517Z" fill="#EEEEEE"/>
</g>
<defs>
<clipPath id="clip0_1_1358">
<rect width="27.2059" height="27.2059" fill="white" transform="translate(0 0.0734863)"/>
</clipPath>
</defs>
</svg>
